<?xml version="1.0" standalone="no"?>
<!DOCTYPE svg PUBLIC "-//W3C//DTD SVG 1.1//EN" "http://www.w3.org/Graphics/SVG/1.1/DTD/svg11.dtd" >
<svg xmlns="http://www.w3.org/2000/svg" xmlns:xlink="http://www.w3.org/1999/xlink" version="1.1">
<metadata>
Created by FontForge 20170731 at Sat Aug 29 02:36:51 2020
 By Aleksey,,,
Copyright (c) 2017 by Jacob Thomas. All rights reserved.
</metadata>
<defs>
<font id="ShurjoWeb-Regular" horiz-adv-x="0" >
  <font-face 
    font-family="ShurjoWeb"
    font-weight="400"
    font-stretch="normal"
    units-per-em="2048"
    panose-1="0 0 0 0 0 0 0 0 0 0"
    ascent="1638"
    descent="-410"
    x-height="958"
    cap-height="1306"
    bbox="-1191 -841 2405 1885"
    underline-thickness="102"
    underline-position="-307"
    unicode-range="U+0020-FB02"
  />
<missing-glyph horiz-adv-x="757" 
 />
    <glyph glyph-name="fi" unicode="fi" horiz-adv-x="1081" 
d="M-13 901l58 60h117q4 84 19.5 168t49.5 158.5t89.5 135.5t137.5 99q59 26 121 26q75 0 142 -37t121 -101l2 -20q1 -10 5 -19q-17 -35 -39.5 -66t-53.5 -55l-34 -1q-20 26 -46.5 56.5t-57.5 56.5t-65 43t-70 17q-33 0 -64 -18q-23 -13 -39 -44t-27 -72t-17.5 -88t-9.5 -92
t-4 -83.5t-1 -63.5h359q57 0 114 2t114 16q6 -8 13 -16l9 -11q7 -8 13 -16q-6 -19 -9.5 -58.5t-4.5 -83.5t-1 -85v-430q0 -51 -1 -73t-1 -28q0 -30 9.5 -55t39.5 -42t93 -26v-56q-38 1 -76 1.5t-76 0.5q-71 0 -141.5 -1.5t-141.5 -3.5v54q50 9 78 20t41.5 29.5t17 49
t3.5 79.5v508q0 51 -13 79t-37.5 40.5t-58.5 15t-76 2.5l-267 -1v-650q0 -54 11.5 -85t36 -47.5t62.5 -23t91 -11.5v-56q-51 1 -100.5 1.5t-100.5 0.5q-75 0 -149 -1.5t-149 -3.5v54q46 9 73.5 18t41.5 26t18.5 45.5t4.5 75.5v654l-151 -5z" />
    <glyph glyph-name="fl" unicode="fl" horiz-adv-x="1091" 
d="M45 961h117q4 82 20 166t50.5 159.5t89.5 137t136 97.5q71 31 135 31q103 0 197 -79q32 11 64.5 21.5t64.5 23.5l35 -43q-14 -55 -14 -115q0 -4 0.5 -22.5t0.5 -49.5t-1 -62l-6 -955q0 -47 1 -84t13 -64t40.5 -44t83.5 -24v-56q-38 1 -75.5 1.5t-75.5 0.5
q-71 0 -141.5 -1.5t-141.5 -3.5v54q47 8 74.5 17t41.5 26.5t18.5 46t4.5 75.5l2 1077q-22 23 -53.5 46.5t-68.5 43t-76.5 32t-77.5 12.5q-23 0 -44 -5t-40 -17q-22 -13 -37.5 -44.5t-26.5 -72.5t-17.5 -88t-10.5 -92t-5 -83.5t-1 -62.5h250l39 -33q-17 -24 -38.5 -45.5
t-44.5 -40.5q-21 8 -47 12.5t-54 6.5t-55 2.5t-50 0.5v-642q0 -54 11.5 -85t36.5 -47.5t63 -23t90 -11.5v-56q-51 1 -100.5 1.5t-100.5 0.5q-75 0 -149 -1.5t-149 -3.5v54q47 8 74 17.5t41.5 26.5t18.5 46t4 75v649h-151l-23 37z" />
    <glyph glyph-name=".notdef" horiz-adv-x="757" 
 />
    <glyph glyph-name=".null" horiz-adv-x="757" 
 />
    <glyph glyph-name="uni000D" horiz-adv-x="1631" 
 />
    <glyph glyph-name="space" unicode=" " horiz-adv-x="514" 
 />
    <glyph glyph-name="exclam" unicode="!" horiz-adv-x="831" 
d="M423 1303q42 32 86.5 57.5t92.5 47.5l49 -42l-82 -987l-61 -28q-9 5 -16.5 11.5t-15.5 13.5zM527 224q50 0 85 -35t35 -85t-35 -85t-85 -35t-85.5 34.5t-35.5 85.5t35.5 85.5t85.5 34.5z" />
    <glyph glyph-name="quotedbl" unicode="&#x22;" horiz-adv-x="741" 
d="M451 1353q32 22 67.5 37t72.5 28q7 -5 13.5 -10t11.5 -12l-47 -426l-53 -20l-17 11zM288 1418q16 -11 25 -22l-45 -426l-53 -20l-18 11l-47 392q32 22 67 37.5t71 27.5z" />
    <glyph glyph-name="numbersign" unicode="#" horiz-adv-x="1002" 
d="M82 529l189 1l60 260l-202 -2l-22 27q13 19 27 37t30 35l189 1l69 304q29 19 68 34l20 -27l-71 -311l221 2l70 302q29 19 68 34l20 -27l-70 -308l206 2l24 -25q-12 -20 -27 -37.5t-31 -34.5l-195 -3l-59 -259l207 2l24 -26q-12 -20 -27 -37t-32 -34l-194 -3l-82 -355
q-32 -20 -67 -35l-21 28l82 361l-221 -2l-81 -352q-33 -22 -66 -35l-21 28l82 358l-201 -2l-24 28q13 20 27.5 37t30.5 34zM578 533l60 260l-221 -3l-60 -260z" />
    <glyph glyph-name="dollar" unicode="$" horiz-adv-x="1018" 
d="M153 395h9q11 0 22 -2.5t22 -6.5q4 -42 26 -85t54.5 -81t71.5 -67t78 -43l14 430q-57 30 -110 63.5t-93 76.5t-64 97.5t-24 126.5q0 62 26.5 117t70 96.5t100.5 66t117 24.5l7 182q14 13 28 25t31 22l26 -23l-7 -208q142 -14 268 -79l11 -25q-11 -53 -25.5 -104.5
t-31.5 -102.5q-13 1 -25.5 2t-24.5 4q-3 41 -15 79t-33.5 69.5t-53 54.5t-73.5 32l-13 -407q75 -38 139 -69.5t111 -72.5t74 -100t27 -151q0 -73 -34 -131t-88 -99t-121 -64.5t-133 -26.5l-5 -190q-14 -13 -29 -24t-31 -22l-26 23l7 213q-70 3 -142 17t-137 41
q-9 9 -14.5 20t-10.5 23q3 141 24 279zM315 974q0 -33 13 -62t33.5 -53.5t46.5 -45t51 -37.5l12 363q-32 -1 -60.5 -15t-49.5 -36t-33.5 -51.5t-12.5 -62.5zM520 96q32 3 65.5 15t61.5 33t45.5 50t17.5 65t-17.5 69.5t-44 63.5t-57.5 55.5t-58 43.5z" />
    <glyph glyph-name="percent" unicode="%" horiz-adv-x="1591" 
d="M1160 1277q52 11 101 11l22 -48l-923 -1368q-25 -5 -49.5 -9t-49.5 -4l-13 49zM447 1280q61 0 114 -22.5t92.5 -62t62.5 -92.5t23 -114q0 -67 -24 -126t-66 -103t-99.5 -69.5t-125.5 -25.5q-61 0 -111 24t-85.5 64t-55 93t-19.5 111q0 63 21 121t60 103t93 72t120 27z
M296 1006q0 -40 13.5 -84.5t39 -82t62 -61.5t82.5 -24q27 0 47.5 19t33.5 46t19.5 57t6.5 52q0 38 -14 84.5t-39.5 87.5t-61.5 69t-80 28q-28 0 -48.5 -21.5t-34 -52t-20 -63t-6.5 -54.5zM878 292q0 62 21 120t59.5 103t92.5 72t120 27q62 0 115.5 -23t93 -63t62 -94
t22.5 -116q0 -67 -24 -125.5t-67 -101.5t-100.5 -68t-125.5 -25q-61 0 -110.5 24.5t-84.5 65t-54.5 93.5t-19.5 111zM1021 334q0 -39 13.5 -82.5t39 -80t61.5 -60.5t80 -24q29 0 50 19.5t34 47t19 58.5t6 54q0 39 -14 85t-40 85.5t-62 66.5t-81 27q-28 0 -48 -22.5t-33 -54
t-19 -65t-6 -54.5z" />
    <glyph glyph-name="ampersand" unicode="&#x26;" horiz-adv-x="1343" 
d="M365 757q-35 69 -58 143t-23 152q0 81 27 144.5t75 107.5t113.5 67t141.5 23q49 0 93.5 -19t78.5 -51.5t54 -76t20 -93.5q0 -69 -31.5 -128t-80.5 -109t-107.5 -90.5t-111.5 -71.5q79 -122 170.5 -234t194.5 -215q16 28 32 68.5t26.5 85t11.5 69.5t1 31q0 38 -12.5 71
t-43.5 55t-86 22q-20 0 -40 -3l-39 38q17 23 28.5 40t25 28.5t32 17t48.5 5.5h4l310 -3q18 0 36.5 1t36.5 4q18 -18 32 -40l-113 -115q-46 14 -92.5 23.5t-94.5 9.5q51 -50 66 -105t15 -102q0 -18 -4.5 -61t-32 -106t-66.5 -112q32 -29 64 -59t67 -54.5t74 -42t85 -21.5v-52
q-22 -8 -48.5 -17t-53.5 -16.5t-53.5 -13t-50.5 -5.5q-28 0 -59.5 15.5t-62 38t-57.5 47.5t-47 43q-85 -66 -185.5 -105.5t-208.5 -39.5q-86 0 -162 30t-132.5 83.5t-89.5 127t-33 161.5q0 71 26.5 134t70 115t101 92.5t118.5 67.5zM400 1132q0 -41 10.5 -81.5t27 -79.5
t37 -76.5t40.5 -71.5q43 18 84.5 50t74 72.5t52.5 87.5t20 96q0 39 -14.5 73t-39.5 59t-59 39.5t-73 14.5t-69 -15t-50 -40t-30.5 -58.5t-10.5 -69.5zM218 391q0 -76 27.5 -132.5t73.5 -93.5t105.5 -55.5t122.5 -18.5t124.5 18t114.5 53q-110 115 -204.5 246.5t-173.5 269.5
q-88 -43 -139 -115t-51 -172z" />
    <glyph glyph-name="quotesingle" unicode="'" horiz-adv-x="484" 
d="M302 1418q16 -11 25 -22l-47 -426l-53 -20l-17 11l-46 392q31 23 66.5 38t71.5 27z" />
    <glyph glyph-name="parenleft" unicode="(" horiz-adv-x="672" 
d="M115 627q0 279 104.5 496t327.5 386q10 -11 18.5 -23.5t16.5 -25.5q-94 -108 -155.5 -207t-97 -203.5t-49.5 -220.5t-14 -258q0 -141 14 -257.5t49.5 -221.5t97 -204.5t155.5 -205.5q-8 -13 -16.5 -25.5t-18.5 -23.5q-121 99 -203.5 209.5t-133.5 234t-73 260.5t-22 290z
" />
    <glyph glyph-name="parenright" unicode=")" horiz-adv-x="672" 
d="M411 571q0 141 -14 257.5t-49.5 220.5t-96.5 203.5t-155 207.5q8 13 16 25.5t19 23.5q117 -89 199 -192.5t133.5 -221t74.5 -248.5t23 -275q0 -136 -27 -267.5t-80.5 -251.5t-134 -226.5t-188.5 -193.5q-21 21 -35 49q94 108 155 207t96.5 203.5t49.5 221t14 257.5z" />
    <glyph glyph-name="asterisk" unicode="*" horiz-adv-x="958" 
d="M853 1292l-307 -135l305 -138l-18 -102l-59 -30l-269 198l31 -331l-96 -38l-56 38l36 331l-270 -194l-82 66l5 66l307 134l-306 138l18 103l59 31l269 -198l-31 331l97 37l55 -37l-36 -331l271 194l81 -67z" />
    <glyph glyph-name="plus" unicode="+" horiz-adv-x="1042" 
d="M584 947l-3 -337l351 5l24 -33l-57 -88l-319 -5l-3 -312l-89 -55l-33 22l4 344l-352 -3l-22 33l57 89l318 2l2 305l89 56z" />
    <glyph glyph-name="comma" unicode="," horiz-adv-x="704" 
d="M200 166q11 15 27.5 30.5t36.5 28t41 20.5t40 8q31 0 57 -17.5t45 -44.5t29.5 -58.5t10.5 -58.5q0 -57 -21 -109t-56.5 -96t-81 -78.5t-94.5 -57.5l-33 42q38 32 66 82t31.5 80.5t3.5 40.5q0 39 -20 78t-84 59z" />
    <glyph glyph-name="hyphen" unicode="-" horiz-adv-x="803" 
d="M170 652q122 0 242.5 2.5t242.5 6.5l24 -33q-12 -24 -26.5 -46.5t-31.5 -43.5q-122 0 -242.5 -3.5t-242.5 -5.5l-22 33q22 46 56 90z" />
    <glyph glyph-name="period" unicode="." horiz-adv-x="704" 
d="M295 234q26 0 49.5 -10t40.5 -27t27 -40.5t10 -49.5t-10 -49t-27.5 -40t-40.5 -27t-49 -10t-49 10t-40.5 27t-27.5 40t-10 49t10 49.5t27.5 40.5t40.5 27t49 10z" />
    <glyph glyph-name="slash" unicode="/" horiz-adv-x="722" 
d="M667 1390l-558 -1621l-97 -39l-26 46l547 1620l98 36z" />
    <glyph glyph-name="zero" unicode="0" horiz-adv-x="968" 
d="M71 612q0 64 8.5 136.5t27.5 144t50 137t77 116t107.5 80.5t141.5 30t141.5 -30t107 -80.5t77 -116.5t51 -137.5t28 -144t8.5 -135.5q0 -77 -12.5 -162.5t-42 -166.5t-76.5 -150t-116 -114q-38 -25 -79 -38t-87 -13q-80 0 -142 30t-108 80t-77 116t-50 137.5t-27 144
t-8 136.5zM489 34q55 0 93.5 28.5t64.5 74t41.5 103t23.5 116t10.5 113t2.5 92.5q0 43 -1.5 107t-8.5 135t-22.5 142t-43.5 127.5t-71 92t-105 35.5q-52 0 -88 -33t-60.5 -86t-38.5 -118.5t-20.5 -130t-8.5 -121.5t-2 -93q0 -37 2.5 -95t11 -123t24 -130t41.5 -117.5
t64 -85.5t91 -33z" />
    <glyph glyph-name="one" unicode="1" horiz-adv-x="983" 
d="M162 1060v64q109 22 214.5 55.5t207.5 78.5l31 -48l-8 -999q0 -17 0.5 -35t5.5 -35q7 -27 32.5 -42.5t57.5 -24.5t65.5 -13.5t55.5 -8.5v-59q-88 5 -175.5 7.5t-175.5 2.5q-66 0 -131.5 -1t-131.5 -3v55q25 3 60 7.5t69 14t62 26t38 43.5q6 16 8 32t2 33v768
q0 16 -1 36.5t-7 38.5t-18 30t-35 12q-56 0 -109 -15.5t-106 -29.5z" />
    <glyph glyph-name="two" unicode="2" horiz-adv-x="972" 
d="M631 873q0 51 -8 101t-30 89.5t-59.5 64t-97.5 24.5q-44 0 -80.5 -15.5t-63 -42.5t-42 -64t-18.5 -80q-27 -18 -56.5 -30.5t-61.5 -20.5q-11 10 -21 20.5t-18 23.5q55 121 138 191t212 102q45 12 88 12q62 0 113.5 -24.5t88.5 -67t57.5 -99.5t20.5 -122
q0 -60 -28.5 -130.5t-75 -145.5t-104.5 -150t-118 -144.5t-116 -129.5t-97 -104h366q50 0 81.5 5.5t54 21t39 43.5t35.5 73l51 -10q-15 -66 -27.5 -132.5t-18.5 -134.5l-13 -14q-240 12 -481 12q-66 0 -130.5 -1t-130.5 -6q-12 32 -18 64q42 44 100.5 105t121.5 131.5
t125 148t111.5 154t80 149t30.5 133.5z" />
    <glyph glyph-name="three" unicode="3" horiz-adv-x="961" 
d="M89 54q0 12 3.5 34t11 44.5t19 39t26.5 16.5q6 0 29.5 -17.5t59 -39t80 -39t92.5 -17.5q62 0 114 23.5t89.5 64t59 94t21.5 113.5q0 72 -22.5 119t-62.5 75.5t-94.5 40t-118.5 11.5q-46 0 -91 -6l-11 16l-11 57q34 8 69 18t69 24q36 15 73 44.5t66.5 67t48.5 80t19 82.5
q0 35 -16 64.5t-42.5 50.5t-59 32.5t-65.5 11.5q-34 0 -59 -13t-42 -34t-27.5 -48.5t-16.5 -57.5q-64 -32 -133 -44q-19 19 -32 39q30 53 70 99t89 80t106 53t120 19q59 0 108.5 -15.5t85.5 -47t56.5 -78t20.5 -108.5q0 -49 -20 -89t-51.5 -72.5t-70 -58.5t-76.5 -49v-16
q54 -6 103.5 -27t88 -55t61.5 -80.5t23 -104.5q0 -78 -24.5 -141.5t-66.5 -115t-99 -92.5t-123 -73q-60 -29 -112 -44.5t-102 -15.5q-57 0 -113 20.5t-120 65.5z" />
    <glyph glyph-name="four" unicode="4" horiz-adv-x="961" 
d="M595 1187l95 56l34 -33v-753h160l22 -33l-65 -78h-117v-148q0 -46 6 -73.5t22 -43t44 -22t72 -11.5v-49q-81 2 -161.5 3.5t-161.5 1.5q-44 0 -87.5 -1t-87.5 -3v54q40 3 76.5 10t64 23.5t43.5 46t16 77.5v135h-499l-12 63zM570 457v524l-16 9l-370 -533h386z" />
    <glyph glyph-name="five" unicode="5" horiz-adv-x="1001" 
d="M96 62q4 16 11 34.5t18 34.5t25 28.5t32 16.5q63 -42 133.5 -73.5t148.5 -31.5q65 0 114 23.5t82.5 64t50.5 95t17 115.5q0 62 -18 115.5t-53 93.5t-85 63t-115 23q-59 0 -115.5 -15.5t-110.5 -39.5l-39 30l84 614l474 -1q20 0 38.5 2t37.5 7q23 -20 40 -46l-97 -126
h-411l-47 -331q50 14 101 22t103 8q75 0 143.5 -24.5t121 -69.5t83.5 -108t31 -141q0 -71 -32 -142.5t-83.5 -133t-116 -108t-129.5 -68.5q-75 -25 -158 -25q-72 0 -141 19t-131 56z" />
    <glyph glyph-name="six" unicode="6" horiz-adv-x="965" 
d="M77 503q0 152 60.5 281t161 229t230.5 167t270 95l23 -64q-99 -37 -191.5 -90.5t-167.5 -125t-127.5 -161.5t-71.5 -200q31 25 65.5 50.5t72 46t77 33.5t81.5 13q73 0 134 -29t104.5 -77.5t68 -113t24.5 -136.5q0 -93 -27.5 -175.5t-80 -144t-128.5 -97.5t-172 -36
q-108 0 -184.5 48t-126 125t-72.5 172.5t-23 189.5zM255 557q0 -45 3.5 -100t13.5 -111t28.5 -108.5t49 -93.5t74 -65.5t103.5 -24.5q56 0 95 18.5t64 52t36 79t11 99.5q0 53 -12.5 115.5t-40.5 116.5t-72.5 90t-109.5 36q-68 0 -129.5 -32t-113.5 -72z" />
    <glyph glyph-name="seven" unicode="7" horiz-adv-x="946" 
d="M119 1226l27 25q48 -5 95 -6.5t95 -1.5h515l45 -59q-67 -139 -135 -279.5t-133 -283t-125 -286.5t-110 -290l-161 -67l-44 40l559 1075q-44 1 -87 1h-302q-60 0 -96.5 -5.5t-60 -23.5t-38.5 -52t-31 -92l-56 11q9 74 20 147t23 147z" />
    <glyph glyph-name="eight" unicode="8" horiz-adv-x="975" 
d="M357 614q-48 23 -89 51t-70 63.5t-45.5 80.5t-16.5 102q0 74 29 135t78.5 104.5t114 68t135.5 24.5q60 0 119 -16.5t105.5 -50.5t75.5 -84t29 -118q0 -52 -20 -95t-51.5 -79t-71.5 -66t-79 -56q58 -26 107.5 -57t86 -71t57 -92t20.5 -121q0 -82 -37 -149t-97 -114
t-135 -73t-151 -26q-73 0 -138.5 21.5t-114.5 63t-78 102t-29 138.5q0 58 25 105t63.5 85t85.5 68.5t92 55.5zM549 703q54 45 87 104.5t33 130.5q0 46 -12 90t-36 78t-61 55t-88 21q-40 0 -76.5 -21t-65 -54t-45.5 -73t-17 -78q0 -50 29.5 -89t73 -69.5t92 -53.5t86.5 -41z
M509 49q48 0 86 21t64.5 54.5t40 76.5t13.5 88q0 60 -28 105t-71 79.5t-94 60.5t-97 49q-38 -20 -71 -48.5t-57 -63t-38 -74.5t-14 -85q0 -55 21 -103t57.5 -83.5t85 -56t102.5 -20.5z" />
    <glyph glyph-name="nine" unicode="9" horiz-adv-x="968" 
d="M479 1275q110 0 188 -47.5t128 -123.5t73.5 -172t23.5 -193q0 -151 -60.5 -280t-160.5 -229t-230 -167t-270 -95l-23 62q99 37 191.5 90.5t167.5 125.5t127 162t71 200q-31 -24 -65.5 -49.5t-72 -46t-77 -33.5t-80.5 -13q-73 0 -134 28.5t-105 77t-68 113t-24 136.5
q0 90 27 172t78.5 145t126 100t168.5 37zM468 582q69 0 130.5 32t114.5 72q1 5 1 11v11q0 46 -3.5 99.5t-13.5 106.5t-28.5 103t-49 88t-74 61t-104.5 23q-55 0 -94 -20t-64 -53.5t-36 -79t-11 -96.5q0 -52 12 -114.5t39.5 -116.5t72 -90.5t108.5 -36.5z" />
    <glyph glyph-name="colon" unicode=":" horiz-adv-x="1042" 
d="M624 946q0 26 10 49.5t27.5 40.5t40.5 27t49 10t49.5 -10t40.5 -27t27 -40.5t10 -49.5t-10 -49t-27.5 -40t-40.5 -27t-49 -10t-49 10t-40.5 27t-27.5 40t-10 49zM755 430q26 0 49.5 -10t40.5 -27t27 -40.5t10 -49.5t-10 -49t-27.5 -40t-40.5 -27t-49 -10t-49 10t-40.5 27
t-27.5 40t-10 49t10 49.5t27.5 40.5t40.5 27t49 10z" />
    <glyph glyph-name="semicolon" unicode=";" horiz-adv-x="782" 
d="M365 820q-26 0 -49 10t-40.5 27t-27.5 40t-10 49t10 49.5t27.5 40.5t40.5 27t49 10t49.5 -10t40.5 -27t27 -40.5t10 -49.5t-10 -49t-27.5 -40t-40.5 -27t-49 -10zM200 166q11 15 27.5 30.5t36.5 28t41 20.5t40 8q30 0 56 -17.5t45 -43.5t30 -57.5t11 -60.5
q0 -57 -21 -109t-56.5 -96t-81 -78.5t-94.5 -57.5l-33 42q38 32 66 82t31.5 80.5t3.5 40.5q0 39 -20 78t-84 59z" />
    <glyph glyph-name="less" unicode="&#x3c;" horiz-adv-x="992" 
d="M870 932l32 -39l-51 -145l-594 -215v-19l633 -260l11 -48l-164 -64l-655 321l-15 34l51 110z" />
    <glyph glyph-name="equal" unicode="=" horiz-adv-x="1013" 
d="M65 673q23 38 56 72l792 9l22 -27l-56 -73l-791 -6zM62 353q24 35 56 72l792 6l22 -25l-56 -72l-792 -8z" />
    <glyph glyph-name="greater" unicode="&#x3e;" horiz-adv-x="964" 
d="M107 125l-31 37l51 145l594 215v19l-645 269l-13 48l164 65l668 -330l15 -35l-51 -110z" />
    <glyph glyph-name="question" unicode="?" horiz-adv-x="1050" 
d="M628 1238q43 0 85.5 -14t79.5 -39t67.5 -58.5t49.5 -71.5q38 -76 38 -136q0 -8 -3.5 -44.5t-36.5 -87.5t-83.5 -91.5t-97.5 -78.5t-81 -78t-34 -88q0 -24 8.5 -45.5t22 -40.5t30 -36t33.5 -31q-8 -14 -17 -26.5t-22 -21.5q-41 20 -79.5 43t-68 52.5t-47 68t-17.5 89.5
q0 35 22.5 68.5t57.5 67t78 67t84 68.5t75 71t49.5 70t15.5 66q0 8 -2.5 32.5t-38.5 68.5q-19 23 -49.5 33t-65.5 10q-48 0 -94.5 -18t-72.5 -49q36 -30 40 -53.5t4 -34.5q0 -25 -13 -52.5t-46.5 -49.5t-78.5 -22q-29 0 -55 10.5t-46 28.5t-32 43t-12 55q0 62 35.5 109.5
t88.5 80t115 49t114 16.5zM487 -8q0 26 10 49.5t27.5 40.5t40.5 27t49 10t49.5 -10t40.5 -27t27 -40.5t10 -49.5t-10 -49t-27.5 -40t-40.5 -27t-49 -10t-49 10t-40.5 27t-27.5 40t-10 49z" />
    <glyph glyph-name="at" unicode="@" horiz-adv-x="1575" 
d="M887 1236q130 0 246.5 -39.5t204 -114.5t138.5 -184t51 -249q0 -93 -24.5 -176.5t-71.5 -153.5t-114.5 -124.5t-154.5 -88.5q-11 -4 -33 -11.5t-50 -14.5t-58 -12.5t-57 -5.5q-35 0 -58 11.5t-23 42.5q0 29 7.5 65.5t17.5 75.5t20.5 76t17.5 67l-10 6q-30 -45 -73 -104
t-94.5 -112t-109.5 -90t-117 -37q-34 0 -55 18.5t-32.5 46t-15.5 59t-4 57.5q0 75 15 151t43.5 147t71 135.5t96.5 117.5q21 21 46.5 41.5t53.5 37t58.5 26.5t61.5 10q53 0 94 -25.5t82 -55.5q39 39 75 81l45 -40q-21 -84 -39 -167.5t-39 -167.5q-9 -37 -21.5 -76.5
t-24 -79.5t-19 -80t-7.5 -79q0 -21 10 -30t26 -9t35 6.5t37.5 15.5t34 18t24.5 14q113 65 174.5 157.5t61.5 225.5q0 119 -39 216t-109.5 165.5t-168.5 106t-216 37.5q-144 0 -269 -55.5t-218 -151t-146.5 -222t-53.5 -269.5q0 -154 51.5 -274t139 -201.5t203 -124
t243.5 -42.5q72 0 146 13.5t148 42.5q5 -31 15 -57q-91 -45 -189 -70.5t-200 -25.5q-154 0 -282.5 56.5t-221.5 155t-145 230.5t-52 283q0 169 65.5 316t178 255.5t261.5 171t316 62.5zM953 514q8 16 15.5 43.5t14 57.5t12 58.5t8.5 47.5q-15 34 -43 52t-65 18
q-47 0 -88.5 -22t-77 -58.5t-63 -83.5t-47 -97t-30 -98.5t-10.5 -88.5q0 -50 15.5 -70.5t41.5 -20.5q24 0 55 15t63.5 39.5t65 54t59.5 59t46.5 54.5t27.5 40z" />
    <glyph glyph-name="A" unicode="A" horiz-adv-x="1296" 
d="M19 56q36 8 61.5 25.5t48.5 45.5q20 24 47.5 78t59.5 128t67 163t70.5 183.5t70 189.5t65 180.5t56 157t42.5 118.5l94 35l397 -1088q21 -58 36 -96t33.5 -62t46 -37t75.5 -23v-54q-85 6 -172 6q-75 0 -149 -2t-149 -4v65q14 1 36 3t42.5 9t35 19t14.5 32q0 9 -7.5 34
t-19 58t-25 71.5t-27 73.5t-24 63t-15.5 42h-448q-12 -32 -30 -76.5t-34.5 -91.5t-28.5 -91.5t-12 -76.5q0 -25 17 -41t41 -25t50.5 -12.5t45.5 -4.5v-52q-74 3 -146.5 4t-146.5 1q-29 0 -59 -0.5t-59 -3.5v56zM797 560l-182 519l-17 -8l-184 -511h383z" />
    <glyph glyph-name="B" unicode="B" horiz-adv-x="1118" 
d="M184 286l2 804q0 24 -2.5 49.5t-11.5 47t-26.5 35.5t-48.5 14l-74 -3l-10 65q141 11 280.5 17.5t280.5 6.5q72 0 142 -20.5t125 -60.5t89 -99.5t34 -138.5q0 -61 -21 -108.5t-57 -84t-83.5 -63.5t-99.5 -46v-6q66 -5 130.5 -31t116 -69.5t83 -103t31.5 -130.5
q0 -103 -49.5 -174t-126.5 -114.5t-169.5 -62.5t-178.5 -19q-109 0 -217.5 5.5t-217.5 5.5q-23 0 -47 -0.5t-48 -1.5v54q59 5 93.5 22.5t52.5 46.5t23 70t5 93zM384 738q70 0 143 9t133 37.5t98.5 81.5t38.5 141q0 59 -27.5 104.5t-71.5 76.5t-97.5 46.5t-106.5 15.5
q-42 0 -68 -7t-40.5 -23t-19.5 -43t-5 -67v-372h23zM516 71q77 0 141.5 14t111.5 47.5t73.5 90.5t26.5 142q0 87 -32 144t-85 91t-120.5 48t-139.5 14h-9l-17 -1h-9l-96 -4l-9 -438v-8q0 -40 9.5 -67.5t29.5 -44t51.5 -22.5t73.5 -6z" />
    <glyph glyph-name="C" unicode="C" horiz-adv-x="1271" 
d="M768 1331q99 0 195 -17.5t190 -47.5q17 -69 32 -137.5t27 -138.5q-14 -5 -28.5 -10t-29.5 -8q-28 75 -62.5 128.5t-80.5 88t-107 51t-142 16.5q-114 0 -205.5 -47.5t-156 -126.5t-99.5 -179.5t-35 -207.5t30 -213.5t89 -191.5t148.5 -138t207.5 -53q55 0 114.5 18
t115.5 47.5t106 67t86 77.5q29 -14 49 -38q-53 -54 -115.5 -108t-132 -97t-145 -70t-155.5 -27q-135 0 -245 57t-188 151.5t-120 216t-42 250.5q0 144 56 269t151 218t222.5 146.5t269.5 53.5z" />
    <glyph glyph-name="D" unicode="D" horiz-adv-x="1374" 
d="M9 0v54q46 5 84.5 19t64.5 56q12 20 17.5 56.5t7 72t1.5 64.5q0 10 -0.5 34t-0.5 48l1 685q0 24 -2 50t-10.5 47.5t-26.5 35.5t-50 14q-19 0 -37 -1t-37 -2l-9 65q133 11 264 19t265 8q159 0 299.5 -38t246 -118t167 -205t61.5 -299q0 -164 -64.5 -289.5t-172.5 -211
t-248.5 -129.5t-291.5 -44q-112 0 -224 5t-225 5h-40q-20 0 -40 -1zM360 1054l-10 -835v-4q0 -81 37.5 -113.5t118.5 -32.5q136 0 248 37.5t192 111.5t124 183t44 253q0 147 -43 258.5t-123.5 186.5t-195 113t-258.5 38q-57 0 -85 -14.5t-38.5 -40t-10.5 -61.5v-80z" />
    <glyph glyph-name="E" unicode="E" horiz-adv-x="1072" 
d="M13 0v57q60 9 96 19t55 30t24.5 56.5t5.5 98.5l-2 681q0 54 0.5 82t0.5 32q0 47 -5 101q-2 16 -5.5 29t-14.5 26q-9 12 -27.5 18.5t-39.5 10.5t-42 6t-35 3v55q75 -2 148.5 -2.5t148.5 -0.5l612 4l21 -29q-4 -66 -12 -131t-20 -130l-55 -3q-2 18 -6.5 46.5t-12 58.5
t-18 56t-24.5 37q-11 9 -30.5 14t-43.5 8t-49 4t-48 1h-27l-179 -2q-34 -1 -50.5 -16.5t-16.5 -38.5l-1 -420h469l35 -33q-25 -34 -53 -64.5t-63 -54.5q-64 44 -131.5 55t-143.5 11h-114l-3 -441q0 -25 2 -58t13 -55q11 -20 40 -30.5t64 -15.5t69 -6t54 -1q84 0 142 6
t100 29.5t73.5 71t63.5 129.5q34 -6 61 -16q-14 -73 -30.5 -145t-39.5 -143l-637 3q-160 0 -319 -3z" />
    <glyph glyph-name="F" unicode="F" horiz-adv-x="977" 
d="M191 249v810q0 60 -3 95.5t-19 54.5t-50 27t-96 14v55q75 -2 148.5 -2.5t148.5 -0.5l611 4l22 -29q-4 -66 -12.5 -131t-19.5 -130l-56 -3q-2 18 -7 47t-12.5 59t-17.5 55.5t-24 36.5q-22 17 -57 21t-73 4h-171q-35 0 -62 -6.5t-45 -24t-27.5 -48t-9.5 -77.5v-324h469
l35 -31q-25 -35 -53 -66t-63 -55q-32 23 -64.5 36.5t-67 20.5t-70 8.5t-73.5 1.5h-114l-3 -473q0 -20 1 -39.5t7 -36t18.5 -29.5t34.5 -20q34 -11 70 -13.5t71 -4.5v-53h-383q-82 0 -164 -2v57q57 8 92.5 16.5t55 27t26.5 53t7 95.5z" />
    <glyph glyph-name="G" unicode="G" horiz-adv-x="1338" 
d="M791 1331q97 0 191 -18t185 -47q17 -69 32 -137.5t27 -138.5q-14 -5 -28.5 -10t-29.5 -8q-26 68 -58 121t-75.5 89.5t-100.5 56t-134 19.5q-130 0 -230 -51t-167.5 -136t-102 -196t-34.5 -232q0 -105 32.5 -208.5t95 -185.5t154 -133t209.5 -51q79 0 160.5 21t150.5 61
v262q0 33 -3.5 57t-14 41.5t-31 29t-55.5 18.5q-29 6 -60 7t-61 3v58q39 -1 70.5 -1.5t61.5 -1.5t61.5 -1.5t70.5 -0.5q33 0 59.5 1t51.5 2t51.5 2.5t59.5 2.5v-60q-41 -4 -64.5 -20t-35.5 -41t-15 -56t-3 -65l4 -292l-9 -15q-117 -47 -239.5 -74.5t-249.5 -27.5
q-143 0 -261 44.5t-203 126.5t-131.5 198.5t-46.5 260.5q0 158 52.5 291t147 230t226 151t290.5 54z" />
    <glyph glyph-name="H" unicode="H" horiz-adv-x="1391" 
d="M9 0v56q12 1 32.5 3t42 5t40 8.5t27.5 14.5q15 15 20.5 42t6 46t0.5 26q0 22 -1.5 48t-1.5 45l2 725q0 17 -0.5 42t-2.5 51.5t-7.5 50t-14.5 36.5q-11 15 -28 24.5t-37 15t-40.5 8.5t-37.5 6v53q120 -3 240 -3q67 0 133.5 0.5t133.5 2.5v-55q-19 -1 -39 -2.5t-39 -6.5
t-36 -14.5t-29 -26.5q-10 -15 -16 -50.5t-8.5 -76.5t-3 -79.5t-0.5 -58.5l1 -199h701v217q0 19 -0.5 55t-3 74t-7.5 71t-15 47q-12 17 -28.5 26.5t-36 14.5t-40 6.5t-39.5 2.5v55q67 -2 133.5 -2.5t133.5 -0.5q120 0 240 3v-53q-17 -3 -37 -6t-39.5 -8.5t-36.5 -15
t-29 -24.5q-10 -13 -15.5 -43.5t-8 -65t-3 -67.5t-0.5 -51l2 -765q0 -55 8 -84t27 -42.5t51.5 -17t80.5 -7.5v-56q-73 1 -145.5 2t-145.5 1q-57 0 -112.5 -1t-112.5 -3v55q16 2 38 4t44 6.5t41.5 12.5t29.5 21q12 14 17.5 40.5t7 53t1.5 47.5q0 7 -0.5 25t-0.5 36l2 348
h-702l2 -348q0 -18 -0.5 -36t-0.5 -25q0 -21 1.5 -47t7 -52.5t18.5 -41.5q11 -13 30 -21t40.5 -12.5t43 -6.5t37.5 -4v-55q-57 2 -112 3t-112 1q-73 0 -146 -1z" />
    <glyph glyph-name="I" unicode="I" horiz-adv-x="534" 
d="M10 56q45 3 77.5 6.5t52.5 16.5t29.5 41t9.5 81v777q0 18 -0.5 50.5t-3 67t-7.5 64.5t-15 43q-11 15 -28.5 24t-37 15t-40 9t-37.5 6v49q120 -3 241 -3q67 0 133.5 0.5t133.5 2.5v-51q-19 -1 -39 -2.5t-39.5 -6.5t-36.5 -14.5t-29 -26.5q-12 -16 -17.5 -54.5t-7 -77
t-1.5 -69.5q0 -11 0.5 -36.5t0.5 -46.5l-3 -652q0 -61 3.5 -100t20.5 -63t53.5 -35.5t102.5 -16.5v-55q-57 2 -112.5 3t-112.5 1q-73 0 -145.5 -1t-145.5 -2v56z" />
    <glyph glyph-name="J" unicode="J" horiz-adv-x="545" 
d="M-18 -243q47 29 90.5 64t69.5 84q18 34 28.5 78.5t16 92t6.5 94t1 84.5v754l1 120q0 40 -13.5 63t-36.5 35t-54 17t-65 10v53q120 -3 240 -3q67 0 133.5 0.5t133.5 2.5v-55q-19 -1 -39 -2.5t-39 -6.5t-36 -14.5t-29 -26.5q-20 -28 -23.5 -77.5t-3.5 -123.5v-39l3 -733
q0 -105 -21.5 -188.5t-66 -150.5t-113.5 -120.5t-163 -96.5l-27 68z" />
    <glyph glyph-name="K" unicode="K" horiz-adv-x="1260" 
d="M9 20v9l1 18v9q44 3 76 6.5t53 16.5t31 40.5t10 79.5v782q0 18 -0.5 49.5t-3 64.5t-8 62t-15.5 42q-11 15 -28.5 24t-37.5 15t-40.5 9t-37.5 6v53q120 -3 241 -3q67 0 134 0.5t134 2.5v-55q-19 -1 -39 -2.5t-39.5 -6.5t-36.5 -14.5t-29 -26.5q-10 -15 -16 -50.5t-8.5 -76
t-3 -79t-0.5 -58.5l1 -245q20 5 38 14.5t35 20.5q18 12 58 47.5t89 83.5t101.5 102.5t95.5 103.5t71 88t28 55q0 14 -14 22.5t-32.5 12.5t-37 5.5t-28.5 2.5v59q57 -2 112.5 -3.5t112.5 -1.5q63 0 125 1t125 6v-56q-28 0 -56 -4.5t-54 -15.5q-41 -17 -89.5 -52.5
t-100.5 -81.5t-105 -99t-102 -105t-92 -99t-76 -81l300 -368q27 -33 64 -80.5t80.5 -90.5t91.5 -73.5t96 -30.5q14 0 27 2t27 5q2 -15 5.5 -29.5t7.5 -29.5q-54 -18 -110.5 -31t-114.5 -13q-45 0 -75.5 14t-62.5 43q-55 51 -98 112.5t-89 121.5l-120 156q-37 48 -74 95
t-82 88q-14 13 -29.5 23.5t-35.5 10.5q-8 0 -12 -1l-1 -385q0 -58 5 -95t23 -59t54 -32.5t98 -15.5v-55q-57 2 -112.5 3t-112.5 1q-73 0 -146 -1l-146 -2v20z" />
    <glyph glyph-name="L" unicode="L" horiz-adv-x="1030" 
d="M9 0v57q61 9 97 20t54.5 32.5t24 58.5t5.5 99l-1 788q0 60 -3 96t-19 56.5t-50 29t-97 13.5l-2 58q63 -2 126 -2h378v-56q-27 0 -62.5 -3t-57.5 -20q-11 -8 -16 -19t-10 -24q-6 -17 -10 -61t-6.5 -105.5t-4 -136.5t-2.5 -153t-1.5 -135.5t-0.5 -93.5t0.5 -86t0.5 -101
v-78q0 -25 2 -58t13 -55q10 -20 36.5 -30.5t58 -15.5t62.5 -6t51 -1q84 0 142.5 5.5t101.5 29t75.5 71t65.5 130.5q34 -6 61 -16q-16 -73 -31.5 -145t-38.5 -143h-942z" />
    <glyph glyph-name="M" unicode="M" horiz-adv-x="1701" 
d="M15 0v56q32 4 57.5 9t45.5 16t35 31t24 54q14 48 18.5 98.5t8.5 100.5l58 767q1 8 1 15q0 33 -13 55t-38.5 33.5t-58.5 14.5t-68 5l-14 54l132 -6q66 -3 132 -3q52 0 103 3q107 -246 210 -489.5t208 -490.5l12 -3l390 986q75 -3 151 -3q48 0 94.5 1.5t94.5 1.5v-55
q-37 -2 -69.5 -6t-56.5 -17t-35.5 -36t-11.5 -56q0 -8 1 -17q5 -71 11 -154.5t13.5 -171t15.5 -176t16.5 -170t17 -153t16.5 -125.5q6 -37 20 -59t36 -34t50.5 -16t63.5 -6v-55q-85 3 -168.5 4t-168.5 1q-42 0 -83.5 -0.5t-83.5 -3.5v57q43 4 73.5 13.5t50 28t28.5 48.5
t9 75q0 61 -6 121.5t-11 121.5l-56 614l-11 3l-415 -1070l-58 -13l-438 1095l-50 -835q-1 -25 -1 -46q0 -28 3 -57t21.5 -51.5t54.5 -33.5t96 -17v-54q-72 2 -142 3.5t-142 1.5q-44 0 -86.5 -1t-86.5 -4z" />
    <glyph glyph-name="N" unicode="N" horiz-adv-x="1413" 
d="M91 1304q51 0 102.5 2.5t102.5 2.5l819 -1013l9 6l2 628q0 22 -0.5 61.5t-4.5 81.5t-11.5 78.5t-22.5 51.5q-13 14 -32 22.5t-40 13.5t-42.5 7t-39.5 4v59q59 -2 116.5 -2.5t116.5 -0.5q58 0 115 0.5t115 2.5v-56q-46 -2 -79 -14.5t-58 -54.5q-9 -15 -15 -49.5t-10 -79.5
t-6 -95.5t-3 -97.5t-1 -86v-61l5 -740l-76 7l-843 1052l-6 -6l-2 -729q0 -26 1 -57.5t7.5 -62t20.5 -56t40 -40.5q24 -14 59.5 -19t62.5 -10v-54q-40 1 -79 1.5t-79 0.5q-79 0 -157.5 -1t-157.5 -1v56q42 5 79.5 15t64.5 47q12 16 19.5 62.5t12.5 109t8 134.5t4.5 138.5
t1.5 120.5v298q0 66 -6 113.5t-27.5 79.5t-63 50.5t-112.5 26.5v57q23 -2 45 -3t45 -1z" />
    <glyph glyph-name="O" unicode="O" horiz-adv-x="1446" 
d="M784 1327q73 0 143.5 -19t134.5 -53q78 -42 137 -101t98.5 -130.5t59.5 -153.5t20 -169q0 -157 -52 -289.5t-145 -229t-222 -150.5t-284 -54q-145 0 -256 52t-186.5 141.5t-114.5 210t-39 256.5q0 150 55 276.5t150 218t224 143t277 51.5zM747 83q117 0 200.5 40t137 110
t78.5 165.5t25 206.5q0 112 -29.5 220t-90 193t-152.5 137t-218 52q-115 0 -198 -42.5t-136.5 -115t-78.5 -168t-25 -201.5q0 -112 29 -219.5t89 -191.5t151.5 -135t217.5 -51z" />
    <glyph glyph-name="P" unicode="P" horiz-adv-x="1068" 
d="M21 0v54q41 4 72.5 13.5t52.5 27.5t32.5 46.5t11.5 70.5l6 876q0 24 -2 50.5t-11 48t-27 35.5t-50 14q-19 0 -37 -1t-37 -2l-8 66q82 6 163 9.5t163 7.5q59 2 116.5 5t116.5 3q86 0 165 -19t139 -61.5t96 -110t36 -164.5q0 -104 -35.5 -184t-98 -134t-147.5 -82t-184 -28
q-46 0 -91 2t-91 6l-10 -316v-18q0 -49 10.5 -79.5t36 -46.5t64 -21.5t90.5 -13.5l-3 -54q-101 0 -201 1.5t-201 1.5q-68 0 -137 -3zM372 629q60 -11 116 -11q80 0 145 23.5t111.5 68.5t72 109t25.5 145q0 71 -27 125t-72 90.5t-105 55t-126 18.5q-42 0 -69 -7t-42.5 -23.5
t-22 -44t-6.5 -68.5v-481z" />
    <glyph glyph-name="Q" unicode="Q" horiz-adv-x="1453" 
d="M78 638q0 150 55 276.5t150 218t224 143t277 51.5q129 0 238 -50t187.5 -135.5t123 -199t44.5 -241.5q0 -121 -31.5 -231t-93 -200.5t-152.5 -157t-210 -102.5q45 -21 100 -47.5t113 -49.5t115 -39t107 -16q41 0 80.5 11t76.5 28l33 -44q-50 -52 -98.5 -95.5
t-114.5 -74.5q-76 9 -152.5 39.5t-150 72t-141.5 90t-127 95.5h-15q-151 0 -270 50.5t-200.5 139t-124.5 208.5t-43 260zM260 680q0 -112 29 -219.5t89 -191.5t151.5 -135t217.5 -51q118 0 201.5 42t137 113.5t78 166t24.5 200.5q0 112 -29.5 220t-90 193t-152.5 137
t-218 52q-115 0 -198 -42.5t-136.5 -115t-78.5 -168t-25 -201.5z" />
    <glyph glyph-name="R" unicode="R" horiz-adv-x="1242" 
d="M13 0v54q68 6 103.5 29.5t50.5 59.5t16.5 83.5t1.5 102.5l1 777q0 23 -3 46.5t-12 42t-26.5 30t-46.5 11.5q-19 0 -37 -1t-37 -2l-8 66q139 11 278.5 18t279.5 7q82 0 160.5 -17t139.5 -57t98.5 -104.5t37.5 -159.5q0 -143 -74 -244t-211 -142q30 -46 66.5 -101.5
t75.5 -114t79.5 -115t77.5 -104.5q38 -50 91.5 -66.5t112.5 -16.5v-50q-51 -14 -102.5 -29.5t-104.5 -15.5q-60 0 -103 28.5t-77 76.5q-13 19 -37 55.5t-52.5 82t-59 94.5t-58 92t-49.5 76t-32 45q-19 23 -50 28t-60 5h-39q-20 0 -40 -1l-11 -350v-11q0 -18 2.5 -38
t13.5 -40q12 -23 34 -38t47.5 -23.5t53 -11.5t51.5 -3l-3 -54q-101 0 -201 1.5t-201 1.5q-68 0 -137 -3zM363 1100v-368q0 -36 1 -72q61 -11 117 -11q77 0 141.5 21.5t111.5 63.5t73 103.5t26 141.5q0 71 -27.5 122.5t-73 86t-104.5 51t-123 16.5q-46 0 -74 -8t-43 -26.5
t-20 -48t-5 -72.5z" />
    <glyph glyph-name="S" unicode="S" horiz-adv-x="1072" 
d="M63 84q2 71 9.5 140.5t19.5 138.5h12q11 0 22 -2.5t22 -6.5q12 -69 38.5 -127.5t69 -102t101 -68t135.5 -24.5q54 0 111 17t104 50t77 80.5t30 107.5q0 62 -30 107.5t-79.5 82t-112 66.5t-128.5 60.5t-128.5 65t-112 79.5t-79.5 104t-30 138q0 70 32 131t84 107.5
t116.5 75.5t130.5 34q14 1 27.5 1.5t27.5 0.5q104 0 204 -25.5t193 -71.5l13 -28q-10 -57 -27.5 -110.5t-37.5 -107.5q-14 1 -27 4.5t-27 7.5q-4 57 -29 104.5t-65 82t-91 53.5t-107 19q-45 0 -89.5 -13t-79 -38.5t-56 -64.5t-21.5 -91q0 -63 31 -109.5t82 -83.5
t116.5 -67.5t133.5 -61.5t133.5 -65.5t116.5 -80t82 -105.5t31 -140q0 -100 -49 -171.5t-124 -118t-166 -68.5t-175 -22q-47 0 -99.5 3.5t-105 11.5t-103 20.5t-94.5 30.5q-10 11 -17.5 23.5t-14.5 26.5z" />
    <glyph glyph-name="T" unicode="T" horiz-adv-x="1222" 
d="M85 1311l23 21q65 -17 131.5 -20.5t133.5 -3.5h472q67 0 133.5 3.5t131.5 20.5l25 -21l43 -339l-88 6q-6 25 -11.5 53t-14 55.5t-20.5 53t-31 44.5q-20 20 -61.5 30t-89.5 14.5t-94 5t-74 0.5l-2 -963q0 -62 3 -101.5t20.5 -63.5t54 -35t102.5 -17v-55q-57 2 -113 3
t-113 1q-73 0 -146 -1l-146 -2q0 11 1 21v14q1 11 1 21q57 5 91 10.5t51.5 22t22.5 49.5t5 93q0 35 -1.5 69.5t-1.5 69.5l1 864q-30 0 -75 -0.5t-91.5 -4.5t-87.5 -14.5t-63 -30.5q-18 -17 -30 -42.5t-20.5 -54t-14.5 -57t-12 -52.5l-88 -6z" />
    <glyph glyph-name="U" unicode="U" horiz-adv-x="1377" 
d="M9 1308q60 -3 120.5 -3.5t120.5 -0.5l266 4v-57q-34 -1 -63.5 -8t-51 -22t-34 -40.5t-13.5 -64.5l-8 -510v-13q0 -89 13 -178.5t53 -162.5t112.5 -118t188.5 -45q113 0 185.5 43.5t114.5 115t57 157.5t15 169v21l-8 539q-1 39 -13.5 62t-34 35t-51 15.5t-64.5 4.5v57
q48 -2 94 -3.5t93 -1.5h21l13 1h21l215 4v-55q-31 -4 -61.5 -11.5t-54.5 -21.5t-38.5 -37.5t-14.5 -60.5l1 -524q0 -138 -29 -254t-94 -199t-169.5 -129.5t-254.5 -46.5q-110 0 -188.5 26t-132 72.5t-85 110t-47.5 138t-21 157.5t-5 168v400q0 57 -3.5 94t-19.5 60.5t-50 36
t-95 21.5v55z" />
    <glyph glyph-name="V" unicode="V" horiz-adv-x="1327" 
d="M203 1302q73 0 145.5 2t145.5 4v-63q-12 -1 -34 -3.5t-43 -8.5t-37 -16.5t-16 -27.5q0 -12 4.5 -28t9.5 -27l327 -880l19 7l309 810q10 25 17 46.5t7 37.5q0 11 -2 21q-6 25 -24.5 40.5t-42.5 24t-49.5 12t-43.5 3.5v53q132 -6 263 -6q42 0 82 0.5t82 4.5v-55
q-38 -8 -63.5 -23.5t-51.5 -44.5q-19 -21 -48 -77t-64 -134t-74 -172t-78 -192t-75.5 -193.5t-67.5 -176.5t-53.5 -141.5t-32.5 -87.5l-96 -33l-394 1023q-16 42 -32 91t-42 86q-14 20 -29 33t-32 21.5t-36.5 13.5t-42.5 9v53q96 -6 193 -6z" />
    <glyph glyph-name="W" unicode="W" horiz-adv-x="1956" 
d="M7 1255v53q90 -6 181 -6q69 0 137.5 2t137.5 4v-63q-12 -1 -34.5 -5t-43.5 -13.5t-31 -22t-10 -25.5q0 -9 4 -19l313 -906l17 7l271 751q-7 20 -16.5 50t-21.5 60t-26 55.5t-30 38.5q-21 17 -46.5 25.5t-51.5 13.5v53q89 -6 176 -6q66 0 132 2l132 4v-63q-12 -1 -32 -4
t-39.5 -9t-33.5 -16t-14 -27q0 -12 3 -23.5t7 -22.5l302 -889l15 7l180 519q12 36 32.5 90t40 111.5t34 110.5t14.5 87q0 24 -16 38.5t-39 23t-47.5 12t-42.5 3.5v53q120 -6 239 -6q37 0 74 0.5t74 4.5v-55q-34 -8 -57.5 -25.5t-45.5 -43.5q-24 -28 -46 -72.5t-41.5 -93.5
t-36.5 -98t-31 -87l-294 -822l-88 -33l-314 906l-325 -873l-90 -33l-385 1065q-12 34 -23.5 69.5t-31.5 65.5q-26 38 -56.5 53.5t-75.5 23.5z" />
    <glyph glyph-name="X" unicode="X" horiz-adv-x="1354" 
d="M185 121q25 22 57.5 61t69 88t74.5 103t73.5 106t66 97t51.5 75l-257 379q-21 32 -40 64.5t-42 62.5q-41 53 -87.5 73t-112.5 20v58q111 -6 221 -6q72 0 142.5 2t142.5 4v-58q-14 -1 -36 -4t-42.5 -9.5t-35.5 -18.5t-15 -31q0 -13 11.5 -34.5t27 -45t31 -44t22.5 -31.5
l168 -242l168 242q9 12 24 32.5t30 43t26 43.5t11 36q0 19 -15 31t-35.5 18.5t-42 9.5t-35.5 4v58q67 -2 133.5 -4t133.5 -2q105 0 208 6v-58q-43 0 -80 -9.5t-72 -35.5q-24 -18 -53.5 -54t-59.5 -78t-57.5 -82.5t-46.5 -66.5l-168 -231l233 -326q45 -63 88.5 -128.5
t102.5 -117.5q40 -35 81 -50t94 -17v-60l-362 8q-101 0 -202 -3v57q15 2 39 5.5t47.5 11.5t40.5 21t17 33q0 15 -10 34.5t-23.5 40t-27.5 39t-22 30.5l-196 283q-12 -16 -37.5 -50.5t-56.5 -77.5t-64 -90.5t-60 -90t-44.5 -75t-17.5 -46.5q0 -19 16.5 -31.5t39.5 -20t47 -11
t38 -5.5v-57q-87 3 -174 3q-81 0 -161 -2t-161 -6v60q53 2 94.5 17t81.5 50z" />
    <glyph glyph-name="Y" unicode="Y" horiz-adv-x="1249" 
d="M9 1250v55q95 -3 190 -3q147 0 294 6v-58q-15 -2 -33.5 -4.5t-35 -9.5t-28 -19t-11.5 -32q0 -18 15 -56t39 -85t52.5 -100t56.5 -101t51 -88t35 -61h12l150 243q13 21 35 54.5t43 70t36.5 71t15.5 57.5q0 21 -12.5 33t-31 18.5t-39 8.5t-35.5 3v55q101 -6 201 -6
q117 0 232 6v-58q-78 -12 -132.5 -45.5t-95.5 -80.5t-74 -105t-68 -120l-141 -251q-24 -56 -28 -109.5t-4 -112.5l-1 -238q0 -43 18 -68t46 -38.5t63.5 -18t69.5 -6.5v-58q-127 6 -255 6q-75 0 -149.5 -1t-149.5 -4v54q57 3 94 9.5t59 25.5t31 54.5t9 95.5l1 146
q0 37 -1 73.5t-8 72.5q-4 24 -24 67.5t-48.5 98t-62 114t-65.5 114t-59 99t-43 68.5q-19 29 -40.5 57t-47.5 52q-16 15 -30 23t-28.5 13t-31 7.5t-36.5 5.5z" />
    <glyph glyph-name="Z" unicode="Z" horiz-adv-x="1127" 
d="M852 1226q-42 0 -84.5 0.5t-84.5 0.5h-226q-88 0 -137 -8.5t-78 -34t-48 -73.5t-47 -126l-69 9q12 78 22 156.5t15 157.5l37 23q71 -16 142.5 -19.5t143.5 -3.5h630l22 -43l-847 -1181l248 -2h50q37 0 80 1t85 3.5t79.5 8t63.5 14.5q41 13 68 39t47 59.5t34.5 71
t29.5 73.5l68 -17l-44 -311l-43 -30l-725 11h-13q-55 0 -109 -4t-109 -7l-32 60z" />
    <glyph glyph-name="bracketleft" unicode="[" horiz-adv-x="539" 
d="M462 1519l26 -39l-42 -60q-65 -5 -128.5 -13t-126.5 -25v-1587q63 -17 126.5 -24.5t128.5 -12.5l42 -59l-26 -40l-414 16v1828z" />
    <glyph glyph-name="backslash" unicode="\" horiz-adv-x="899" 
d="M177 1432q26 -6 50 -15.5t47 -20.5l548 -1620l-26 -46q-26 6 -50.5 16.5t-47.5 22.5l-556 1621z" />
    <glyph glyph-name="bracketright" unicode="]" horiz-adv-x="598" 
d="M63 1519l414 -16v-1828l-414 -16l-25 40q11 14 20.5 29t20.5 30q65 5 128.5 12.5t126.5 24.5v1587q-63 17 -126.5 25t-128.5 13q-11 15 -20.5 30t-20.5 30z" />
    <glyph glyph-name="underscore" unicode="_" horiz-adv-x="1160" 
d="M92 -142q14 22 30 42t34 39l890 8l25 -30q-30 -44 -63 -80l-890 -9z" />
    <glyph glyph-name="grave" unicode="`" horiz-adv-x="1489" 
d="M611 976q26 0 49.5 -10t40.5 -27t27 -40.5t10 -49.5t-10 -49t-27.5 -40t-40.5 -27t-49 -10t-49 10t-40.5 27t-27.5 40t-10 49t10 49.5t27.5 40.5t40.5 27t49 10zM198 480q27 42 65 81l889 8l25 -30q-14 -21 -30.5 -41t-33.5 -39l-889 -9zM590 294q26 0 49.5 -10t40.5 -27
t27 -40.5t10 -49.5t-10 -49t-27.5 -40t-40.5 -27t-49 -10t-49 10t-40.5 27t-27.5 40t-10 49t10 49.5t27.5 40.5t40.5 27t49 10z" />
    <glyph glyph-name="a" unicode="a" horiz-adv-x="948" 
d="M587 604v69q0 32 -3.5 71t-15.5 73.5t-34 58t-60 23.5q-5 0 -9.5 -0.5t-9.5 -1.5q-80 -13 -117.5 -35.5t-51.5 -49t-14 -54t-6 -49.5t-27 -36t-76 -14q-33 0 -51 24.5t-18 55.5q0 40 19 73.5t50.5 60.5t72 48t83 34.5t83.5 20.5t74 7q84 0 137 -26.5t83 -72.5t40.5 -106
t10.5 -126v-12l-2 -237q0 -13 -1 -35.5t-1 -43.5q0 -10 0.5 -32t3.5 -56.5t10.5 -63t19.5 -47t32 -18.5q9 0 22 4t26.5 9.5t26.5 11.5t21 10q2 -3 5.5 -9t7.5 -13t7 -13t3 -8q0 -7 -6 -12q-18 -15 -46.5 -32.5t-59.5 -32.5t-62 -25t-55 -10q-29 0 -48.5 13.5t-31.5 34.5
t-18 46.5t-9 49.5q-25 -20 -61 -46.5t-75.5 -50.5t-79 -41t-72.5 -17q-57 0 -102.5 21.5t-77.5 57.5t-49 84.5t-17 102.5q0 51 29 93t75 76.5t104.5 62.5t117 51.5t112.5 42.5t91 36zM587 198v326q-27 -10 -64.5 -24t-78 -32t-80.5 -40t-71.5 -49t-51 -57.5t-19.5 -66.5
q0 -42 11 -71t30 -47t44.5 -26t53.5 -8q30 0 61 7.5t61 20.5t57 30.5t47 36.5z" />
    <glyph glyph-name="b" unicode="b" horiz-adv-x="1046" 
d="M20 1432q78 16 154.5 36.5t151.5 49.5l34 -43q-15 -58 -16 -116.5t-3 -118.5l-13 -429q31 28 71 58t84 54.5t90 40.5t89 16q82 0 146.5 -41t109 -104.5t68 -141t23.5 -149.5q0 -117 -35.5 -221t-103 -182t-165 -123.5t-220.5 -45.5q-85 0 -159 21t-152 53q0 2 -2 7.5
t-4 11.5t-3.5 11.5l-1.5 5.5l10 1193q0 22 -4 42.5t-13.5 36t-26 25t-42.5 9.5q-17 0 -34 -4t-33 -9v57zM541 80q79 0 136 35t94 90.5t55 124.5t18 138q0 53 -15 117t-46 119.5t-78 93t-112 37.5q-45 0 -85 -15.5t-74 -41.5t-61 -61t-46 -73v-469q42 -46 96.5 -70.5
t117.5 -24.5z" />
    <glyph glyph-name="c" unicode="c" horiz-adv-x="919" 
d="M577 985q63 0 125 -19t109 -64q-5 -52 -17.5 -97.5t-40.5 -90.5l-51 8q-14 31 -32.5 59t-43 49t-54.5 33t-66 12q-66 0 -116.5 -28t-85 -74t-52.5 -104.5t-18 -119.5q0 -71 17.5 -147t55 -139t97 -104t143.5 -41q75 0 142.5 35.5t118.5 87.5l38 -46q-32 -40 -73 -80.5
t-89 -72t-100.5 -51.5t-106.5 -20q-104 0 -181.5 41t-128.5 109.5t-76 158t-25 186.5q0 102 41.5 196t111.5 165.5t162.5 114.5t195.5 43z" />
    <glyph glyph-name="d" unicode="d" horiz-adv-x="1099" 
d="M584 983q46 0 90 -14t84 -37l2 343q0 21 -3.5 41.5t-13 36t-26 25.5t-41.5 10q-17 0 -34 -4t-33 -9v57q78 16 153.5 36.5t149.5 49.5l37 -43q-5 -19 -8 -44.5t-4.5 -52.5t-2 -52.5t-0.5 -45.5l-18 -1023q0 -16 1 -37t7.5 -39.5t19.5 -31.5t35 -13q20 0 40.5 8t37.5 18
q8 -12 15 -24.5t13 -25.5q-60 -52 -133.5 -80.5t-147.5 -54.5l-51 39v129q-31 -28 -70.5 -58t-83.5 -55t-90 -41t-90 -16q-81 0 -145 41.5t-109 105.5t-68.5 141t-23.5 148q0 116 33.5 220t98.5 182t160.5 124t218.5 46zM227 487q0 -53 17 -117t50 -119.5t81.5 -92.5
t112.5 -37q45 0 85 15.5t74 42t61 61.5t45 73l4 406q-42 66 -103.5 108.5t-142.5 42.5q-77 0 -131 -35.5t-88 -91t-49.5 -123.5t-15.5 -133z" />
    <glyph glyph-name="e" unicode="e" horiz-adv-x="906" 
d="M514 980q71 0 131 -28t103 -75t67 -109.5t24 -131.5q0 -15 -8 -30t-20 -27.5t-25.5 -23.5t-25.5 -19q-55 -8 -110 -9t-111 -3l-309 -14q3 -73 19.5 -141t52.5 -120.5t93 -84.5t141 -32q72 0 138.5 27.5t120.5 75.5l39 -55q-34 -35 -75.5 -72t-87 -67t-95.5 -49.5
t-102 -19.5q-95 0 -170 40t-127 106t-79.5 150.5t-27.5 173.5q0 98 29.5 194t86 172.5t139.5 124t189 47.5zM664 618q11 21 11.5 37t0.5 21q0 21 -3 39q-5 32 -27.5 61.5t-54 52.5t-67 37t-66.5 14q-60 0 -101.5 -25t-67.5 -65.5t-39.5 -91t-17.5 -101.5z" />
    <glyph glyph-name="f" unicode="f" horiz-adv-x="607" 
d="M-13 901l58 60h117q4 82 20 166t50.5 159.5t89.5 137t136 97.5q68 30 132 30q51 0 100 -18t96 -53l11 -38q-16 -35 -37 -67t-44 -62l-33 -5q-19 17 -45 37t-54 37t-57.5 28t-56.5 11q-36 0 -61.5 -27t-42 -70t-25.5 -95.5t-13.5 -103.5t-5.5 -95t-1 -69h250l39 -33
q-17 -24 -38.5 -45.5t-44.5 -40.5q-21 8 -47 12.5t-54 6.5t-55 2.5t-50 0.5v-642q0 -53 11.5 -84t36.5 -48t63 -23.5t90 -11.5v-56q-51 1 -100.5 1.5t-100.5 0.5q-75 0 -149 -1.5t-149 -3.5v54q47 8 74 17t41.5 26.5t18.5 46t4 75.5v649h-151z" />
    <glyph glyph-name="g" unicode="g" horiz-adv-x="927" 
d="M214 -1q-32 9 -62.5 22t-54.5 32.5t-39 47.5t-15 66q34 51 81 90t100 69q-90 42 -140 117t-50 175q0 80 32.5 147.5t86.5 117t125 77t148 27.5q105 0 193 -57q72 4 143 16.5t138 38.5l28 -37q-17 -32 -41 -61t-56 -49l-116 8l-4 -7q29 -45 43 -95.5t14 -103.5
q0 -77 -33.5 -141t-88 -110t-124 -71.5t-141.5 -25.5q-41 0 -82 9q-30 -18 -53.5 -47t-27.5 -65q11 -14 35 -24.5t52.5 -18t56.5 -12.5t45 -7q43 -6 96 -10.5t108.5 -14t108.5 -25.5t94.5 -43.5t66.5 -70t25 -104.5q0 -63 -27.5 -113.5t-72.5 -89.5t-103 -67t-119.5 -46.5
t-122 -27t-109.5 -8.5q-55 0 -121 10.5t-124 37t-97 72t-39 116.5q0 43 25.5 81.5t63 71t79.5 59t75 44.5zM193 670q0 -49 15.5 -100.5t44.5 -94t72.5 -69.5t98.5 -27q69 0 112.5 26.5t64.5 70t21 99.5t-18 115q-13 44 -31.5 82.5t-45.5 67.5t-64 46t-88 17q-43 0 -77 -22
t-57.5 -56t-35.5 -75.5t-12 -79.5zM445 -376q51 0 108 8.5t104.5 31.5t79 64t31.5 106q0 35 -27.5 59t-70.5 39t-96.5 23.5t-104.5 13t-95 7t-68 5.5q-29 -12 -61.5 -32t-59.5 -46t-45 -57.5t-18 -65.5q0 -48 37 -78.5t89 -48t106.5 -23.5t90.5 -6z" />
    <glyph glyph-name="h" unicode="h" horiz-adv-x="1091" 
d="M30 1375v57q78 16 154.5 36.5t150.5 49.5l35 -43q-7 -23 -12.5 -71.5t-8.5 -111t-5 -132.5t-3 -135t-1 -119v-85q36 30 75.5 57.5t82.5 48.5t89 33.5t94 12.5q71 0 117.5 -25.5t74.5 -68.5t39 -99.5t11 -117.5v-447q0 -47 4 -75.5t18.5 -45.5t42 -26.5t73.5 -17.5v-54
q-72 2 -144 3t-145 1h-72q-36 0 -72 -1v56q58 9 86.5 27t40 46t11.5 65q0 2 -0.5 22.5t-0.5 71.5l-1 361q0 39 -10 75t-31 63t-52.5 43t-74.5 16q-75 0 -140 -35.5t-117 -86.5l-1 -462q0 -47 2 -82.5t15 -61t41 -41t80 -21.5v-56q-38 1 -75.5 1.5t-75.5 0.5
q-71 0 -141.5 -1.5t-141.5 -3.5v54q47 8 74 17t41.5 26.5t18.5 46t4 75.5l1 1060q0 21 -3.5 41.5t-13 36.5t-25.5 25.5t-42 9.5q-17 0 -34 -4t-33 -9z" />
    <glyph glyph-name="i" unicode="i" horiz-adv-x="474" 
d="M100 1308q0 48 34 81.5t82 33.5t80.5 -34t32.5 -81q0 -24 -8.5 -45t-24 -36.5t-36 -25t-44.5 -9.5t-45 9t-37 25t-25 37t-9 45zM13 836v59q75 14 147.5 32.5t143.5 46.5q6 -8 13 -16l9 -11q7 -8 13 -16q-7 -23 -11 -62.5t-5.5 -87.5t-1.5 -99v-99l1 -258q0 -51 -1 -77.5
t-1 -33.5q0 -37 9 -69t38.5 -56.5t93.5 -33.5v-56q-36 1 -72 1h-73q-73 0 -145 -1t-145 -3v54q59 11 88 37.5t40 65t11 86.5q0 2 -0.5 28.5t-0.5 86.5l2 382q0 21 -3.5 41.5t-13.5 36.5t-26 25.5t-42 9.5q-17 0 -34 -4t-34 -9z" />
    <glyph glyph-name="j" unicode="j" horiz-adv-x="524" 
d="M159 1308q0 48 33.5 81.5t81.5 33.5t81.5 -33.5t33.5 -81.5t-33.5 -82t-81.5 -34t-81.5 34t-33.5 82zM-121 -507q0 14 12 40.5t29 53t36.5 46t34.5 19.5q23 0 43.5 -10.5t43.5 -10.5q35 0 59.5 19t41 49t26 68t14 76.5t5.5 74t1 59.5l-1 759q0 21 -3.5 41.5t-13.5 36.5
t-26 25.5t-42 9.5q-17 0 -34 -4t-33 -9v59q75 15 147.5 33t143.5 46l34 -43q-8 -34 -12 -87.5t-5.5 -104t-1.5 -92.5q0 -14 0.5 -48t1.5 -69l8 -392v-37q0 -37 -1.5 -84.5t-10.5 -102.5t-27.5 -107.5t-51.5 -99.5q-36 -53 -74.5 -98t-84 -78t-100 -52t-122.5 -19
q-17 0 -27 7.5t-10 25.5z" />
    <glyph glyph-name="k" unicode="k" horiz-adv-x="1072" 
d="M12 1432q78 16 154.5 36.5t150.5 49.5q6 -8 13 -16l8 -11q7 -8 13 -16q-11 -44 -12 -88t-2 -89l-15 -733q69 23 119 61.5t100 89.5q11 11 33 32.5t44.5 46.5t39 48.5t16.5 37.5q0 16 -21 20t-41 4q-8 0 -15 -0.5t-12 -0.5v44q80 -3 158 -3q59 0 117 1t117 2v-44
q-29 -1 -57 -6.5t-55 -18.5q-34 -16 -79.5 -55.5t-92 -86t-90 -92.5t-73.5 -76q21 -31 49 -72.5t60.5 -87.5t67.5 -94t70.5 -90.5t68.5 -76.5t62 -54q65 -44 147 -44v-54q-53 2 -105.5 3t-105.5 1q-60 0 -120.5 -1t-120.5 -3q-1 5 -1 11v30q9 0 23 0.5t26.5 4t22 11
t9.5 20.5q0 9 -3 17.5t-7 16.5q-3 8 -22.5 34.5t-46.5 63t-58.5 77t-60 76t-49.5 61t-28 31.5q-11 9 -23 16.5t-26 7.5q-9 0 -18.5 -2.5t-18.5 -4.5l-1 -173v-91q0 -41 11 -71t39.5 -49.5t86.5 -27.5v-56q-38 1 -75.5 1.5t-75.5 0.5q-71 0 -141.5 -1.5t-141.5 -3.5v54
q46 9 73.5 18.5t42 26t19 44.5t4.5 76l1 1060q0 21 -3.5 41.5t-13 36.5t-26 25.5t-41.5 9.5q-17 0 -34 -4t-34 -9v57z" />
    <glyph glyph-name="l" unicode="l" horiz-adv-x="503" 
d="M23 1432q78 16 154.5 36.5t150.5 49.5l35 -43q-12 -19 -14.5 -41t-2.5 -51l-13 -1161q0 -43 4.5 -72t18.5 -48t41 -30t72 -17v-56q-38 1 -75.5 1.5t-75.5 0.5q-71 0 -141.5 -1.5t-141.5 -3.5v54q50 9 77.5 21.5t41.5 31.5t17 46t3 66l2 1060q0 21 -4 41.5t-13.5 36.5
t-26 25.5t-41.5 9.5q-17 0 -34 -4t-34 -9v57z" />
    <glyph glyph-name="m" unicode="m" horiz-adv-x="1648" 
d="M307 974l35 -43q-7 -27 -8 -55l-2 -56q36 30 75 57.5t82 48.5t88.5 34t93.5 13q85 0 142.5 -40.5t81.5 -122.5q37 32 78 61t85.5 52t92.5 36.5t98 13.5q71 0 117.5 -25.5t74 -68.5t38.5 -99t11 -118v-447q0 -48 4.5 -76.5t19 -45t42 -25.5t73.5 -18v-54q-72 2 -144 3
t-145 1h-72q-36 0 -72 -1v56q42 6 69 17.5t42 30.5t20.5 47.5t5.5 68.5l-1 429q0 41 -10.5 77t-31.5 62.5t-53.5 42t-77.5 15.5q-71 0 -134.5 -34.5t-113.5 -82.5l3 -513q0 -48 4.5 -76.5t19 -45t42 -25.5t73.5 -18v-54q-72 2 -144 3t-145 1h-72q-36 0 -72 -1v56
q44 6 70.5 17t41.5 29.5t20 47t5 70.5l-1 429q0 39 -10 75t-31 63t-52.5 43t-74.5 16q-76 0 -141.5 -36.5t-118.5 -87.5l-3 -489q0 -44 4 -74.5t18 -51t42 -32.5t74 -19v-56q-38 1 -75.5 1.5t-75.5 0.5q-71 0 -141 -1.5t-141 -3.5v54q46 9 73.5 18t42 26t19 45.5t4.5 75.5
l1 521q0 21 -3.5 41.5t-13.5 36.5t-26 25.5t-42 9.5q-17 0 -34 -4t-33 -9v59q74 15 146.5 33t142.5 46z" />
    <glyph glyph-name="n" unicode="n" horiz-adv-x="1091" 
d="M18 895q74 15 146.5 33t142.5 46q8 -11 17.5 -21t17.5 -22q-7 -27 -8 -55l-2 -56q36 30 75 57.5t82 48.5t88.5 34t93.5 13q70 0 118.5 -25t78.5 -68t43 -99.5t13 -118.5v-447q0 -48 4.5 -76.5t18.5 -45t42 -25.5t74 -18v-54q-72 2 -144 3t-145 1h-72q-36 0 -72 -1v56
q42 6 68.5 16t41.5 28t21 45.5t6 67.5l-1 436q0 40 -12 76t-34.5 63t-56 42.5t-75.5 15.5q-76 0 -141.5 -36.5t-118.5 -87.5v-499q0 -43 4 -72.5t17.5 -48t40.5 -29.5t73 -17v-56q-38 1 -75.5 1.5t-75.5 0.5q-71 0 -141 -1.5t-141 -3.5v54q47 9 75 19.5t42.5 28.5t18.5 47.5
t4 77.5v514q0 21 -4 41.5t-13.5 36t-26 25t-41.5 9.5q-17 0 -34 -4t-33 -9v59z" />
    <glyph glyph-name="o" unicode="o" horiz-adv-x="1022" 
d="M51 455q0 108 38.5 203.5t106.5 166.5t161.5 112t203.5 41q92 0 167 -37.5t128.5 -100.5t82.5 -144.5t29 -170.5q0 -113 -36.5 -212.5t-103 -174t-160.5 -118t-209 -43.5q-103 0 -180 39.5t-127.5 105.5t-75.5 152.5t-25 180.5zM528 75q76 0 127.5 30t82.5 79.5t44 114
t13 132.5q0 109 -29 193t-75.5 141.5t-104.5 87t-117 29.5q-49 0 -94.5 -21.5t-80.5 -66t-56 -112t-21 -159.5q0 -72 15.5 -151t52 -145t96 -109t147.5 -43z" />
    <glyph glyph-name="p" unicode="p" horiz-adv-x="1083" 
d="M-2 858q29 26 63 45t70.5 35t74 29t73.5 25l52 -39v-126q30 28 68 57t79.5 53t85 39t86.5 15q82 0 148.5 -39.5t113.5 -102t72.5 -139.5t25.5 -152q0 -115 -33.5 -218.5t-98.5 -181.5t-160 -124t-218 -46q-46 0 -89.5 13.5t-83.5 36.5l1 -316q0 -42 4 -72t17.5 -49.5
t40.5 -30.5t73 -16v-56l-84 2q-42 1 -84 1q-67 0 -133 -2t-133 -4v53q46 8 73.5 17.5t42.5 26.5t19.5 45.5t4.5 75.5l-2 999q0 56 -12.5 89.5t-49.5 33.5q-20 0 -41 -9t-38 -19q-15 22 -28 51zM328 229q45 -61 107.5 -90t137.5 -29q79 0 133 29.5t87.5 80t48 116.5t14.5 138
q0 50 -10.5 102t-32.5 99t-56 86t-81 63q-48 26 -97 26q-40 0 -77 -16t-69 -42t-58.5 -60.5t-44.5 -72.5z" />
    <glyph glyph-name="q" unicode="q" horiz-adv-x="1021" 
d="M613 985q52 0 101.5 -13.5t94.5 -38.5q20 14 39.5 27t40.5 25l32 -32q-10 -59 -14 -118t-4 -119l-4 -994q0 -42 4.5 -72t18.5 -49.5t41 -30.5t72 -16v-56l-84 2q-42 1 -84 1q-67 0 -133 -2t-133 -4v53q46 8 73.5 17.5t42 26.5t19 45.5t4.5 75.5v425q-29 -26 -67.5 -54.5
t-81 -52t-86.5 -39t-85 -15.5q-83 0 -148.5 40t-110.5 103t-68.5 140.5t-23.5 152.5q0 124 37 229t107 181t171 119t229 43zM234 498q0 -54 14.5 -119.5t45 -122.5t77.5 -95.5t112 -38.5q42 0 79.5 13.5t70.5 36.5t60 54t47 66l-1 456q-39 56 -96.5 85.5t-125.5 29.5
q-76 0 -130 -32.5t-88 -84t-49.5 -117t-15.5 -131.5z" />
    <glyph glyph-name="r" unicode="r" horiz-adv-x="729" 
d="M305 974q6 -8 13 -16l8 -11q7 -8 13 -16q-11 -39 -11 -79t-1 -80l4 -2q20 29 48 66t61.5 69.5t71 55t76.5 22.5q25 0 48.5 -8t41.5 -23t29 -36t11 -48q0 -22 -7 -43t-19.5 -38t-31.5 -27.5t-43 -10.5q-21 0 -34 9.5t-25 21.5t-26 21.5t-36 9.5q-35 0 -66.5 -26
t-55.5 -63.5t-38 -79t-14 -71.5l1 -286q0 -59 4.5 -99t22.5 -66.5t53.5 -41t98.5 -23.5v-56q-45 1 -88 1.5t-88 0.5q-75 0 -149.5 -1.5t-149.5 -3.5v54q46 9 73.5 18t42 26t19 45t4.5 76l1 521q0 21 -3.5 41.5t-13 36.5t-25.5 25.5t-42 9.5q-17 0 -33.5 -4t-33.5 -9v59
q74 15 146.5 33t142.5 46z" />
    <glyph glyph-name="s" unicode="s" horiz-adv-x="772" 
d="M79 297q24 0 46 -9q5 -42 29.5 -84.5t60.5 -76t79.5 -55t86.5 -21.5q27 0 56 10.5t53.5 28.5t40 43t15.5 55q0 58 -34 98t-85.5 73t-111 64.5t-111 71.5t-85.5 94t-34 133q0 61 26.5 109t69.5 81t97 50.5t109 17.5q68 0 133 -20t125 -51l8 -21q-10 -45 -22 -88t-28 -85
l-41 4q-2 40 -18 75t-42.5 60.5t-61.5 40.5t-76 15q-30 0 -56.5 -8t-47 -24.5t-32.5 -40.5t-12 -56q0 -61 36 -100t90 -70t116.5 -59.5t116.5 -67t90 -94.5t36 -141q0 -66 -32 -117t-82 -85.5t-111 -52t-119 -17.5q-68 0 -140.5 11.5t-135.5 37.5q-13 17 -21 36
q2 60 6.5 118t12.5 117z" />
    <glyph glyph-name="t" unicode="t" horiz-adv-x="659" 
d="M75 961h124v165l110 127l42 -22l-1 -270h252l38 -33q-19 -26 -42 -48.5t-46 -44.5q-50 13 -100.5 17t-101.5 5v-555q0 -32 4 -68t16.5 -66t37 -50t66.5 -20q36 0 79 16.5t76 30.5q7 -14 13 -28l12 -28q-27 -22 -61 -43.5t-71 -38t-75 -26.5t-74 -10q-61 0 -97 27
t-55 68.5t-24.5 92t-5.5 98.5l7 600h-163l-23 37z" />
    <glyph glyph-name="u" unicode="u" horiz-adv-x="1055" 
d="M258 974l40 -42q-3 -42 -3 -84v-527q0 -40 10 -76t31 -63t53 -42.5t76 -15.5q72 0 134.5 36t111.5 85l3 469q0 36 -3.5 63.5t-16.5 46.5t-37 30t-65 14v44q62 12 123.5 25.5t121.5 31.5l22 -20q11 -10 19 -23q-4 -43 -5.5 -73t-1.5 -58t0.5 -58t0.5 -74l-2 -431
q0 -21 3.5 -41t13 -36t25.5 -25.5t41 -9.5q17 0 34.5 4t34.5 9v-59q-74 -15 -146.5 -32t-142.5 -46q-9 11 -18 21t-17 21q7 27 8 54.5t2 54.5q-34 -30 -72.5 -57.5t-79.5 -48.5t-85.5 -33.5t-91.5 -12.5q-70 0 -116.5 26t-73.5 69t-38 99t-11 116v451q0 34 -5 56t-17.5 34.5
t-34.5 17.5t-56 5v45q58 16 116 28.5t115 31.5z" />
    <glyph glyph-name="v" unicode="v" horiz-adv-x="1019" 
d="M15 909v50q44 -2 86.5 -3.5t86.5 -1.5l257 5v-60q-13 -1 -33.5 -3.5t-40.5 -8.5t-34.5 -17t-14.5 -29q0 -10 14 -53t36 -103.5t49 -129.5t51.5 -132.5t44 -113.5t27.5 -70l13 -4l211 600q4 12 4 22t-7.5 20.5t-25.5 17.5t-39.5 8t-35.5 1h-3v50q22 -1 43.5 -1.5
t43.5 -0.5l258 7v-53q-34 -8 -57 -23.5t-46 -41.5q-17 -20 -36 -54.5t-38.5 -77t-38.5 -90t-36.5 -93t-32 -85t-25.5 -67.5l-156 -400h-75l-334 861q-16 41 -45 53.5t-71 20.5z" />
    <glyph glyph-name="w" unicode="w" horiz-adv-x="1490" 
d="M16 959q37 -3 73 -4t73 -1q66 0 132 1.5t132 3.5v-60q-13 -1 -31.5 -4t-36 -9t-30 -17t-12.5 -29q0 -14 12 -56t30 -99t40 -122t43 -125.5t38 -108.5t24 -71l18 -4q36 109 91 258.5t114 318.5q5 15 5 25q0 9 -5 18.5t-24.5 16.5t-50.5 10.5t-70 7.5v50q36 -3 72.5 -4
t72.5 -1q66 0 131.5 1.5t131.5 3.5v-60q-13 -1 -33 -5t-38 -12.5t-27.5 -19t-9.5 -22.5q0 -4 1 -9l184 -573l10 -4q12 32 30 82t39 108.5t42.5 120.5t38.5 118t28 100.5t11 67.5q0 19 -9 29.5t-23 16t-30.5 6.5t-31.5 1h-8v50q20 -1 39.5 -1.5t39.5 -0.5q59 0 116.5 1
t116.5 6v-53q-31 -8 -52 -24t-41 -41t-48 -87.5t-59.5 -144.5t-64.5 -176t-63 -181.5t-54.5 -161.5t-38.5 -116h-68l-217 619q-73 -154 -141.5 -308.5t-136.5 -310.5h-69l-259 743q-11 29 -19.5 59.5t-22.5 58.5q-17 37 -42 51.5t-63 22.5v50z" />
    <glyph glyph-name="x" unicode="x" horiz-adv-x="1030" 
d="M19 50q63 14 124 61.5t116.5 108.5t103.5 126t85 114q-14 21 -35 56t-46.5 76t-53 84.5t-54 81t-50.5 66t-41 39.5q-30 20 -58.5 28t-64.5 11v51q55 -2 109.5 -3t109.5 -1q52 0 104 1t104 3v-51q-12 0 -28.5 -1.5t-30.5 -7t-24 -15t-10 -26.5q0 -23 19.5 -61.5t46.5 -79
t54 -77.5t42 -58q17 21 45.5 57.5t56 77t48 78.5t20.5 63q0 17 -9 27t-22 15.5t-28.5 7.5t-27.5 2v54q49 -2 98 -3t98 -1q48 0 94 1t94 3v-56q-40 -5 -80.5 -27t-80.5 -54.5t-78 -72.5t-72 -81t-63.5 -80t-51.5 -70q27 -41 66.5 -102t83 -123t87.5 -116t81 -81
q29 -21 55 -32t61 -17v-50q-59 2 -117.5 3t-117.5 1q-51 0 -102 -1t-102 -3v55q11 0 28 0.5t33.5 4.5t28.5 12.5t12 24.5q0 14 -11 38t-28.5 53t-39 60.5t-42.5 60.5t-38.5 53t-27.5 38q-15 -21 -46.5 -63t-63.5 -88t-56 -88.5t-24 -63.5q0 -16 11 -25.5t26.5 -14.5t32 -6.5
t28.5 -1.5v-44q-39 3 -77.5 4t-77.5 1q-57 0 -113 -1.5t-113 -5.5v51z" />
    <glyph glyph-name="y" unicode="y" horiz-adv-x="1017" 
d="M-31 -463q0 14 13.5 40.5t32.5 52.5t40 45.5t36 19.5q21 0 41.5 -5.5t41.5 -5.5q54 0 97 35t76 85t57.5 106t43.5 98l-277 719q-15 38 -25 67.5t-25.5 51t-40.5 37t-70 25.5v50q83 -6 164 -6q67 0 133.5 2t133.5 4v-60q-13 -1 -33.5 -4t-40.5 -9.5t-34.5 -17t-14.5 -28.5
q0 -10 14.5 -53t36.5 -102.5t49 -129t51.5 -132.5t44 -113t27.5 -71l11 -5q11 26 31 75.5t44 110t49 126.5t45.5 124.5t33.5 104.5t13 66q0 21 -11.5 33t-28 19t-36 9t-34.5 2v50q32 -1 64.5 -1.5t64.5 -0.5q54 0 108.5 1.5t108.5 5.5v-54q-50 -11 -85.5 -46.5t-61.5 -81.5
t-45 -96.5t-36 -92.5l-228 -563q-23 -58 -46.5 -120.5t-51.5 -122t-62.5 -113.5t-80.5 -94.5t-105.5 -64t-136.5 -23.5q-13 0 -29.5 1t-31.5 6t-25 15.5t-10 28.5z" />
    <glyph glyph-name="z" unicode="z" horiz-adv-x="864" 
d="M36 38l540 849l-177 3q-68 0 -117.5 -9t-85 -33t-61 -66.5t-45.5 -109.5l-48 12l43 264l19 17q50 -5 99.5 -6t100.5 -1h473l24 -56l-558 -814l225 -6h9l17 -1h9q60 0 105.5 8.5t80 32.5t59 66t42.5 109l44 -15l-48 -264q-5 -6 -10.5 -11.5t-12.5 -10.5q-93 2 -185 3
t-185 1h-136q-51 0 -102 -0.5t-102 -3.5z" />
    <glyph glyph-name="braceleft" unicode="{" horiz-adv-x="1061" 
d="M471 819q0 36 -5.5 71t-12.5 69.5t-12.5 69.5t-5.5 71q0 77 23 139t64.5 110t100 81.5t129.5 53.5l15 -36q-91 -40 -141.5 -104.5t-50.5 -167.5q0 -46 7 -91.5t15 -91t15 -91t7 -91.5q0 -97 -41 -162.5t-136 -96.5v-6q96 -29 136.5 -95t40.5 -163q0 -46 -7 -91.5t-15 -91
t-15 -91t-7 -91.5q0 -103 50.5 -167t141.5 -104q-2 -10 -6 -18.5t-9 -17.5q-72 19 -130.5 52.5t-100 81.5t-64 110.5t-22.5 139.5q0 38 6.5 75.5t14 75t13.5 75t6 75.5q0 91 -42 144t-120 53q-26 0 -61 -8l-19 54q57 21 101 41.5t74.5 50t46.5 73t16 110.5z" />
    <glyph glyph-name="bar" unicode="|" horiz-adv-x="473" 
d="M156 -622l2 2157q25 19 51 35.5t54 30.5l47 -31l-2 -2156q-24 -19 -49.5 -36t-53.5 -30z" />
    <glyph glyph-name="braceright" unicode="}" horiz-adv-x="1082" 
d="M479 -73q0 46 -6.5 91.5t-15 90.5t-15 90t-6.5 91q0 97 41 162t136 94v6q-94 30 -135.5 95t-41.5 162q0 46 6.5 91.5t15 90.5t15 90t6.5 91q0 105 -49 169.5t-143 106.5q6 18 17 36q71 -20 129 -54t99.5 -82t64.5 -110t23 -139q0 -38 -6 -75.5t-13.5 -75t-14 -75
t-6.5 -75.5q0 -43 11 -79t32 -62.5t51 -41.5t68 -15q29 0 62 9l17 -54q-55 -21 -99 -40.5t-74.5 -49t-47 -73.5t-16.5 -113q0 -35 5.5 -69.5t12.5 -69t12.5 -69.5t5.5 -70q0 -76 -22.5 -138.5t-64 -111t-100 -82.5t-129.5 -53q-13 18 -17 36q94 40 143 105.5t49 169.5z" />
    <glyph glyph-name="asciitilde" unicode="~" horiz-adv-x="940" 
d="M319 664q50 0 94 -16.5t85.5 -37t82.5 -37t85 -16.5q26 0 51 10.5t48 26.5t43 35.5t35 37.5l58 -52q-27 -32 -57 -66.5t-63.5 -63.5t-72.5 -48t-86 -19q-45 0 -90.5 17t-90 37t-87 37t-80.5 17q-31 0 -55.5 -9.5t-45 -24.5t-39 -35t-37.5 -41l-61 51q27 35 56.5 70t64 63
t74.5 46t88 18z" />
    <glyph glyph-name="tilde" unicode="&#x2dc;" horiz-adv-x="991" 
d="M319 664q50 0 94 -16.5t85.5 -37t82.5 -37t85 -16.5q26 0 51 10.5t48 26.5t43 35.5t35 37.5l58 -52q-27 -32 -57 -66.5t-63.5 -63.5t-72.5 -48t-86 -19q-45 0 -90.5 17t-90 37t-87 37t-80.5 17q-31 0 -55.5 -9.5t-45 -24.5t-39 -35t-37.5 -41l-61 51q27 35 56.5 70t64 63
t74.5 46t88 18z" />
    <glyph glyph-name="uni0964" unicode="&#x964;" horiz-adv-x="842" 
d="M456 43v1155q7 8 14 14.5t16 11.5l81 -81v-1159l-36 -26q-21 20 -39.5 41t-35.5 44z" />
    <glyph glyph-name="uni0965" unicode="&#x965;" horiz-adv-x="1057" 
d="M456 43v1155q7 8 14 14.5t16 11.5l81 -81v-1159l-36 -26q-21 20 -39.5 41t-35.5 44zM776 43v1155q7 8 14 14.5t16 11.5l81 -81v-1159l-36 -26q-21 20 -39.5 41t-35.5 44z" />
    <glyph glyph-name="uni0981" unicode="&#x981;" 
d="M-410 1662q0 38 26.5 65t64.5 27t65 -27t27 -65t-27 -64.5t-65 -26.5t-64.5 26.5t-26.5 64.5zM-602 1712q15 -47 43.5 -90t67.5 -76t86 -52.5t98 -19.5q46 0 82 20.5t61.5 53t41 73t21.5 81.5l37 -27q0 -57 -10.5 -115.5t-37 -106t-72 -77.5t-116.5 -30q-74 0 -135.5 36
t-108.5 92t-78 124t-45 133z" />
    <glyph glyph-name="uni0982" unicode="&#x982;" horiz-adv-x="810" 
d="M337 1218q59 0 110.5 -21.5t89 -59t59 -88.5t21.5 -110q0 -52 -19.5 -94.5t-52.5 -73t-77.5 -47t-95.5 -16.5q-55 0 -107 23.5t-92.5 62.5t-64.5 90.5t-24 107.5q0 51 21.5 92.5t57 71.5t81 46t93.5 16zM191 917q0 -56 30.5 -82t84.5 -26q39 0 77 18t68 47t48.5 66.5
t18.5 77.5q0 38 -22 71q-44 25 -94 25q-39 0 -77 -15.5t-68 -42t-48 -62.5t-18 -77zM130 605q84 -57 172.5 -137t171 -170.5t155.5 -185.5t126 -182l-40 -25q-117 148 -250 256.5t-304 188.5l-61 227z" />
    <glyph glyph-name="uni0983" unicode="&#x983;" horiz-adv-x="810" 
d="M82 1004q0 49 19.5 88.5t52.5 68t76 44t89 15.5q55 0 103 -20t83 -55t55.5 -82.5t20.5 -102.5q0 -48 -17.5 -88t-48 -69t-71.5 -45.5t-88 -16.5q-51 0 -100 21.5t-88 58t-62.5 84t-23.5 99.5zM187 940q0 -50 26 -74.5t75 -24.5q36 0 71 15.5t63 41t45.5 59t17.5 70.5
q0 18 -5.5 35.5t-14.5 32.5q-19 12 -40.5 17.5t-43.5 5.5q-36 0 -71 -13.5t-62.5 -37.5t-44 -56.5t-16.5 -70.5zM319 570q55 0 103 -20t83 -55t55.5 -82.5t20.5 -102.5q0 -48 -17.5 -88t-48 -69t-71.5 -45.5t-88 -16.5q-51 0 -100 21.5t-88 58t-62.5 84t-23.5 99.5
q0 49 19.5 88.5t52.5 68t76 44t89 15.5zM187 290q0 -50 26 -74.5t75 -24.5q36 0 71 15.5t63 41t45.5 59t17.5 70.5q0 18 -5.5 35.5t-14.5 32.5q-19 12 -40.5 17.5t-43.5 5.5q-36 0 -71 -13.5t-62.5 -37.5t-44 -56.5t-16.5 -70.5z" />
    <glyph glyph-name="uni0985" unicode="&#x985;" horiz-adv-x="1556" 
d="M-93 1214h1557l67 -65l-21 -33h-170q0 -239 0.5 -475t6.5 -475q2 -49 2.5 -98t8.5 -97l-37 -26q-15 17 -28.5 34.5t-28.5 34.5q-34 97 -92.5 188t-138.5 157q-21 -43 -58 -76.5t-82.5 -57t-95 -36t-95.5 -12.5q-100 0 -182 39.5t-147.5 105t-116.5 150.5t-91 176
t-70.5 182.5t-53.5 168.5q17 11 41 11l32 -60q16 -30 33 -59q20 -59 42.5 -123t52 -124.5t68 -115t90.5 -96t120 -65.5t156 -24q89 0 157 44t104.5 111t36.5 147.5t-45 152.5q-20 31 -57 49t-76 18q-29 0 -54 -11q2 -14 2 -27q0 -25 -8 -52.5t-29 -52.5t-52 -39t-69 -14
q-36 0 -65 13.5t-50 36.5t-32.5 53t-11.5 63q0 43 18.5 77t48 57.5t66.5 36t75 12.5q102 0 187.5 -49.5t145 -128.5t82.5 -159.5t23 -144.5q0 -32 -5 -64q55 -72 99.5 -149.5t79.5 -160.5l7 2q-9 111 -11.5 231t-2.5 242t1.5 243.5t1.5 235.5h-1287l-66 71z" />
    <glyph glyph-name="uni0986" unicode="&#x986;" horiz-adv-x="1985" 
d="M-110 1187l17 27h1486v-1q57 -3 104 -35.5t83.5 -80.5t62 -103.5t38.5 -103.5l12 2q0 47 -2 103.5t-7.5 114t-16 112.5t-28.5 98l54 24q21 -33 40.5 -67t45.5 -63h131l68 -70l-19 -28h-21q-36 0 -81.5 4t-81.5 7q0 -65 2 -128.5t3 -128.5q3 -150 3 -299q0 -25 -0.5 -54.5
t-0.5 -64.5q0 -139 2 -279q1 -51 2.5 -102t1.5 -102q-14 -17 -35 -30q-23 20 -44.5 41.5t-40.5 45.5q6 360 6 719q0 33 -18 87t-46 109t-61.5 100.5t-64.5 60.5q-19 10 -37.5 13t-39.5 3q-13 0 -25 -1h-17q-12 -1 -25 -1v-97q0 -214 1 -426.5t6 -426.5q2 -49 2.5 -98
t8.5 -97l-37 -26q-15 17 -28.5 34.5t-28.5 34.5q-34 97 -92.5 188t-138.5 157q-21 -43 -58 -76.5t-82.5 -57t-95 -36t-95.5 -12.5q-94 0 -178.5 42t-150.5 108q-70 70 -119.5 149.5t-86.5 165.5t-66.5 176t-59.5 181q17 11 41 11l32 -60q16 -30 33 -59q14 -25 23.5 -48.5
t17.5 -51.5q24 -79 69 -159t108 -144.5t141.5 -104.5t169.5 -40q65 0 117.5 22t90 61t58 92.5t20.5 117.5q0 15 -2 37.5t-6.5 46t-10.5 45t-14 33.5q-20 32 -59 49.5t-76 17.5q-27 0 -52 -11q7 -22 7 -42q0 -15 -6.5 -39.5t-29 -49.5t-56 -39.5t-71.5 -14.5q-47 0 -82.5 26
t-55 64.5t-20 62.5t-0.5 26q0 43 20.5 80.5t66.5 63.5t120 26q94 0 174 -42.5t138.5 -111t91.5 -155.5t33 -176q0 -15 -1 -30.5t-3 -30.5q55 -72 99.5 -149.5t79.5 -160.5l7 2q-10 70 -10 139q0 7 0.5 48t0.5 118q0 163 -1 323.5t-1 323.5h-1287z" />
    <glyph glyph-name="uni0987" unicode="&#x987;" horiz-adv-x="1040" 
d="M-110 1187l17 27h781q26 12 49.5 29.5t39 39.5t18.5 39t3 25q0 20 -8 41q-24 24 -58 28t-66 4q-100 0 -197.5 -11.5t-197.5 -11.5q-67 0 -126.5 17t-104.5 49.5t-71.5 80.5t-26.5 110q0 45 16 89t47 77q14 -11 28 -23t26 -26q-21 -16 -41.5 -43t-20.5 -54
q9 -40 37.5 -65.5t66 -40t79 -19.5t75.5 -5q84 0 166.5 5.5t166.5 5.5q61 0 120 -29t100 -77t52.5 -90.5t11.5 -67.5q0 -38 -15 -77h92l67 -65l-21 -33h-536q12 -25 21 -53.5t14 -55.5q73 0 144.5 -23.5t128.5 -67.5t92 -106.5t35 -140.5q0 -89 -34.5 -155t-91 -113
t-129 -77.5t-149.5 -48.5v-7q98 -35 186.5 -85.5t171 -111t159.5 -128.5t152 -137l-35 -42q-109 97 -208.5 167.5t-203 121.5t-219 88t-258.5 68q-30 57 -64.5 110t-69.5 107q6 14 15.5 24.5t20.5 19.5q48 -25 103.5 -37t115.5 -12q80 0 159 21.5t142 63t102 103t39 140.5
q0 26 -7 51.5t-22 48.5q-70 48 -143 48q-60 0 -112 -29q2 -13 2 -25q0 -29 -13.5 -59t-43 -54.5t-68.5 -38t-77 -13.5q-30 0 -56.5 5t-46.5 17.5t-31.5 35t-11.5 56.5q0 45 27 81.5t66.5 63.5t86 43.5t85.5 22.5q-16 38 -44.5 67t-64.5 46h-368z" />
    <glyph glyph-name="uni0988" unicode="&#x988;" horiz-adv-x="1251" 
d="M-93 1214h1025q20 9 41 22t37.5 29.5t27 37t10.5 45.5q0 20 -8 41q-30 24 -73 29t-80 5q-136 0 -269.5 -12.5t-269.5 -12.5q-46 0 -89.5 5t-82.5 19.5t-73.5 39.5t-61.5 65q-39 57 -39 127q0 46 17 89t48 77l28 -24q14 -12 28 -25q-24 -17 -42 -42t-22 -55
q11 -43 43.5 -69t74.5 -39.5t87 -17.5t82 -4q120 0 238 7.5t238 7.5q55 0 109.5 -21t97.5 -58t69.5 -87.5t26.5 -108.5q0 -18 -3.5 -35.5t-12.5 -34.5h51l67 -65l-21 -33h-819q23 -26 38.5 -57.5t21.5 -65.5q58 0 110 -24.5t91.5 -65.5t61 -92t21.5 -104v-9q64 90 146 162
t182 120q38 -35 74.5 -70.5t68.5 -74.5q-66 -37 -109.5 -95.5t-69 -127.5t-35.5 -143.5t-10 -145.5q0 -114 22.5 -227.5t86.5 -210.5l-58 -39q-40 64 -68 148.5t-45.5 174.5t-25.5 179.5t-8 164.5q0 53 3 105l-8 2q-26 -30 -61.5 -75.5t-76.5 -96t-87 -101t-92.5 -90.5
t-92.5 -65t-88 -25q-50 0 -90.5 26.5t-73.5 66t-58 85t-45 83.5l60 38q23 -41 49.5 -74t70.5 -54h4q36 0 80 22t87 54t78.5 68.5t53.5 66.5q10 17 19.5 41t16.5 50.5t11 52.5t4 45q0 47 -17 93q-23 19 -51 28.5t-57 9.5q-15 0 -29.5 -3.5t-27.5 -11.5q4 -12 4 -28
q0 -40 -17 -75.5t-45 -61.5t-64.5 -41.5t-75.5 -15.5q-27 0 -53 10t-46 27.5t-32 42t-12 52.5q0 53 22.5 92t58.5 66.5t81 44t91 23.5q0 18 -16 37.5t-38 36.5t-45 31t-38 21h-283l-66 71z" />
    <glyph glyph-name="uni0989" unicode="&#x989;" horiz-adv-x="1267" 
d="M-93 1214h973q27 12 51.5 29t41 39t20 39.5t3.5 26.5q0 20 -8 41q-30 24 -73 29t-80 5q-136 0 -269.5 -12.5t-269.5 -12.5q-61 0 -123 13.5t-111.5 43.5t-80.5 79t-31 120q0 46 17 89t48 77l28 -24q14 -12 28 -25q-24 -17 -42 -42t-22 -55q11 -43 43.5 -69t74.5 -39.5
t87 -17.5t82 -4q120 0 238 7.5t238 7.5q39 0 81.5 -14t82 -38.5t72 -57.5t51.5 -71.5t20 -61t1 -24.5q0 -40 -21 -78h120l67 -65l-21 -33h-628v-405q0 -22 2 -43.5t10 -41.5q15 -3 30 -3q38 0 80.5 30.5t81.5 73t71 88t50 75.5l41 10q41 -37 78.5 -83t66.5 -98.5t46.5 -109
t17.5 -113.5t-16 -112t-43 -104q-62 -111 -164.5 -168.5t-228.5 -57.5q-113 0 -200.5 42t-154 112t-114.5 161.5t-82.5 191t-57 200.5t-37.5 189q11 5 22 6t22 1q8 -24 16.5 -49t18.5 -48t21.5 -44.5t19.5 -45.5q5 -14 7.5 -28.5t6.5 -28.5q23 -90 63 -179.5t100.5 -160
t142 -114.5t186.5 -44q75 0 145 28.5t124.5 78t87 117t32.5 144.5q0 48 -14.5 86t-60.5 57q-28 -34 -66.5 -71.5t-83 -68t-92.5 -50.5t-95 -20q-31 0 -56.5 20.5t-45.5 41.5q-37 40 -56.5 80t-19.5 96v362h-541l-66 71z" />
    <glyph glyph-name="uni098A" unicode="&#x98a;" horiz-adv-x="1315" 
d="M-93 1214h955q28 0 60 19.5t60 48t47.5 61t20.5 59.5q-15 12 -36.5 18.5t-45 10t-46.5 4t-42 0.5q-61 0 -121.5 -6t-121.5 -13t-121.5 -13t-121.5 -6q-48 0 -92 6.5t-83 22t-73 43t-62 69.5q-34 50 -34 116q0 47 18 89t49 77q15 -11 30 -22.5t27 -26.5q-10 -7 -21.5 -18
t-21.5 -24t-16 -27t-6 -28q0 -40 34 -65.5t80.5 -39t93.5 -18.5t74 -5q110 0 218.5 11.5t217.5 11.5q44 0 97 -18t99 -49.5t77 -74.5t31 -94q0 -38 -21.5 -67t-49.5 -52h165l67 -65l-21 -33h-622v-424q0 -23 2 -45t10 -43q5 -3 17 -3q9 0 18.5 0.5t18.5 2.5q34 8 72.5 39
t74.5 71t66 82t46 72l41 10q42 -35 79.5 -79t66.5 -94t46 -105t17 -111q0 -91 -36 -172t-98 -141.5t-143.5 -96t-173.5 -35.5q-118 0 -215.5 36t-175 98.5t-135.5 147t-97 181.5t-59.5 202.5t-23.5 209.5q13 5 29 5q8 0 11 -1q12 -45 26.5 -88.5t25.5 -88.5
q7 -63 28.5 -134.5t59 -140.5t91 -130.5t124.5 -105.5l7 8q-40 37 -73 90t-59 114t-45 127t-32 129t-20 120.5t-8 100.5q11 3 20 3h5l10 -1h5q8 -46 23.5 -89t26.5 -88q5 -52 21 -112t42.5 -119.5t63.5 -114.5t84 -97t104.5 -67.5t124.5 -25.5q75 0 144 25.5t122 71.5
t84.5 111t31.5 143q0 20 -2.5 40t-6.5 40q-16 21 -30.5 35t-38.5 25q-30 -37 -69 -74.5t-83.5 -67.5t-93.5 -49t-99 -19q-12 0 -24.5 6t-24.5 15t-22.5 19t-18.5 18q-39 41 -59.5 80t-20.5 97v387h-595l-66 71z" />
    <glyph glyph-name="uni098B" unicode="&#x98b;" horiz-adv-x="1421" 
d="M80 1207q48 0 84 -26t40 -77h7q27 0 61.5 22.5t67.5 54t58.5 66t32.5 58.5l36 9q91 -56 161 -136.5t118 -175.5q16 5 31.5 9.5t31.5 9.5v100q0 42 -5 85t-28 80l45 30q10 -10 21.5 -25t22 -30.5t19.5 -31.5t13 -30q7 -19 9 -54.5t2 -75t-1 -77t-1 -61.5q0 -88 1.5 -175
t1.5 -175q69 -67 121 -147t93 -167l8 2q-7 40 -8 80t-1 80l-1 664q0 25 -7.5 52t-19 53.5t-25.5 51.5t-28 45l50 34q26 -29 51 -57.5t50 -57.5h139l64 -75l-17 -23h-29q-41 0 -77.5 3.5t-76.5 8.5q9 -20 13.5 -48.5t7 -59t3 -60.5t0.5 -52l-2 -388v-47q0 -82 3 -175t14 -198
q-8 -8 -17.5 -14t-19.5 -12q-15 16 -28.5 32t-29.5 31q-39 86 -97 155t-132 128v-145q0 -76 3 -152t11 -152l-37 -26q-14 17 -30 32.5t-27 35.5q-4 8 -6 15.5t-5 15.5q-8 21 -20 41t-26 38q-40 53 -100 102t-130.5 87t-145.5 60.5t-145 22.5q-9 0 -18 -0.5t-18 -1.5
q-38 51 -78.5 100t-81.5 98q134 131 292 228t333 161q-12 22 -28.5 44.5t-36.5 42.5t-43 34.5t-49 19.5q-31 -42 -75.5 -79.5t-96 -65.5t-107 -44t-108.5 -16q-36 0 -71 8.5t-62 26.5t-44 47t-17 70q0 60 38 99.5t99 39.5zM808 148l8 2q-6 61 -6 121q0 5 0.5 40.5t0.5 101.5
q0 113 -1 224.5t-1 224.5q-145 -56 -275.5 -133t-244.5 -183q78 -31 153 -68.5t142.5 -85.5t124.5 -107.5t99 -136.5z" />
    <glyph glyph-name="uni098F" unicode="&#x98f;" horiz-adv-x="1380" 
d="M232 938q17 -6 31.5 -16.5t26.5 -23.5q-49 -46 -72.5 -111t-23.5 -131q0 -140 77.5 -211.5t208.5 -71.5q54 0 108.5 4t108.5 4q67 0 126.5 -11.5t110 -38t91 -70t69.5 -107.5l5 4q-6 25 -7.5 49.5t-1.5 50.5l2 768q0 11 -1 28.5t-5 34t-12.5 28.5t-24.5 12
q-24 0 -59.5 -14.5t-74.5 -38t-77.5 -53.5t-69.5 -62t-50 -63.5t-19 -57.5q0 -11 5 -24q14 3 27 3q25 0 47.5 -10t39.5 -27t27 -39.5t10 -48.5q0 -35 -13 -62t-34.5 -45t-51 -27.5t-62.5 -9.5q-45 0 -80.5 17t-59.5 45.5t-37 66.5t-13 80q0 55 23 111.5t61 109t88.5 98
t105.5 80t111.5 54t106.5 19.5q28 0 60.5 -22t60.5 -54t46.5 -67.5t18.5 -62.5l4 -759q1 -75 3.5 -148.5t10.5 -147.5l-37 -25l-57 69q-13 65 -47.5 107t-82.5 67t-105.5 35t-115.5 10q-59 0 -117 -6.5t-117 -6.5q-86 0 -162 25.5t-132.5 74t-89 118.5t-32.5 158
q0 93 32 181.5t91 160.5z" />
    <glyph glyph-name="uni0990" unicode="&#x990;" horiz-adv-x="1504" 
d="M109 596q0 93 32 181.5t91 160.5q17 -6 31.5 -16.5t26.5 -23.5q-49 -46 -72.5 -111t-23.5 -131q0 -40 10 -81t30 -76.5t49.5 -64t69.5 -43.5q30 -12 62.5 -15t64.5 -3q54 0 108.5 4t108.5 4q67 0 126.5 -11.5t110 -38t91 -70t69.5 -107.5l5 4q-6 25 -7.5 49.5t-1.5 50.5
l2 768q0 11 -1 28.5t-5 34t-12.5 28.5t-24.5 12q-24 0 -59.5 -14.5t-74.5 -38t-77.5 -53.5t-69.5 -62t-50 -63.5t-19 -57.5q0 -11 5 -24q14 3 27 3q25 0 47.5 -10t39.5 -27t27 -39.5t10 -48.5q0 -35 -13 -62t-34.5 -45t-51 -27.5t-62.5 -9.5q-45 0 -80.5 17t-59.5 45.5
t-37 66.5t-13 80q0 59 25.5 117t67.5 110.5t95 97.5t108 77.5t107.5 51t92.5 18.5q28 0 60.5 -22t60.5 -54t46.5 -67.5t18.5 -62.5v-113q64 0 101 31.5t57 91.5q-5 39 -24.5 78.5t-47.5 67.5q-48 47 -122.5 80.5t-157.5 62t-167.5 56.5t-151.5 64.5t-109.5 86t-42.5 121.5
q0 67 37.5 125t95.5 90q13 -16 25 -32.5t21 -34.5q-40 -14 -72 -43t-41 -72q4 -22 27 -43t57.5 -40.5t76.5 -37.5t84 -33t80 -27.5t65 -20.5q71 -22 147.5 -57.5t140 -86t104.5 -117.5t41 -153q0 -53 -17.5 -99t-47.5 -84t-70.5 -67t-87.5 -49l3 -504q1 -75 3.5 -148.5
t10.5 -147.5l-37 -25l-57 69q-13 65 -47.5 107t-82.5 67t-105.5 35t-115.5 10q-59 0 -117 -6.5t-117 -6.5q-132 0 -231.5 54t-155.5 178q-16 35 -22.5 70.5t-6.5 73.5z" />
    <glyph glyph-name="uni0993" unicode="&#x993;" horiz-adv-x="1249" 
d="M18 1032l35 16q23 -51 56.5 -109t56.5 -109q10 -57 35 -124.5t63.5 -135.5t89 -131t111 -112t130 -78.5t145.5 -29.5q51 0 107 15t103.5 46.5t78 79.5t30.5 114q0 42 -19 76.5t-39 51.5q-23 -32 -56.5 -50.5t-73.5 -18.5q-54 0 -86.5 34t-32.5 83v3q0 32 12.5 56.5t32 42
t45.5 26.5t53 9q15 0 30.5 -2.5t29.5 -8.5q74 58 82.5 106t8.5 67q0 59 -32 120q-48 36 -117 36q-51 0 -105 -18.5t-101.5 -49t-84 -70.5t-51.5 -84q23 -17 37 -43t14 -55q0 -26 -10.5 -48t-28.5 -38t-41 -25t-48 -9q-65 0 -99.5 42t-34.5 104q0 55 22.5 104.5t60.5 91.5
t88 75.5t105 57t111 36t106 12.5q53 0 105.5 -17.5t94 -50.5t67.5 -80t26 -106q0 -66 -18.5 -131t-59.5 -119q45 -51 68.5 -125t23.5 -168q0 -76 -31 -139t-81 -107t-113.5 -68.5t-129.5 -24.5q-116 0 -212 45.5t-174 122.5t-139.5 177t-109 209t-81 219t-55.5 207z" />
    <glyph glyph-name="uni0994" unicode="&#x994;" horiz-adv-x="1426" 
d="M34 1048q29 -57 61 -113t55 -116q14 -67 39.5 -140.5t62 -145t84 -136.5t105 -114t126 -78t147.5 -29q59 0 123 16t117.5 49t88.5 84t35 120q0 45 -25.5 79.5t-64.5 54.5q-24 -33 -59 -53t-77 -20q-54 0 -89.5 37t-35.5 90q0 33 13 59t34 44.5t48 28.5t56 10q34 0 63 -13
q37 28 60.5 64.5t31.5 69.5t8 60q0 15 -4 44t-26 69q-25 19 -55 27.5t-63 8.5q-51 0 -105 -18t-101 -48.5t-83.5 -71t-51.5 -84.5q23 -17 37 -43t14 -55q0 -25 -10 -46.5t-27 -38t-39.5 -26t-46.5 -9.5q-66 0 -102.5 40.5t-36.5 104.5q0 28 6.5 53.5t17.5 51.5
q29 65 80 115.5t115 85.5t135 53.5t139 18.5q57 0 109.5 -18t93 -52.5t64.5 -83t24 -110.5q0 -80 -27 -154q52 51 85 122t33 145q0 67 -28 120.5t-73 94.5t-101 71t-112 49q-39 14 -86.5 25t-96 25t-94.5 32t-82 44.5t-57.5 64t-21.5 90.5q0 33 9.5 64.5t26.5 60t41 51.5
t53 38q14 -14 25.5 -31.5t20.5 -35.5q-40 -14 -70 -39.5t-39 -69.5q8 -29 27 -51.5t44 -36.5q53 -31 109 -51.5t113.5 -36.5t113.5 -32.5t108 -39.5t98 -56.5t83 -84.5q38 -54 55.5 -118.5t17.5 -130.5q0 -61 -20.5 -118t-54.5 -108t-78 -94.5t-90 -79.5q63 -54 91 -134.5
t28 -161.5t-35 -146.5t-92.5 -112.5t-130.5 -72.5t-148 -25.5q-125 0 -224.5 49t-178 131t-137.5 188.5t-103 221t-75.5 229t-54.5 212.5z" />
    <glyph glyph-name="uni0995" unicode="&#x995;" horiz-adv-x="1388" 
d="M-110 1187l17 27h1390l67 -65l-21 -33h-515v-121q90 -4 173 -39t146.5 -93.5t101 -138.5t37.5 -176q0 -47 -12 -94t-37.5 -85t-64 -61.5t-92.5 -23.5q-26 0 -49 11.5t-40.5 30.5t-28 43.5t-10.5 49.5t8.5 48t24 41t37 28.5t47.5 10.5q32 0 59.5 -14.5t43.5 -42.5
q30 25 39.5 55.5t9.5 68.5q-9 58 -54 103.5t-104.5 77t-123.5 49t-111 18.5l3 -541q1 -89 2 -176t12 -176l-37 -26q-15 17 -28.5 34.5t-28.5 34.5q-24 95 -79.5 168t-131 123.5t-165.5 78t-183 30.5l-159 212q62 66 145 128.5t175.5 113.5t189.5 85.5t188 42.5v122h-775z
M245 566q74 -31 145.5 -69t135 -86.5t117 -108t90.5 -132.5l9 3q-10 65 -9.5 128t0.5 129l-1 425q-67 -12 -135 -38.5t-132.5 -64t-121.5 -83.5t-102 -97z" />
    <glyph glyph-name="uni0996" unicode="&#x996;" horiz-adv-x="1280" 
d="M194 1150q52 0 87 -32t37 -85q35 0 70 20t65.5 49.5t54 64.5t34.5 65l35 9q49 -25 97 -62t86 -83t61.5 -99.5t23.5 -112.5q0 -69 -33 -124.5t-83.5 -98.5t-112 -74t-118.5 -51l1 -6q137 -71 264.5 -168.5t217.5 -225.5l6 4q-8 49 -8 98v97l1 651q0 37 -6.5 78t-18.5 81.5
t-27.5 79t-33.5 70.5l48 34q7 -8 23.5 -27t36 -38.5t37.5 -34.5t27 -15h128l88 -74l-17 -24h-28q-46 0 -101 4t-100 9q15 -42 22.5 -88.5t10.5 -94t3 -95t1 -91.5l8 -565q1 -57 2 -112.5t8 -111.5l-36 -26q-15 17 -30 33.5t-28 35.5q-20 29 -38.5 59.5t-41.5 58.5
q-46 56 -111 106.5t-139.5 89t-153.5 61t-154 22.5h-17q-42 60 -82.5 119.5t-78.5 121.5l23 35q48 -16 101 -16q60 0 134 22t139 62.5t109.5 97.5t44.5 128q0 82 -73 118q-38 -54 -80 -98.5t-91 -76t-106.5 -48.5t-126.5 -17q-37 0 -71.5 8t-60.5 26t-41.5 47.5t-15.5 71.5
q0 27 9.5 52t26 44t40.5 30.5t52 11.5z" />
    <glyph glyph-name="uni0997" unicode="&#x997;" horiz-adv-x="1205" 
d="M14 829q0 92 30 166t82.5 126t124.5 79.5t157 27.5q96 0 171 -31.5t134.5 -85.5t106 -125.5t84.5 -150.5h9q-2 57 -6.5 117t-15 119.5t-29 116.5t-47.5 107l49 34q12 -15 26 -31.5t29.5 -32.5t32.5 -29.5t34 -21.5h128l90 -75l-18 -23h-28q-45 0 -100 2.5t-100 10.5
q17 -44 25 -99t10.5 -108t2.5 -100q0 -10 -0.5 -42.5t-0.5 -79.5l4 -605q0 -32 1.5 -65t9.5 -65q-17 -21 -36 -34q-27 20 -50.5 43t-42.5 51q5 170 11.5 337.5t6.5 337.5q-27 70 -71.5 142t-103 130.5t-130 95.5t-152.5 37q-50 0 -100 -18.5t-88.5 -52.5t-56 -73t-17.5 -76
q0 -16 3 -33l4 -4q40 11 91 16.5t93 5.5q47 0 90 -9t76 -32t53 -61.5t20 -98.5q0 -65 -22.5 -127.5t-59.5 -118.5t-84 -104.5t-97 -86.5q-30 32 -55.5 68.5t-44.5 76.5q45 24 90 57.5t81 75t58.5 90.5t22.5 103q0 20 -4.5 40t-15.5 37q-22 6 -46 6q-35 0 -70.5 -11
t-69 -28.5t-64.5 -37.5t-58 -38q-20 11 -41.5 30.5t-42.5 42t-39.5 45t-33.5 40.5z" />
    <glyph glyph-name="uni0998" unicode="&#x998;" horiz-adv-x="1130" 
d="M-93 1214h1133l67 -65l-21 -33h-164l7 -950q0 -49 1.5 -98t9.5 -97l-37 -26q-15 17 -28.5 34.5t-28.5 34.5q-24 73 -69.5 127.5t-105 90.5t-129 54t-141.5 18q-18 0 -35.5 -1t-35.5 -3q-103 96 -184 206q62 64 128.5 122t136.5 112l-5 5q-28 -9 -54 -13t-51 -4
q-75 0 -132 34t-85 87t-28 115q0 6 1.5 44t46.5 108h-148l-66 71zM230 942q0 -35 11 -59.5t30 -40.5t44.5 -23t53.5 -7q27 0 55.5 6t56 17.5t52 27t43.5 34.5q31 -32 61 -64t62 -62q-92 -69 -178 -144t-160 -163q140 -37 261.5 -110t206.5 -192l7 2q-10 70 -10 139
q0 7 0.5 48t0.5 118l-2 647h-469q-28 -7 -51.5 -24.5t-40 -41.5t-25.5 -52.5t-9 -55.5z" />
    <glyph glyph-name="uni0999" unicode="&#x999;" horiz-adv-x="1084" 
d="M76 868q17 -44 35 -86.5t35 -86.5q18 -83 51 -171t85.5 -160t127 -118t174.5 -46q75 0 146 30t123.5 82t72.5 107t20 99q0 31 -7 64q-11 17 -24 34t-33 26q-20 -27 -58 -62t-83 -66.5t-91.5 -53t-83.5 -21.5q-36 0 -70 23.5t-61 58.5t-43 75t-16 73v210q-37 21 -75.5 50
t-75.5 62t-70 68.5t-58 69.5q15 26 38.5 46t49.5 34q18 -34 38 -67.5t43 -64.5t51 -57.5t62 -46.5q7 54 30 101t59.5 81.5t84 54.5t103.5 20q36 0 72.5 -11.5t66 -33t48 -53t18.5 -71.5q0 -38 -20.5 -77t-43.5 -68q-40 -49 -98 -71t-120 -22q-49 0 -94 12q-2 -48 -3 -94.5
t-1 -94.5q0 -22 2 -53.5t13 -50.5q6 -1 17 -1q44 0 86.5 25t80 62.5t67 80.5t48.5 78l39 8q39 -30 73 -69.5t59 -85.5t39.5 -96t14.5 -100q0 -76 -30.5 -146.5t-82.5 -124.5t-121 -86.5t-146 -32.5q-111 0 -194.5 35.5t-145 96.5t-105 141.5t-74 170t-51 183t-36.5 180.5
q19 5 42 7zM487 932q18 -6 40 -6q41 0 86.5 19t83.5 47.5t63 62t25 61.5q0 20 -18.5 26.5t-33.5 6.5q-39 0 -82.5 -18.5t-79.5 -49t-60 -69.5t-24 -80z" />
    <glyph glyph-name="uni099A" unicode="&#x99a;" horiz-adv-x="1034" 
d="M-93 1214h1037l67 -65l-21 -33h-704v-4q0 -38 17 -78.5t44.5 -76t62 -63.5t68.5 -42q57 -24 108.5 -31.5t99.5 -18.5t94 -35t92 -80q23 -27 31.5 -54t8.5 -62q0 -48 -22.5 -109.5t-60 -125.5t-87.5 -126t-104.5 -110.5t-110.5 -78t-107 -29.5q-46 0 -84 28.5t-67 60.5
q-32 36 -50.5 69t-28 66.5t-11.5 71.5t-2 84l5 744h-226l-66 71zM280 956v-651q0 -50 5.5 -100.5t35.5 -92.5q25 1 47.5 8.5t44.5 18.5q30 15 67.5 46.5t77 73t76.5 89.5t66.5 96t47 92.5t17.5 78.5q0 28 -13 59q-69 1 -139.5 21t-133.5 57t-113 89t-79 116z" />
    <glyph glyph-name="uni099B" unicode="&#x99b;" horiz-adv-x="1145" 
d="M-110 1187l17 27h1147l67 -65l-21 -33h-823v-67q20 -39 51 -62t68.5 -36.5t78 -19.5t78.5 -11q37 0 72 9t72 9q65 0 122.5 -32t100.5 -82.5t68.5 -113t25.5 -123.5q0 -73 -33 -136t-86 -112.5t-119 -83.5t-131 -50v-5q78 -22 157.5 -68t154.5 -104t141.5 -123t118.5 -125
q-20 -28 -42 -46q-91 100 -189 172t-205 121.5t-225.5 78.5t-251.5 43q-28 46 -57 91t-56 92q6 8 12 16.5t14 15.5q56 -22 114.5 -34.5t118.5 -12.5q79 0 162 29.5t151.5 77.5t112 109t43.5 125q0 43 -12 77.5t-32 53.5q-21 20 -58 28t-75 8q-16 0 -30.5 -1t-27.5 -3l-3 -7
q14 -14 23 -32t9 -38q0 -48 -36 -101.5t-89 -99t-112.5 -75.5t-107.5 -30q-22 0 -48.5 12.5t-51.5 32t-44 42.5t-27 43q-9 24 -11.5 64t-0.5 95l18 389h-247zM301 547q40 6 89 27.5t91.5 54t71.5 72.5t29 84q0 17 -6 32q-17 8 -37 9t-39 2q-40 2 -73.5 7.5t-61 19
t-49.5 37.5t-39 64l-1 -286q0 -29 3.5 -64t21.5 -59z" />
    <glyph glyph-name="uni099C" unicode="&#x99c;" horiz-adv-x="1507" 
d="M-92 1214h1506l67 -65l-21 -33h-553q-29 0 -62.5 -11.5t-59.5 -23.5q3 -52 28 -88t62.5 -58.5t83.5 -32.5t91 -10q57 0 111.5 10t109.5 22q23 -18 43 -43t37 -53t30 -57.5t23 -56.5q-78 -74 -124 -171t-60 -182.5t-14 -151.5q0 -41 7.5 -116t42.5 -173
q-17 -7 -33.5 -12.5t-33.5 -10.5q-39 99 -56 200.5t-17 195.5q0 20 2.5 87t29.5 176.5t77 203.5q-10 -1 -20 -1h-20q-73 0 -145 18.5t-137 53t-119 84.5t-92 113q-44 -30 -100.5 -78.5t-102 -107t-63.5 -107.5t-18 -81q0 -31 11 -60q30 -10 60 -10q37 0 69.5 14t62 37
t55.5 51.5t50 58.5l30 12q25 -11 59.5 -27.5t53.5 -35.5q23 -23 46 -58.5t41 -75.5t29.5 -80t11.5 -71q0 -74 -27 -137t-74 -108.5t-111.5 -71.5t-139.5 -26q-102 0 -183.5 36.5t-144.5 98t-108.5 143.5t-75.5 172t-45 183t-18 178l36 5l54 -171q10 -76 40.5 -161.5
t83.5 -157.5t130.5 -119.5t180.5 -47.5q68 0 124 24t96.5 66t64.5 99t27 123q-10 25 -32.5 41t-48.5 18q-28 -28 -54.5 -53t-56 -43t-63.5 -28.5t-76 -10.5q-55 0 -100.5 22.5t-77 60t-49 86.5t-17.5 101q0 56 26 111.5t65 105.5t85.5 93t88.5 75h-630l-66 71z" />
    <glyph glyph-name="uni099D" unicode="&#x99d;" horiz-adv-x="1386" 
d="M-92 1214h888q9 -10 19.5 -25t20.5 -30.5t18.5 -31.5t13.5 -28q6 -16 9 -66.5t3.5 -104t0.5 -92.5q0 -40 -0.5 -104t-0.5 -151q69 -67 121 -147t93 -167l8 2q-7 40 -8 80t-1 80l-1 664q0 25 -7.5 52t-19 53.5t-25.5 51t-28 45.5l50 34q26 -29 51 -57.5t50 -57.5h139
l90 -75l-17 -23h-29q-41 0 -90.5 3.5t-89.5 8.5q9 -21 14.5 -66.5t8 -103t2.5 -122t-0.5 -125t-1.5 -111t-1 -80.5q0 -106 3 -210t14 -210q-8 -8 -17.5 -14t-19.5 -12q-17 17 -28 30t-22 25q-42 85 -102 159t-135 132v-145q0 -76 3 -152t11 -152l-37 -26q-15 17 -29 34
l-28 34q-33 81 -100.5 150.5t-153 120.5t-180 80t-180.5 29q-38 51 -78.5 100t-81.5 98q157 155 349 262.5t404 167.5q0 24 -4 48t-12 47h-807l-66 71zM260 546q78 -31 153 -68.5t142.5 -85.5t124.5 -107.5t99 -136.5l8 2q-6 61 -6 121q0 5 0.5 40.5t0.5 101.5l-2 449
q-145 -56 -275.5 -133t-244.5 -183z" />
    <glyph glyph-name="uni099E" unicode="&#x99e;" horiz-adv-x="1824" 
d="M55 620q0 93 32.5 178.5t86.5 160.5q17 -7 30 -18t25 -24q-45 -51 -67.5 -116t-22.5 -133q0 -65 18.5 -119t53.5 -92.5t86 -59.5t115 -21q49 0 98 4.5t98 4.5q69 0 125.5 -12.5t102.5 -40t83 -72t65 -108.5l5 4q-8 54 -9.5 108t-1.5 108l2 655q0 10 -1 27.5t-5.5 34.5
t-12.5 29.5t-23 12.5q-21 0 -54.5 -14.5t-71 -39t-75 -55t-68 -63t-49.5 -63t-19 -54.5q0 -18 7 -32q12 3 24 3q57 0 92 -37.5t35 -93.5q0 -72 -43.5 -115t-115.5 -43q-45 0 -79.5 16.5t-57 45t-34 66t-11.5 79.5q0 50 20 106.5t54.5 112.5t80.5 108t98 92t106.5 63.5
t106.5 23.5q34 0 68 -21t61.5 -52.5t44.5 -68.5t17 -70q0 -60 -2.5 -119.5t-2.5 -119.5l5 -1q21 60 56.5 116t83 98.5t106.5 68t127 25.5q51 0 96 -25.5t78.5 -66t53 -90.5t19.5 -98q0 -40 -8 -70t-20.5 -54.5t-27 -45.5t-28.5 -44q38 -49 60.5 -107.5t22.5 -121.5
q0 -47 -16.5 -86.5t-45 -68t-68 -44.5t-86.5 -16q-70 0 -133.5 31t-115.5 81t-90.5 112.5t-59.5 124.5l-5 -3l6 -294q2 -60 4 -118.5t10 -117.5q-15 -17 -37 -26q-14 17 -30.5 33t-27.5 36q-14 26 -21 53.5t-23 52.5q-22 36 -56 58t-73.5 34t-81.5 16t-81 4q-48 0 -94.5 -4
t-94.5 -4q-94 0 -171 26.5t-132 77t-85.5 124.5t-30.5 168zM1430 290q37 0 71 14t59.5 38t41 57t15.5 71q0 16 -3 32q-10 14 -23 24t-27 18q-32 -32 -65 -44.5t-78 -12.5q-34 0 -59.5 13t-43 35t-26.5 50.5t-9 59.5q0 26 11 49t29.5 40t42.5 27t49 10q28 0 56 -9.5t50 -26.5
q22 5 40 21t30.5 37.5t19 45.5t6.5 45q0 19 -6 34q-7 16 -25.5 28t-41 20t-45 12t-38.5 4q-67 0 -130 -31t-114 -81t-87.5 -112.5t-50.5 -124.5q20 -59 50.5 -120t74 -110.5t100 -81t126.5 -31.5z" />
    <glyph glyph-name="uni099F" unicode="&#x99f;" horiz-adv-x="980" 
d="M-110 1187l17 27h781q26 12 49.5 29.5t39 39.5t20.5 48.5t-7 56.5q-24 24 -58 28t-66 4q-100 0 -197.5 -11.5t-197.5 -11.5q-61 0 -120.5 14.5t-105.5 45t-74.5 79.5t-28.5 118q0 45 16 89.5t47 76.5q14 -12 28 -23.5t26 -25.5q-21 -15 -41.5 -42.5t-20.5 -54.5
q0 -37 30.5 -62t72.5 -40t85.5 -21.5t69.5 -6.5q84 0 166.5 5.5t166.5 5.5q54 0 105 -21t91 -58t64 -85.5t24 -104.5q0 -19 -3.5 -37t-11.5 -35h32l67 -65l-21 -33h-678v-751q0 -51 8.5 -106t38.5 -98q18 -7 41 -7q42 0 89.5 22.5t93 59t85.5 83.5t68 95.5t39.5 95.5t0.5 83
q-18 -14 -38.5 -20t-40.5 -6q-26 0 -50.5 9.5t-43 26.5t-30 41t-11.5 54q0 33 12.5 58t33.5 42t49 25.5t59 8.5q47 0 84.5 -20t64 -53t41 -74.5t14.5 -85.5q0 -75 -21.5 -147t-57.5 -135t-83.5 -116t-98 -91t-101.5 -59.5t-95 -21.5q-41 0 -85 31t-80.5 79.5t-60 107
t-23.5 112.5v757h-203z" />
    <glyph glyph-name="uni09A0" unicode="&#x9a0;" horiz-adv-x="1044" 
d="M-110 1187l17 27h561q-35 47 -76.5 96t-79 100t-65.5 104.5t-34.5 92t-6.5 60.5q0 34 12 81t61 107q39 -23 76 -48.5t71 -54.5v-12q-51 -31 -65 -67.5t-14 -69.5q0 -14 4.5 -45.5t28.5 -82.5t55 -99t63.5 -90t54.5 -72h400l67 -65l-21 -33h-375q50 -70 100 -148
t90 -161.5t65 -171t25 -176.5q0 -94 -34 -178t-94.5 -147t-143 -100t-179.5 -37q-79 0 -148 35.5t-120.5 93t-81 131.5t-29.5 151q0 15 1.5 30t6.5 29q61 21 120.5 58.5t112 87t95 109t70 125t34.5 114.5t7 79q0 38 -7 76h-558zM199 222q10 -19 34 -34t53 -24.5t58.5 -14.5
t48.5 -5q78 0 150.5 33.5t128 89t88.5 128t33 150.5q0 67 -15.5 134t-42 131.5t-60.5 125.5t-72 115l-6 -4q17 -64 17 -126q0 -50 -17.5 -128t-77.5 -173.5t-146.5 -173.5t-180.5 -132q-3 -9 -3.5 -17.5t-0.5 -12.5q0 -8 1 -19t3.5 -23t6.5 -20z" />
    <glyph glyph-name="uni09A1" unicode="&#x9a1;" horiz-adv-x="1276" 
d="M-93 1214h1278l67 -65l-21 -33h-636v-405q0 -22 2 -43.5t10 -41.5q15 -3 30 -3q38 0 80.5 30.5t81.5 73t71 88t50 75.5l41 10q41 -37 78.5 -83t66.5 -98.5t46.5 -109t17.5 -113.5t-16 -111.5t-43 -104.5q-61 -111 -164.5 -168.5t-228.5 -57.5q-113 0 -200.5 42t-154 112
t-114.5 161.5t-82.5 191t-57 200.5t-37.5 189q11 5 22 6t22 1q17 -49 34.5 -86.5t36.5 -84.5q19 -95 56.5 -196t99 -184.5t149 -137t206.5 -53.5q75 0 145 28.5t124.5 78t87 117t32.5 144.5q0 48 -14 86t-61 57q-28 -34 -66.5 -71.5t-83 -68t-92.5 -50.5t-95 -20
q-31 0 -56.5 20.5t-45.5 41.5q-37 41 -56.5 80t-19.5 96v362h-541l-66 71z" />
    <glyph glyph-name="uni09A2" unicode="&#x9a2;" horiz-adv-x="980" 
d="M-110 1187l17 27h982l67 -65l-21 -33h-678v-751q0 -51 8.5 -106t38.5 -98q18 -7 41 -7q42 0 89.5 22.5t93 59t85.5 83.5t68 95.5t36.5 84t8.5 56.5q0 20 -5 38q-18 -14 -38.5 -20t-40.5 -6q-26 0 -50.5 9.5t-43 26.5t-30 41t-11.5 54q0 32 12 57t32.5 42t47.5 26t57 9
q48 0 87 -19.5t66 -51.5t41.5 -74.5t14.5 -87.5q0 -86 -26.5 -161.5t-68.5 -139t-94 -113.5t-102.5 -84.5t-94.5 -53t-71 -18.5q-35 0 -78 30.5t-81 78.5t-64 106.5t-26 114.5v757h-203z" />
    <glyph glyph-name="uni09A3" unicode="&#x9a3;" horiz-adv-x="1061" 
d="M45 849q0 76 27.5 143t76 117.5t114.5 79.5t144 29q62 0 116.5 -34t100 -85t80.5 -110t57 -109h9q-2 47 -7 100.5t-16 108t-29 108t-45 98.5l49 34q12 -14 26 -31t30 -33t32.5 -29.5t33.5 -21.5h128l75 -75l-18 -23h-28q-45 0 -92.5 2.5t-92.5 10.5q13 -33 19.5 -67.5
t9.5 -69.5q7 -73 7 -146t1 -146q2 -133 2 -263.5t2 -263.5q1 -52 1 -104.5t10 -103.5q-17 -21 -36 -34q-27 20 -50.5 43t-42.5 51q5 170 12 347.5t7 347.5q0 12 -4 31t-10 38.5t-12.5 37.5t-11.5 30q-32 78 -87.5 140t-130.5 100q-8 1 -15.5 1.5t-14.5 0.5q-62 0 -115 -20.5
t-92 -57.5t-61 -89t-22 -115q0 -48 16 -97.5t54 -80.5q23 -6 43 -6h12q5 0 10 2q-14 33 -14 67q0 27 10.5 47.5t28 35t40.5 21.5t48 7q29 0 54.5 -12t45 -31.5t30.5 -45.5t11 -55q0 -42 -19 -75.5t-50 -56t-69 -34.5t-76 -12q-69 0 -126.5 32t-98.5 83t-64 115t-23 128z" />
    <glyph glyph-name="uni09A4" unicode="&#x9a4;" horiz-adv-x="1269" 
d="M40 930q25 -46 53.5 -92t50.5 -87q23 -92 73 -187t122 -171.5t162.5 -125t194.5 -48.5q78 0 145 28t115.5 77t76 116t27.5 144q0 16 -1.5 40t-5.5 49t-10 48t-14 36q-13 20 -37.5 38.5t-53 32.5t-58.5 22t-54 8q-26 0 -46 -12.5t-39 -24.5q20 -23 30 -52.5t10 -46.5
q0 -44 -14 -72.5t-37.5 -45t-55 -23t-66.5 -6.5q-80 0 -125 53.5t-45 141.5q0 47 25.5 87.5t66 71t91 48t99.5 17.5q93 0 174 -40t141 -106.5t94.5 -152.5t34.5 -178q0 -96 -29.5 -181t-85.5 -148t-136.5 -99.5t-182.5 -36.5q-126 0 -236.5 65t-203 180t-166 272.5
t-125.5 342.5q16 16 41 18zM-93 1214h1261l67 -65l-21 -33h-1258l-66 71z" />
    <glyph glyph-name="uni09A5" unicode="&#x9a5;" horiz-adv-x="1204" 
d="M80 919q0 57 29 109.5t74.5 93.5t102.5 65.5t113 24.5q70 0 135 -25t115.5 -69.5t81 -106t30.5 -133.5q0 -67 -25 -122.5t-66.5 -102t-95.5 -84.5t-112 -68l2 -10q62 -12 127.5 -47t126 -84.5t110.5 -107t80 -114.5l2 2q-8 49 -8 98v97l1 651q0 37 -6.5 78t-18.5 81.5
t-27.5 79t-33.5 70.5l48 34q7 -8 23.5 -27t36 -38.5t37.5 -34.5t27 -15h128l88 -74l-17 -24h-28q-46 0 -101 4t-100 9q15 -42 22.5 -88.5t10.5 -94t3 -95t1 -91.5l8 -565q1 -57 2 -112.5t8 -111.5l-36 -26q-15 17 -29.5 34.5t-28.5 34.5q-39 90 -100 158t-135.5 113
t-157.5 68t-166 23q-40 0 -81 -6q-33 48 -72.5 97.5t-71.5 98.5l17 25q116 10 203.5 40t148.5 72.5t96.5 93t44.5 89.5t9 64q0 24 -8 59.5t-39 72.5q-19 15 -42 21.5t-49 6.5q-31 0 -63.5 -9t-61.5 -24t-53 -36t-39 -45q25 -19 38.5 -45.5t13.5 -55.5q0 -27 -11.5 -50
t-30.5 -39t-44.5 -25t-53.5 -9q-32 0 -56.5 12.5t-41.5 32.5t-25.5 47t-8.5 55z" />
    <glyph glyph-name="uni09A6" unicode="&#x9a6;" horiz-adv-x="1122" 
d="M-110 1187l17 27h1123l67 -65l-21 -33h-817l-2 -550l7 -2q46 60 110.5 116t138 103.5t150.5 85t148 61.5q52 -27 105 -70.5t91 -88.5q-61 -80 -103.5 -188t-59.5 -224t-5.5 -231t57.5 -209l-54 -24q-32 44 -52.5 108.5t-31.5 140t-13 156.5t3.5 158.5t18 147t29.5 121.5
l-6 5q-76 -19 -151.5 -64t-142 -106t-119.5 -131.5t-85 -141.5h-10q-39 37 -76.5 75t-70.5 81q22 42 25.5 87t3.5 91l-2 493h-206z" />
    <glyph glyph-name="uni09A7" unicode="&#x9a7;" horiz-adv-x="1044" 
d="M336 838q-116 0 -178.5 62t-62.5 178q0 42 16.5 78.5t44 63.5t64.5 42.5t78 15.5q29 0 56 -9t48 -26t34 -41.5t13 -55.5q0 -22 -8.5 -42.5t-23 -36t-34.5 -24.5t-43 -9q-35 0 -67.5 21t-41.5 56q-13 -1 -22 -10t-15 -21t-8.5 -25.5t-2.5 -24.5q0 -36 17 -61.5t43.5 -42
t59.5 -24.5t65 -8q24 0 51 5q75 48 153.5 87.5t158.5 77.5q0 34 -6 67t-20 64l44 40q24 -14 60 -18t73 -4q22 0 42 0.5t37 0.5l64 -71l-21 -27q-39 0 -88 2.5t-87 7.5l3 -639q1 -130 2 -258t12 -258l-36 -26q-14 17 -28 34.5t-30 34.5q-31 95 -90 167.5t-137 121t-170 73
t-188 24.5q-38 42 -75.5 82.5t-69.5 87.5q75 72 152 140t162 128zM257 531q71 -22 142 -57t135 -81.5t116 -105t85 -126.5l7 4q-8 66 -8.5 131.5t-0.5 131.5l-1 456q-58 -27 -125 -66.5t-131.5 -86t-122 -98t-96.5 -102.5z" />
    <glyph glyph-name="uni09A8" unicode="&#x9a8;" horiz-adv-x="1142" 
d="M-93 1214h1133l67 -65l-21 -33h-164l2 -720q0 -107 2 -213t14 -212l-36 -26l-40 49q-4 75 -22 158t-47 164t-68 154.5t-85.5 130t-100.5 89.5t-112 33q-25 0 -48.5 -7.5t-43.5 -23.5q44 -19 64.5 -57.5t20.5 -84.5q0 -37 -17 -64t-43.5 -45t-59.5 -26.5t-65 -8.5
q-42 0 -74.5 19t-54 50t-33 69t-11.5 75q0 56 25.5 102t66.5 78.5t92 50.5t103 18q64 0 119.5 -24t102 -65t85.5 -94.5t71 -111.5t56.5 -117.5t43.5 -112.5l7 2q-9 87 -8.5 172.5t-0.5 172.5l-2 426h-869l-66 71z" />
    <glyph glyph-name="uni09AA" unicode="&#x9aa;" horiz-adv-x="1286" 
d="M463 1207q99 0 179.5 -38.5t145 -101t114.5 -142t86 -161.5l8 2q0 63 -3.5 133t-14 139.5t-30 135.5t-51.5 121l49 34q12 -14 26 -31t30 -33t32.5 -29.5t33.5 -21.5h128l90 -75l-18 -23h-28q-45 0 -100 2.5t-100 10.5q17 -44 25 -99t10.5 -108t2.5 -100q0 -10 -0.5 -42.5
t-0.5 -79.5l4 -605q0 -32 1.5 -65t9.5 -65q-17 -21 -36 -34q-26 20 -50.5 43t-42.5 51q5 156 10 311t7 311q-20 46 -41.5 90.5t-47.5 87.5q-137 -99 -260.5 -212.5t-244.5 -231.5q-32 23 -65 44t-65 44v6q6 6 12 11l7 7q6 5 12 11q22 24 36.5 59.5t20 70.5t5.5 65
q0 10 -1.5 34.5t-11.5 55.5q-30 13 -69 13q-38 0 -74.5 -13t-61.5 -37q-20 9 -40 24t-38 33t-33 38t-26 39q28 69 76.5 128t111 101.5t134.5 67t147 24.5zM217 912l2 -3q47 -3 86 -27t69.5 -60t50.5 -79.5t29 -85.5q85 77 172 150.5t183 136.5q-53 63 -119 103t-151 40
q-47 0 -93 -13t-88 -36.5t-78 -55.5t-63 -70z" />
    <glyph glyph-name="uni09AB" unicode="&#x9ab;" horiz-adv-x="1446" 
d="M-110 1187l17 27h1457l67 -65l-21 -33h-1179q49 -44 105 -83.5t108.5 -82.5t97 -92.5t70.5 -114.5l-305 -268l3 -5q74 -11 146 -37.5t137 -67t119 -95t90 -120.5l8 3q-6 44 -8 87.5t-2 87.5v659q25 5 50 6.5t50 1.5q86 0 168 -24t146.5 -72.5t103.5 -122t39 -171.5
q0 -49 -11.5 -96.5t-36.5 -85t-65 -60.5t-96 -23q-28 0 -51 11.5t-39 30t-25 43t-9 51.5q0 23 8.5 46t23.5 41t36 29t46 11q31 0 57 -15t41 -42q27 16 44 41.5t17 52.5v9q-3 33 -25.5 71.5t-60 72t-88.5 56t-111 22.5q-26 0 -55 -5t-58 -17l7 -791q0 -22 1 -43.5t5 -43.5
l-36 -26l-57 69q-26 77 -75.5 134.5t-114 95.5t-139 57.5t-151.5 19.5q-29 0 -59 -3q-50 45 -92.5 95.5t-80.5 104.5l354 303q-21 27 -55.5 49.5t-74.5 39.5t-81 30t-73 22q-9 3 -21.5 6.5t-25.5 7.5t-25 8.5t-19 8.5q-12 8 -23.5 23t-20.5 33t-16 36t-10 31h-60z" />
    <glyph glyph-name="uni09AC" unicode="&#x9ac;" horiz-adv-x="1086" 
d="M-110 1187l17 27h1087l67 -65l-21 -33h-168l5 -982q0 -42 1.5 -82.5t11.5 -80.5l-36 -26l-58 69q-28 75 -83 146.5t-126 127t-153.5 89.5t-167.5 34q-14 0 -28 -1t-28 -3q-40 57 -83.5 110t-87.5 107q68 72 155.5 133t184.5 109t198.5 83t197.5 56v111h-819zM262 570
l5 -9q78 -23 153 -61t142 -89t122.5 -114t93.5 -136l8 3q-8 64 -8.5 127.5t-0.5 127.5l-1 430q-63 -15 -135 -42t-142 -63t-131.5 -80t-105.5 -94z" />
    <glyph glyph-name="uni09AD" unicode="&#x9ad;" horiz-adv-x="1340" 
d="M77 928l99 -183q27 -97 76 -198.5t119.5 -184.5t162.5 -136t206 -53q83 0 157 28t130 79t89 122t33 156q0 61 -21.5 108t-60.5 71q-37 -41 -82.5 -83.5t-97 -77t-107.5 -56t-115 -21.5q-50 0 -95 16t-79 46t-54 72.5t-20 94.5q0 39 15.5 71.5t41 56.5t60 37.5t71.5 13.5
q39 0 73 -19t55.5 -49t28.5 -67t-7 -74q36 17 67.5 43.5t58 58.5t49 67t41.5 69l45 8q47 -42 90 -99.5t75 -123t51 -134t19 -132.5q0 -87 -35 -169.5t-95 -146.5t-140 -102.5t-169 -38.5q-116 0 -212 41.5t-174 112t-139.5 162.5t-109.5 193.5t-83.5 205.5t-61.5 198
q10 8 21.5 11.5t23.5 5.5zM-93 1214h1341l67 -65l-21 -33h-1338l-66 71z" />
    <glyph glyph-name="uni09AE" unicode="&#x9ae;" horiz-adv-x="1169" 
d="M-93 1214h1171l67 -65l-21 -33h-162l7 -950q0 -49 1.5 -98t9.5 -97l-37 -26q-16 17 -28.5 34.5t-28.5 34.5q-15 58 -50 117.5t-83 109t-106 83t-120 39.5q-57 -119 -188 -119q-36 0 -67 12t-53 34t-34.5 52.5t-12.5 67.5q0 43 16 76.5t42 56t60.5 34.5t71.5 12
q36 0 69 -10q27 23 41.5 47.5t14.5 60.5q0 42 -17 74.5t-45 58t-63 46t-70 36.5q-21 10 -51.5 19.5t-61.5 20t-58.5 21.5t-43.5 24q-11 10 -23 26t-22 34t-17 36t-9 33h-50l-66 71zM583 506q48 -27 90.5 -65.5t78.5 -83.5t66.5 -94.5t54.5 -99.5l2 1h1q-11 76 -10 152t1 153
l-2 647h-639q45 -33 95 -73.5t97.5 -87.5t87.5 -99.5t64.5 -109t30 -117t-17.5 -123.5z" />
    <glyph glyph-name="uni09AF" unicode="&#x9af;" horiz-adv-x="1099" 
d="M-100 1187l17 27h1099l67 -65l-21 -33h-164v-97l7 -853l2 -98q1 -49 9 -97l-37 -26q-15 17 -28.5 34.5t-28.5 34.5q-27 79 -77 143t-115.5 109t-142.5 69.5t-160 24.5q-11 0 -21.5 -0.5t-21.5 -1.5l-170 198l364 316q-26 32 -62 52.5t-76 34t-80 21.5t-75 13.5t-61 11.5
t-37 15q-20 17 -35 44t-25 52h-61zM621 791l-295 -258l3 -3q81 -30 148 -61t124 -72t106.5 -98t95.5 -138l9 3q-10 70 -10 139q0 7 0.5 48t0.5 118l-2 647h-491q38 -30 86.5 -66t94 -77.5t81.5 -87t49 -94.5z" />
    <glyph glyph-name="uni09B0" unicode="&#x9b0;" horiz-adv-x="1084" 
d="M-110 1187l17 27h1087l67 -65l-21 -33h-168l5 -982q0 -42 1.5 -82.5t11.5 -80.5l-36 -26l-58 69q-28 75 -83 146.5t-126 127t-153.5 89.5t-167.5 34q-14 0 -28 -1t-28 -3q-40 57 -83.5 110t-87.5 107q68 72 155.5 133t184.5 109t198.5 83t197.5 56v111h-819zM267 561
q78 -23 153 -61t142 -89t122.5 -114t93.5 -136l8 3q-8 64 -8.5 127.5t-0.5 127.5l-1 430q-63 -15 -135 -42t-142 -63t-131.5 -80t-105.5 -94zM254 64q0 26 10 48.5t27 39.5t40 27t48 10q53 0 89.5 -36t36.5 -89q0 -54 -36 -89.5t-90 -35.5q-53 0 -89 36t-36 89z" />
    <glyph glyph-name="uni09B2" unicode="&#x9b2;" horiz-adv-x="1342" 
d="M-93 1214h1343l67 -65l-21 -33h-164l7 -816q0 -37 1 -79.5t1.5 -86t1 -86t0.5 -79.5q-15 -20 -35 -30q-23 19 -45.5 40.5t-39.5 46.5q2 56 3 122.5t2.5 135.5t2 135.5t0.5 122.5q0 35 -16 79.5t-40 88t-52.5 80.5t-54.5 57q-34 -13 -56.5 -38.5t-35 -57t-15 -57
t-2.5 -41.5q0 -18 2 -36l-49 -15q-31 67 -71 130t-102 105q-28 6 -57 6q-56 0 -108 -20.5t-92 -57t-64 -87.5t-24 -111q0 -16 3.5 -38t10.5 -43.5t17.5 -40.5t23.5 -28q15 -11 34 -16t39 -5q37 0 62 16q-33 33 -33 82q0 23 9 44.5t24 37.5t35.5 25.5t44.5 9.5q32 0 58.5 -13
t46 -34.5t30 -49.5t10.5 -59q0 -42 -17 -73.5t-45 -52.5t-64 -31.5t-74 -10.5q-74 0 -133 33t-100.5 86t-63.5 120t-22 135q0 64 23 122.5t63.5 103.5t96.5 72t121 27q45 0 85 -15.5t74 -41.5t62 -60t50 -70q5 17 18.5 44.5t32.5 53.5t40 45t41 19q19 0 41.5 -7.5t44.5 -19
t41 -26t31 -29.5q11 -14 21.5 -35.5t19.5 -45t15.5 -46.5t10.5 -41h11l1 405h-1078l-66 71z" />
    <glyph glyph-name="uni09B6" unicode="&#x9b6;" horiz-adv-x="1256" 
d="M-115 1185l17 29h32q77 0 145 -9.5t126.5 -35.5t105 -73.5t79.5 -123.5h7q12 29 35.5 68.5t54.5 75t66.5 60t71.5 24.5q63 0 116 -35.5t95.5 -88.5t73 -114t47.5 -111l7 2q-2 54 -7 112t-15.5 116t-28.5 112.5t-46 101.5l49 34q12 -14 26 -31t30 -33t32.5 -29.5
t33.5 -21.5h128l90 -75l-18 -23h-28q-45 0 -100 2.5t-100 10.5q17 -44 25 -99t10.5 -108t2.5 -100q0 -10 -0.5 -42.5t-0.5 -79.5l4 -604q0 -33 1.5 -66t9.5 -65q-17 -21 -36 -34q-26 20 -50.5 43t-42.5 51q5 162 11 322.5t6 322.5q0 29 -11 69.5t-30.5 84.5t-46 88t-56.5 80
t-62 59.5t-63 27.5q-48 -20 -82 -57.5t-53 -85.5q34 -16 67 -41t59.5 -56.5t43 -68.5t16.5 -77q0 -50 -34.5 -84.5t-84.5 -34.5q-32 0 -59 14.5t-48 37t-35.5 50.5t-23.5 56l-8 -1q-12 -28 -30 -54t-41.5 -46t-52 -32t-60.5 -12q-51 0 -83 35.5t-32 85.5q0 38 18.5 74t47 66
t64 52.5t68.5 34.5q-29 54 -71 89.5t-92 55.5t-106.5 28t-114.5 8z" />
    <glyph glyph-name="uni09B7" unicode="&#x9b7;" horiz-adv-x="1160" 
d="M-110 1187l17 27h1162l67 -65l-21 -33h-164l7 -950l2 -98q1 -49 9 -97l-37 -26q-15 17 -28.5 34.5t-28.5 34.5q-36 80 -101.5 142.5t-147 105.5t-169.5 65t-170 22h-7q-48 45 -88 97.5t-75 107.5q44 42 85.5 80t83 75t84.5 73t90 75q-48 29 -98 56t-102 49
q-11 5 -38.5 14.5t-57 20t-53.5 20t-29 14.5q-7 6 -14 17t-14 23t-13 24t-10 21h-75zM856 640l-2 476h-576q77 -58 151 -113.5t146 -113t142.5 -119t138.5 -130.5zM857 162l8 2q-7 47 -9 87t-2 73v27l2 207q-57 56 -117.5 98t-122.5 93q-39 -25 -72.5 -50.5t-63.5 -53.5
t-58 -59.5t-57 -68.5q64 -18 133 -55t135 -85t124 -103.5t100 -111.5z" />
    <glyph glyph-name="uni09B8" unicode="&#x9b8;" horiz-adv-x="1282" 
d="M-110 1187l17 27h1284l67 -65l-21 -33h-165l10 -933q1 -55 2.5 -109.5t7.5 -108.5q-8 -9 -16.5 -18t-19.5 -16q-26 19 -51 43.5t-42 51.5q1 125 4 249.5t6 249.5q-12 28 -28.5 56t-37 52.5t-45.5 43.5t-56 29q-37 -4 -77 -38t-81 -82t-82 -103t-80 -102t-75.5 -78
t-68.5 -31q-33 0 -73.5 34.5t-79.5 81t-72 94t-51 73.5l89 59q16 -43 43 -87t68 -67q32 20 62 46.5t58 56t55 60t52 58.5q0 23 -0.5 53.5t-3.5 61.5t-9.5 60t-18.5 48q-17 26 -63.5 41.5t-102 25.5t-109 18t-84.5 18q-23 24 -42.5 50.5t-31.5 58.5h-72zM545 745l4 -2
q22 24 44 45.5t47 38t53.5 26t62.5 9.5q39 0 73 -26t62.5 -63t50 -78t34.5 -72l7 1q-8 52 -8 105q0 6 0.5 38t0.5 91l-1 258h-657q67 -33 113.5 -67t74 -76.5t35 -86t7.5 -81.5q0 -28 -3 -60z" />
    <glyph glyph-name="uni09B9" unicode="&#x9b9;" horiz-adv-x="1040" 
d="M-110 1187l17 27h1044l67 -65l-21 -33h-538q12 -25 21 -54t14 -56q73 0 144.5 -23.5t128.5 -67.5t92 -106.5t35 -140.5q0 -89 -34.5 -155t-91 -113t-129 -77.5t-149.5 -48.5v-7q98 -35 186.5 -85.5t171 -111t159.5 -128.5t152 -137l-35 -42q-109 97 -208.5 167.5
t-203 121.5t-219 88t-258.5 68q-30 57 -64.5 110t-69.5 107q6 14 15.5 24.5t20.5 19.5q53 -28 108 -40t115 -12q70 0 147 21.5t141.5 63.5t107 103.5t42.5 142.5q0 26 -7 51.5t-22 48.5q-70 48 -143 48q-60 0 -112 -29q7 -43 -9 -78.5t-45.5 -60t-68.5 -38t-77 -13.5
q-30 0 -56.5 5t-46.5 17.5t-31.5 35t-11.5 56.5q0 46 23.5 82.5t61.5 63.5t85 43t95 22q-16 38 -44.5 67.5t-65.5 46.5h-367z" />
    <glyph glyph-name="uni09BC" unicode="&#x9bc;" horiz-adv-x="1136" 
d="M110 62q0 26 10 49t27 40.5t40 27.5t49 10t48.5 -10.5t39.5 -27.5t27 -40t10 -49q0 -25 -10 -47.5t-27.5 -39t-40 -26t-47.5 -9.5t-48 9.5t-40.5 26t-27.5 38.5t-10 48z" />
    <glyph glyph-name="uni09BE" unicode="&#x9be;" horiz-adv-x="521" 
d="M-98 1214h1q57 0 108 -33t92.5 -81.5t71 -105t42.5 -104.5l12 2q0 47 -2 103.5t-7.5 114t-16 112.5t-28.5 98l54 24q21 -33 40.5 -67t45.5 -63h131l68 -70l-19 -28h-21q-36 0 -81.5 4t-81.5 7q0 -65 2 -128.5t3 -128.5q3 -195 4 -388.5t1 -388.5q0 -31 0.5 -62t2.5 -62
q-14 -17 -35 -30q-23 20 -44.5 41.5t-40.5 45.5q6 360 6 719q0 10 -3 24.5t-7 29.5t-9 29t-8 24q-10 30 -33.5 75t-54.5 87t-67.5 72t-73.5 30q-38 32 -69 69z" />
    <glyph glyph-name="uni09BF" unicode="&#x9bf;" horiz-adv-x="522" 
d="M-98 1214h315q0 32 -12 55t-30 42.5t-38.5 38t-37.5 40.5q0 48 19.5 90.5t47.5 79.5q37 48 85 86t103 64.5t115 40t120 13.5q97 0 195 -28.5t189 -76.5t172 -112t144 -135l-13 -34q-60 56 -129.5 105.5t-146.5 87t-159 59t-166 21.5q-56 0 -115 -13.5t-113 -40t-98 -66
t-71 -91.5q-11 -22 -17.5 -44t-6.5 -47q0 -7 0.5 -13.5t1.5 -13.5q16 -26 27.5 -53t21.5 -55h125l68 -65l-22 -33h-164q2 -214 3 -425.5t4 -425.5q1 -75 2.5 -148t1.5 -148q-15 -20 -35 -30q-50 39 -85 87q8 204 9.5 404.5t1.5 404.5v281h-260l-69 69z" />
    <glyph glyph-name="uni09C0" unicode="&#x9c0;" horiz-adv-x="525" 
d="M-980 1606q0 31 13 59t32 52q36 46 89.5 76t115 47.5t125 24.5t117.5 7q224 0 404.5 -102t300.5 -290q38 -60 62.5 -127.5t30.5 -138.5h125l68 -65l-22 -33h-166q2 -214 3 -425.5t4 -425.5q1 -75 2.5 -148t1.5 -148q-15 -20 -35 -30q-50 39 -85 87q8 204 9.5 404.5
t1.5 404.5v281h-263l-69 69l17 29h310q-18 158 -103.5 280t-231.5 188q-83 38 -171 48.5t-178 10.5q-26 0 -68 -2t-90.5 -8t-97.5 -17t-89 -29t-65 -44t-25 -63q0 -11 2.5 -21t5.5 -20q26 -13 54 -16t56 -3q36 0 65.5 3.5t58 8t58 8t65.5 3.5q73 0 137 -28.5t110.5 -77
t73.5 -113t27 -137.5q0 -17 -16.5 -21.5t-28.5 -4.5q-5 0 -15 1t-20.5 4t-18.5 7.5t-8 10.5q0 26 5 50t5 50q0 33 -9 64q-32 40 -80.5 52.5t-96.5 12.5q-27 0 -48 -2t-40.5 -4t-40.5 -4t-48 -2q-44 0 -80.5 3t-68.5 13t-62.5 30t-61.5 53q-21 23 -37 49.5t-16 58.5z" />
    <glyph glyph-name="uni09C1" unicode="&#x9c1;" 
d="M-288 7q0 34 -3.5 63t-10.5 62q20 -1 40.5 -8t29.5 -24q12 -21 20 -43.5t13 -43.5t7.5 -38.5t2.5 -27.5q59 -47 105 -85.5t87.5 -78t83.5 -85.5t93 -107l-34 -42q-31 33 -75.5 79t-93 92t-96 85.5t-86.5 59.5q-13 -44 -41.5 -82.5t-66.5 -67.5t-83 -46t-92 -17
q-41 0 -78 15t-65.5 41t-45.5 62t-17 78q0 46 17.5 83.5t48.5 64t73.5 40.5t91.5 14q42 0 86 -10.5t89 -32.5zM-618 -220q13 -18 38 -27.5t57 -9.5q31 0 65 10t64.5 31.5t54.5 54.5t35 79q-38 17 -73 24t-67 7q-46 0 -83.5 -14t-61.5 -37t-30 -45t-6 -35q0 -19 7 -38z" />
    <glyph glyph-name="uni09C2" unicode="&#x9c2;" 
d="M-265 25q4 35 3.5 68t-4.5 68l48 -35q6 -19 12.5 -45.5t10 -54.5t4 -55t-5.5 -47q-14 2 -27 3t-27 1q-58 0 -104.5 -16t-76.5 -44t-41 -64.5t2 -76.5q16 -24 41 -34t54 -10q31 0 64.5 8.5t65 21t58 27t44.5 25.5q32 -14 67.5 -40.5t72.5 -61.5t73.5 -75t69.5 -80
t61.5 -77t48.5 -66l-33 -28q-34 43 -73 86.5t-81 84.5t-86.5 77t-89.5 63q-21 -12 -47.5 -24t-54.5 -21.5t-56 -15.5t-53 -6q-45 0 -89 15t-79 43t-56.5 67.5t-21.5 88.5q0 48 20.5 90.5t57 74t86 49.5t107.5 18q8 0 17 -0.5t18 -1.5z" />
    <glyph glyph-name="uni09C3" unicode="&#x9c3;" 
d="M-293 79q21 -32 39 -65t35 -68q-75 -51 -148 -101t-143 -107q124 -72 235 -160.5t214 -186.5l-52 -40q-106 109 -231 186.5t-271 120.5q-26 21 -51.5 42.5t-46.5 47.5q44 51 95.5 94t105.5 82.5t110 77t109 77.5z" />
    <glyph glyph-name="uni09C7" unicode="&#x9c7;" horiz-adv-x="704" 
d="M-93 1214h686l67 -65l-21 -33h-55q-87 -59 -158 -131.5t-122 -157.5t-78.5 -181.5t-27.5 -203.5q0 -65 11 -123t37 -117q8 -18 18.5 -38t24.5 -37t31.5 -28t40.5 -11q29 0 53 19q-8 19 -8 44q0 30 12 55.5t32 44.5t46.5 30t55.5 11q30 0 56 -11.5t45 -32t30 -47t11 -56.5
q0 -42 -18.5 -75.5t-48.5 -57.5t-67.5 -36.5t-76.5 -12.5q-72 0 -129 25t-100 68t-74 99.5t-50 119.5t-28 128t-9 124q0 176 61.5 318t179.5 271h-378l-66 71z" />
    <glyph glyph-name="uni09C8" unicode="&#x9c8;" horiz-adv-x="734" 
d="M-93 1214h615q17 9 35 21t32 26.5t23 32.5t9 40q-38 42 -87.5 60.5t-104.5 26t-113.5 9.5t-115.5 10t-109.5 28.5t-95.5 64.5q-34 35 -50.5 78t-16.5 91q0 45 14.5 88.5t45.5 76.5q14 -11 28 -22.5t26 -25.5q-22 -16 -41.5 -42.5t-19.5 -55.5q0 -12 8.5 -26.5t15.5 -23.5
q19 -23 53.5 -38t78 -24t92 -14.5t95.5 -9.5t88.5 -9t70.5 -14q45 -13 83.5 -45.5t66.5 -75t44 -91t16 -94.5q0 -23 -6.5 -42t-13.5 -30l37 -35l-21 -33h-106q-87 -59 -158 -131.5t-121.5 -157.5t-78 -181.5t-27.5 -202.5q0 -65 10.5 -123t37.5 -117q8 -18 18.5 -37.5
t24 -36.5t31 -28t40.5 -11q30 0 54 19q-5 10 -6.5 21t-1.5 22q0 30 11.5 55.5t31.5 44.5t46.5 30t55.5 11t54.5 -11t45 -30.5t31 -45t11.5 -54.5q0 -43 -18 -77.5t-47 -59t-67 -37.5t-78 -13q-72 0 -129 25t-100 68t-74 99.5t-50 119t-28 127.5t-9 124q0 176 61.5 317.5
t179.5 270.5h-378l-66 71z" />
    <glyph glyph-name="uni09CB" unicode="&#x9cb;" horiz-adv-x="2110" 
d="M1493 1214h1q57 0 108 -33t92.5 -81.5t71 -105t42.5 -104.5l12 2q0 47 -2 103.5t-7.5 114t-16 112.5t-28.5 98l54 24q21 -33 40.5 -67t45.5 -63h131l68 -70l-19 -28h-21q-36 0 -81.5 4t-81.5 7q0 -65 2 -128.5t3 -128.5q3 -195 4 -388.5t1 -388.5q0 -31 0.5 -62t2.5 -62
q-14 -17 -35 -30q-23 20 -44.5 41.5t-40.5 45.5q6 360 6 719q0 10 -3 24.5t-7 29.5t-9 29t-8 24q-10 30 -33.5 75t-54.5 87t-67.5 72t-73.5 30q-38 32 -69 69zM-93 1214h686l67 -65l-21 -33h-55q-87 -59 -158 -131.5t-122 -157.5t-78.5 -181.5t-27.5 -203.5q0 -65 11 -123
t37 -117q8 -18 18.5 -38t24.5 -37t31.5 -28t40.5 -11q29 0 53 19q-8 19 -8 44q0 30 12 55.5t32 44.5t46.5 30t55.5 11q30 0 56 -11.5t45 -32t30 -47t11 -56.5q0 -42 -18.5 -75.5t-48.5 -57.5t-67.5 -36.5t-76.5 -12.5q-72 0 -129 25t-100 68t-74 99.5t-50 119.5t-28 128
t-9 124q0 176 61.5 318t179.5 271h-378l-66 71z" />
    <glyph glyph-name="uni09CC" unicode="&#x9cc;" horiz-adv-x="2159" 
d="M-134 1867q14 -11 28 -22.5t26 -25.5q-22 -16 -41.5 -42.5t-19.5 -55.5q0 -12 8.5 -26.5t15.5 -23.5q19 -24 53.5 -38.5t78 -24t92 -14.5t95.5 -9t88.5 -9t70.5 -14q45 -13 83 -45.5t66.5 -75t44.5 -91t16 -93.5q0 -25 -5 -43h167l67 -65l-21 -33h-189
q-88 -60 -160 -136.5t-123.5 -166.5t-79.5 -190.5t-28 -208.5q0 -66 11 -124.5t38 -118.5q8 -18 18.5 -38t24.5 -37.5t32 -28.5t41 -11q30 0 54 19q-8 19 -8 44q0 30 12 56t32 45.5t46.5 30.5t56.5 11q31 0 57 -12t45.5 -32t30.5 -47.5t11 -57.5q0 -42 -18.5 -76t-49 -58
t-68.5 -37t-77 -13q-73 0 -130.5 25.5t-101.5 69t-75 100.5t-50.5 120.5t-28.5 129.5t-9 126q0 179 61.5 331.5t182.5 284.5h-381l-66 71l17 27h493q17 9 35 21t32 26.5t23 32.5t9 40q-38 42 -87.5 60.5t-104.5 26t-113.5 9.5t-115.5 10t-109.5 28.5t-95.5 64.5
q-34 35 -50.5 78t-16.5 91q0 45 14.5 88.5t45.5 76.5zM1524 1185l17 29h1q57 0 108 -33t92.5 -81.5t71 -105t42.5 -104.5l12 2q0 47 -2 103.5t-7.5 114t-16 112.5t-28.5 98l54 24q21 -33 40.5 -67t45.5 -63h131l68 -70l-19 -28h-21q-36 0 -81.5 4t-81.5 7q0 -65 2 -128.5
t3 -128.5q3 -195 4 -388.5t1 -388.5q0 -31 0.5 -62t2.5 -62q-14 -17 -35 -30q-23 20 -44.5 41.5t-40.5 45.5q6 360 6 719q0 10 -3 24.5t-7 29.5t-9 29t-8 24q-10 30 -33.5 75t-54.5 87t-67.5 72t-73.5 30q-37 32 -69 69z" />
    <glyph glyph-name="uni09CD" unicode="&#x9cd;" 
d="M22 -386l-27 -50l-362 238l24 115z" />
    <glyph glyph-name="uni09CE" unicode="&#x9ce;" horiz-adv-x="947" 
d="M78 811q0 82 32 157t87 132t128.5 90.5t156.5 33.5q60 0 116 -18t99.5 -53t70 -85t26.5 -115q0 -54 -20 -99t-54.5 -78t-81 -51.5t-99.5 -18.5q-65 0 -114 28t-81 73t-44.5 96t-12.5 97q0 13 1 26q-57 -35 -89.5 -87t-32.5 -120q0 -45 11 -80t32 -63.5t50.5 -52.5
t66.5 -45q54 -31 110 -56t114 -47q102 -38 183.5 -79.5t138.5 -100t87.5 -141t30.5 -201.5v-8l-1 -16v-8q-26 0 -48.5 3.5t-45.5 16.5q14 26 21.5 54t10.5 57q-12 42 -41 77q-24 29 -70.5 56t-100 50t-106.5 42.5t-89 33.5q-82 33 -161.5 78t-142 106t-100.5 139t-38 177z
M357 1060q3 -40 20 -80.5t45 -72.5t65.5 -52.5t80.5 -20.5q25 0 52.5 4.5t50 16.5t37.5 32.5t15 51.5q0 18 -4.5 35t-11.5 33q-82 82 -198 82q-39 0 -77 -8t-75 -21z" />
    <glyph glyph-name="uni09D7" unicode="&#x9d7;" horiz-adv-x="542" 
d="M-690 1799q15 -11 28.5 -23t25.5 -26q-26 -20 -42 -48.5t-21 -60.5q14 -37 45 -57t68.5 -29.5t77.5 -11t73 -1.5q68 0 135 5t135 12q47 5 93 10.5t93 5.5q43 0 90.5 -16.5t90.5 -44.5t76.5 -65t48.5 -78q14 -38 16.5 -67.5t2.5 -49.5t-2 -40h107l68 -65l-22 -33h-163
q2 -214 3 -425.5t4 -425.5q1 -75 2.5 -148t1.5 -148q-15 -20 -35 -30q-23 18 -45.5 40.5t-39.5 46.5q8 204 9.5 404.5t1.5 404.5v281h-282l-69 69l17 29h321q17 27 29 58t12 63q0 17 -4 30q-39 38 -91 48t-103 10q-46 0 -91.5 -6t-91.5 -11q-75 -9 -150 -15.5t-151 -6.5
q-56 0 -115.5 13.5t-108.5 43.5t-80.5 77t-31.5 113q0 46 16 90t48 78z" />
    <glyph glyph-name="uni09DC" unicode="&#x9dc;" horiz-adv-x="1276" 
d="M-110 1187l17 27h1278l67 -65l-21 -33h-636v-405q0 -22 2 -43.5t10 -41.5q15 -3 30 -3q38 0 80.5 30.5t81.5 73t71 88t50 75.5l41 10q41 -37 78.5 -83t66.5 -98.5t46.5 -109t17.5 -113.5t-16 -111.5t-43 -104.5q-61 -111 -164.5 -168.5t-228.5 -57.5q-113 0 -200.5 42
t-154 112t-114.5 161.5t-82.5 191t-57 200.5t-37.5 189q11 5 22 6t22 1q17 -49 34.5 -86.5t36.5 -84.5q19 -95 56.5 -196t99 -184.5t149 -137t206.5 -53.5q75 0 145 28.5t124.5 78t87 117t32.5 144.5q0 48 -14 86t-61 57q-28 -34 -66.5 -71.5t-83 -68t-92.5 -50.5t-95 -20
q-31 0 -56.5 20.5t-45.5 41.5q-37 41 -56.5 80t-19.5 96v362h-541zM500 -200q0 25 10 48t27 40t40 27t48 10q53 0 89.5 -36t36.5 -89q0 -54 -36 -89.5t-90 -35.5q-53 0 -89 36t-36 89z" />
    <glyph glyph-name="uni09DD" unicode="&#x9dd;" horiz-adv-x="961" 
d="M-110 1187l17 27h982l67 -65l-21 -33h-678v-751q0 -51 8.5 -106t38.5 -98q18 -7 41 -7q42 0 89.5 22.5t93 59t85.5 83.5t68 95.5t36.5 84t8.5 56.5q0 20 -5 38q-18 -14 -38.5 -20t-40.5 -6q-26 0 -50.5 9.5t-43 26.5t-30 41t-11.5 54q0 32 12 57t32.5 42t47.5 26t57 9
q48 0 87 -19.5t66 -51.5t41.5 -74.5t14.5 -87.5q0 -86 -26.5 -161.5t-68.5 -139t-94 -113.5t-102.5 -84.5t-94.5 -53t-71 -18.5q-35 0 -78 30.5t-81 78.5t-64 106.5t-26 114.5v757h-203zM290 -177q0 25 10 48t27 40t40 27t48 10q53 0 89.5 -36t36.5 -89q0 -54 -36 -89.5
t-90 -35.5q-53 0 -89 36t-36 89z" />
    <glyph glyph-name="uni09DF" unicode="&#x9df;" horiz-adv-x="1097" 
d="M-83 1214h1099l67 -65l-21 -33h-164v-97l7 -853l2 -98t9 -97l-37 -26q-15 17 -28.5 34.5t-28.5 34.5q-27 79 -77 143t-115.5 109t-142.5 69.5t-160 24.5q-11 0 -21.5 -0.5t-21.5 -1.5l-170 198l364 316q-26 32 -62 52.5t-76 34t-80 21.5t-75 13.5t-61 11.5t-37 15
q-20 17 -35 44t-25 52h-61l-66 71zM621 791l-295 -258l3 -3q81 -30 148 -61t124 -72t106.5 -98t95.5 -138l9 3q-11 76 -10 152t1 153l-2 647h-491q38 -30 86.5 -66t94 -77.5t81.5 -87t49 -94.5zM339 49q0 26 10 48.5t27 39.5t40 27t48 10q53 0 89.5 -36t36.5 -89
q0 -54 -36 -89.5t-90 -35.5q-53 0 -89 36t-36 89z" />
    <glyph glyph-name="uni09E6" unicode="&#x9e6;" horiz-adv-x="1229" 
d="M606 1082q112 0 206.5 -43t163 -115.5t107 -169.5t38.5 -205t-38.5 -204t-106.5 -168t-161.5 -114t-203.5 -42q-104 0 -195.5 42.5t-160 114t-108 165.5t-39.5 196q0 103 37.5 200.5t104 173.5t157.5 122.5t199 46.5zM529 111q59 0 114.5 22t104 58t87.5 83t66 96
q28 51 45.5 116t20.5 108t3 61q0 49 -10.5 104.5t-42 106t-85.5 81.5t-134 31q-100 0 -181 -52t-139 -132.5t-89.5 -177.5t-31.5 -186q0 -60 18 -117.5t52.5 -102t85 -72t116.5 -27.5z" />
    <glyph glyph-name="uni09E7" unicode="&#x9e7;" horiz-adv-x="957" 
d="M400 262q77 0 129 -25t98 -88q69 23 101.5 65t32.5 114q0 84 -44.5 150.5t-111 122.5t-144.5 107t-144.5 104t-111 112.5t-44.5 133.5q0 32 12 57.5t32 43t47 27t58 9.5q47 0 78.5 -24.5t42.5 -54t11 -54.5q0 -13 -4.5 -39.5t-35.5 -57.5q77 -65 159.5 -126t150.5 -131
t112 -155.5t44 -200.5q0 -97 -41.5 -180t-110.5 -143.5t-157.5 -94.5t-181.5 -34q-39 0 -78.5 11t-72 33t-52.5 55.5t-20 77.5q0 46 23.5 80.5t60 58t80 35t82.5 11.5z" />
    <glyph glyph-name="uni09E8" unicode="&#x9e8;" horiz-adv-x="1035" 
d="M121 574q47 -33 103.5 -64.5t117 -56.5t122.5 -40.5t120 -15.5q81 0 140 36.5t85 116.5q-4 71 -34 120.5t-75.5 85t-102.5 60t-115.5 45t-114 40t-99 44.5t-70 59.5t-26.5 85.5q0 25 8.5 48.5t23.5 41.5t36.5 28.5t48.5 10.5q31 0 55.5 -12t41.5 -32t27 -46t12 -55
q79 -19 165 -56.5t157.5 -94t118 -131t46.5 -167.5q0 -71 -28.5 -139.5t-77.5 -122t-114 -86.5t-138 -33h-15q160 -77 297.5 -187t258.5 -238q-9 -11 -18.5 -21.5t-20.5 -19.5q-88 86 -189 157t-210.5 128t-225.5 101t-234 77q-25 80 -53.5 158t-67.5 153z" />
    <glyph glyph-name="uni09E9" unicode="&#x9e9;" horiz-adv-x="1322" 
d="M107 932q23 -45 47.5 -89t41.5 -92q12 -62 34 -129.5t56 -133.5t79.5 -125.5t103.5 -105t129.5 -72t156.5 -26.5q84 0 152.5 35t117.5 92t76.5 129.5t29 114.5t1.5 51q0 67 -23 135.5t-78 125.5q-15 16 -38 30.5t-49 25.5t-55 17.5t-56 6.5q-37 0 -64 -13q33 -33 50 -77
t17 -91q0 -37 -14.5 -67t-39 -52t-56.5 -34t-67 -12q-52 0 -90.5 19.5t-64 52.5t-37.5 76.5t-12 91.5q0 52 21 98.5t56 81t81.5 54.5t98.5 20q75 0 144.5 -22t129 -62t107.5 -95.5t81 -121.5q38 -77 51 -152t13 -135q0 -29 -5 -87.5t-36.5 -140.5t-86 -145.5t-133.5 -101
t-182 -37.5q-118 0 -213 44t-169 118t-130 170.5t-98 201.5t-71 212t-49 201z" />
    <glyph glyph-name="uni09EA" unicode="&#x9ea;" horiz-adv-x="1030" 
d="M103 262q0 56 21.5 103t56.5 85t80.5 66.5t93.5 47.5q-38 18 -79 45.5t-75.5 62.5t-56.5 77t-22 89q0 77 38 140t98 108t133 69.5t143 24.5q66 0 134.5 -24.5t124 -68.5t90.5 -104.5t35 -132.5q0 -46 -17 -89t-46 -78.5t-68 -60.5t-83 -37q44 -24 87.5 -55.5t77.5 -71
t55 -86.5t21 -101q0 -84 -44.5 -145.5t-112.5 -102.5t-148 -61t-151 -20q-70 0 -139.5 21t-124 61.5t-88.5 100.5t-34 137zM610 628q32 6 65 20t59.5 36t43.5 51.5t17 66.5q0 60 -34 111t-85 88.5t-111.5 58.5t-113.5 21q-42 0 -77 -10t-61 -30.5t-40.5 -52.5t-14.5 -77
q0 -53 39 -98.5t94.5 -82t115.5 -62.5t103 -40zM781 100q21 48 21 90q0 8 -2.5 35.5t-27 68t-64.5 74.5t-86 62t-93.5 50.5t-87.5 40.5q-40 -7 -75 -23t-61 -40.5t-41.5 -58t-15.5 -77.5q0 -69 27 -124t72 -93.5t102.5 -59t118.5 -20.5q57 0 111 18.5t102 56.5z" />
    <glyph glyph-name="uni09EB" unicode="&#x9eb;" horiz-adv-x="1105" 
d="M82 475q0 88 28.5 186t84.5 189t139 165.5t192 116.5l213 -8l10 -34q-54 -32 -66 -65t-12 -54q0 -20 11.5 -49t55 -56.5t106.5 -27.5q33 0 72 9q38 -14 75.5 -30.5t75.5 -30.5v-9l-1 -18v-9q-62 -37 -125 -91t-113.5 -119.5t-82 -139t-31.5 -150.5q0 -94 53 -148t142 -70
l3 -57q-56 -17 -113.5 -24.5t-116.5 -7.5q-115 0 -223 32.5t-192 98.5t-134.5 166t-50.5 235zM235 463q0 -79 27.5 -158t77 -142t117.5 -102.5t148 -39.5q46 0 95 15q-30 17 -50 45t-32.5 61.5t-17.5 69.5t-5 67q0 64 20.5 131.5t54.5 131.5t78.5 120.5t92.5 96.5
q-47 6 -96 23t-92 44t-74.5 65.5t-43.5 88.5q-64 -42 -118.5 -98.5t-95 -124t-63.5 -142t-23 -152.5z" />
    <glyph glyph-name="uni09EC" unicode="&#x9ec;" horiz-adv-x="1262" 
d="M57 881q21 6 44 6q14 -54 38 -100.5t40 -97.5q5 -58 20 -124t42.5 -131t67.5 -125.5t92.5 -106.5t119.5 -73.5t148 -27.5t156 27.5t133 78t92.5 121t34.5 156.5q0 47 -14 83.5t-62 54.5q-32 -39 -69.5 -78.5t-81 -71t-93 -51.5t-103.5 -20q-11 0 -23.5 6t-25 15t-23.5 19
t-19 17q-39 38 -57.5 72t-25 69t-6.5 74.5t-2 89.5l-6 173q-17 -5 -31 -5q-43 0 -74.5 31.5t-31.5 78.5q0 57 33 90t90 33q35 0 61 -16t42.5 -41t23.5 -54.5t7 -56.5v-7l-10 -369v-15q0 -19 2 -41.5t13 -46.5q5 -1 10 -1.5t10 -0.5q46 0 92 30.5t85.5 74.5t71 92t47.5 83
q10 5 20 7t21 4q43 -39 81.5 -85t68 -97.5t46.5 -108t17 -116.5q0 -96 -35 -181t-96.5 -149.5t-145 -102t-180.5 -37.5q-116 0 -206 45.5t-158 121t-116.5 174t-82.5 204t-55.5 211.5t-36.5 196z" />
    <glyph glyph-name="uni09ED" unicode="&#x9ed;" horiz-adv-x="990" 
d="M46 800q0 69 37 136t95 119.5t129 85t138 32.5q63 0 118.5 -20t100.5 -55.5t77.5 -85t50.5 -108.5q15 -51 19 -96.5t4 -84.5q0 -13 -1 -45.5t-5 -85t-6 -104.5l-10 -349q4 1 8 1h8q22 0 41.5 -9t33.5 -25t22.5 -36t8.5 -43q0 -31 -12 -52t-31.5 -34t-44.5 -18.5t-52 -5.5
q-28 0 -50.5 13.5t-38.5 34.5t-25 47.5t-9 51.5q0 103 7 204.5t17 204.5l-217 -7q-26 0 -59.5 0.5t-68 3.5t-66 10t-54.5 19q-27 15 -56.5 53t-53.5 83t-39.5 90t-15.5 75zM165 655q34 -26 78.5 -34.5t88.5 -8.5h18q9 0 18 1l322 18l6 117q1 16 1 33q0 31 -3 77t-20.5 97
t-51 86t-91.5 35q-59 0 -125.5 -34.5t-122.5 -88.5t-93 -118.5t-37 -124.5q0 -29 12 -55z" />
    <glyph glyph-name="uni09EE" unicode="&#x9ee;" horiz-adv-x="1141" 
d="M157 1170q43 0 72 -20.5t46 -54.5t23.5 -75t6.5 -81v-11l-6 -302q24 20 49 45t52 46.5t56.5 36.5t62.5 15q38 0 74 -9.5t73 -21t77.5 -21t87.5 -9.5q68 0 134 23t108 81q11 -8 21.5 -13.5t21.5 -12.5q-10 -42 -27 -79t-43.5 -65t-62.5 -44t-84 -16q-30 0 -60 5t-59 10
q48 -45 73 -105.5t25 -125.5q0 -48 -21 -100t-56 -101.5t-81.5 -94t-97.5 -78t-103.5 -53t-100.5 -19.5q-34 0 -68.5 15.5t-62.5 34.5q-41 28 -63.5 58.5t-33.5 64.5t-13 72.5t-2 84.5l2 454q0 57 0.5 110.5t2.5 116.5q-58 0 -93.5 33t-35.5 92q0 48 28.5 81t77.5 33z
M323 47q20 -5 36 -5q41 0 83.5 20.5t82 54.5t75 77.5t61.5 89t41 89.5t15 79q0 43 -15.5 76t-41.5 55.5t-61.5 34.5t-76.5 12q-24 0 -54 -7.5t-61 -19t-60 -25t-50 -24.5q-1 -15 -1 -29v-30l-7 -300q0 -16 0.5 -37t3.5 -42t10 -39.5t20 -29.5z" />
    <glyph glyph-name="uni09EF" unicode="&#x9ef;" horiz-adv-x="1209" 
d="M112 1047q0 60 35.5 95t95.5 35q47 0 77 -20.5t40 -46.5t10 -50q0 -12 -4 -36.5t-30 -57.5q31 -32 63 -51t65.5 -31.5t70 -22t76.5 -22.5q88 -28 170.5 -67t146.5 -95.5t103 -133.5t39 -181q0 -97 -35 -175.5t-96 -133.5t-143.5 -84.5t-176.5 -29.5q19 54 30 110t11 113
q0 54 -12.5 108t-39.5 97.5t-70.5 71t-106.5 27.5q-73 0 -114.5 -36.5t-54 -78.5t-12.5 -77q0 -20 6 -58.5t34 -77.5q23 14 47 14q21 0 40.5 -9t34.5 -24t24.5 -35t9.5 -42q0 -26 -10 -48t-27 -38t-39.5 -25t-47.5 -9q-52 0 -86.5 27.5t-55.5 69t-30 89.5t-9 90q0 63 21 126
t60 114t94.5 82.5t124.5 31.5q74 0 137.5 -28t110 -76.5t73 -113.5t26.5 -138q0 -39 -8 -84q35 4 72.5 19t64.5 36q18 32 27 72.5t9 80.5q0 3 -0.5 25.5t-10.5 63.5t-30 72q-26 41 -69.5 73t-94 56.5t-103.5 43t-97 31.5q-39 12 -86 29.5t-95.5 41t-94.5 53.5t-81.5 66
t-57 79t-21.5 93z" />
    <glyph glyph-name="uni09F0" unicode="&#x9f0;" horiz-adv-x="1035" 
d="M-110 1187l17 27h1037l67 -65l-21 -33h-148l5 -982q0 -42 1.5 -82.5t11.5 -80.5l-36 -26l-58 69q-28 75 -83 146.5t-126 127t-153.5 89.5t-167.5 34q-14 0 -28 -1t-28 -3l-171 217q68 72 155.5 133t184.5 109t198.5 83t197.5 56v111h-789zM747 475l-1 374
q-72 -19 -141 -45t-135 -61q84 -51 153 -119t124 -149zM237 561q78 -23 153 -61t142 -89t122.5 -114t93.5 -136l8 3q-7 54 -8 108t-1 108q-28 52 -71.5 98t-95 84.5t-108.5 68t-111 47.5q-35 -23 -68 -49.5t-61 -58.5z" />
    <glyph glyph-name="uni09F1" unicode="&#x9f1;" horiz-adv-x="1035" 
d="M-93 1214h1037l67 -65l-21 -33h-148l5 -982q0 -42 1.5 -82.5t11.5 -80.5l-36 -26l-58 69q-28 75 -83 146.5t-126 127t-153.5 89.5t-167.5 34q-14 0 -28 -1t-28 -3l-171 217q68 72 155.5 133t184.5 109t198.5 83t197.5 56v111h-789l-66 71zM232 570l5 -9q78 -23 153 -61
t142 -89t122.5 -114t93.5 -136l8 3q-8 64 -8.5 127.5t-0.5 127.5l-1 430q-63 -15 -135 -42t-142 -63t-131.5 -80t-105.5 -94zM229 249l25 16q86 -30 167.5 -79t146.5 -114q8 -8 20.5 -21.5t24.5 -28.5t22.5 -29.5t13.5 -24.5q8 -22 8.5 -45.5t2.5 -46.5l-9 -3q-36 45 -82 85
t-98 73t-108 57t-112 36q-5 32 -11 62.5t-11 62.5z" />
    <glyph glyph-name="uni09F3" unicode="&#x9f3;" horiz-adv-x="1011" 
d="M14 1208q23 33 63.5 53.5t80.5 20.5q60 0 104 -33q37 -28 55 -89.5t24 -128.5t6 -128q0 -9 -0.5 -48t-0.5 -82h70l69 -76l-15 -28h-131l-3 -374q0 -34 10.5 -57t29.5 -37.5t45 -21t57 -6.5q67 0 124.5 34t100 87.5t67.5 118.5t26 127q-30 -12 -59 -12q-27 0 -51 9.5
t-42 27.5t-28.5 43.5t-10.5 56.5q0 33 11 61t31 48.5t48 32t61 11.5q44 0 81 -20.5t65 -53t43.5 -73.5t15.5 -82q0 -101 -36.5 -197.5t-101 -172.5t-154 -122t-196.5 -46q-36 0 -80.5 20.5t-83 52.5t-65 71.5t-26.5 77.5v396h-124l-70 73l15 27h190v271q0 48 -21.5 79.5
t-73.5 31.5q-19 0 -40 -9t-37 -19q-28 41 -43 85z" />
    <glyph glyph-name="uni09F4" unicode="&#x9f4;" horiz-adv-x="1" 
d="M237 1815l63 -30q-98 -91 -194 -182t-193 -184q-23 -23 -47.5 -44.5t-45.5 -46.5q-45 0 -90 2t-90 2q-5 11 -8.5 22t-6.5 22q154 110 306 219t306 220z" />
    <glyph glyph-name="uni09F5" unicode="&#x9f5;" horiz-adv-x="515" 
d="M-115 1185l17 29h521l68 -65l-22 -33q-28 0 -62 -9.5t-65 -27.5t-55.5 -43t-34.5 -54q-9 -26 -9 -62q0 -10 2 -40.5t13.5 -89t28 -122.5t31.5 -126.5t26 -119t11 -100.5q0 -88 -25 -160.5t-73 -124.5t-117 -80t-158 -28l-8 61q68 0 127.5 33t101.5 86q16 50 16 102
q0 2 -0.5 29.5t-11.5 82t-28 109.5t-33.5 110t-28 110t-11.5 110t14 101.5t36.5 89t52 82t60.5 81.5h-315z" />
    <glyph glyph-name="uni200B" unicode="&#x200b;" 
 />
    <glyph glyph-name="endash" unicode="&#x2013;" horiz-adv-x="937" 
d="M114 559q22 46 56 90l615 1l24 -33q-12 -24 -26.5 -46.5t-31.5 -43.5l-615 -1z" />
    <glyph glyph-name="emdash" unicode="&#x2014;" horiz-adv-x="2182" 
d="M114 555q22 46 56 90l1856 1l24 -33q-12 -24 -26.5 -46.5t-31.5 -43.5l-1856 -1z" />
    <glyph glyph-name="quoteleft" unicode="&#x2018;" horiz-adv-x="620" 
d="M279 1483l27 -37q-38 -34 -65 -78t-27 -97q0 -22 6.5 -43.5t19 -39.5t30 -31.5t39.5 -19.5q1 -5 1 -10v-11q0 -13 -3 -25q-24 -35 -63 -56.5t-82 -21.5q-26 5 -47 23.5t-36 43.5t-23.5 51.5t-8.5 47.5q0 52 19.5 98.5t51.5 85.5t74 70t87 50z" />
    <glyph glyph-name="quoteright" unicode="&#x2019;" horiz-adv-x="620" 
d="M117 1453q0 6 0.5 12.5t2.5 12.5q5 14 21.5 28t37 25.5t41.5 18.5t35 7q29 0 52 -17t39 -42t25 -54t9 -54q0 -52 -19.5 -98.5t-51.5 -85.5t-74 -69.5t-87 -50.5l-27 37q38 34 65 78t27 97q0 22 -6.5 43.5t-19 39.5t-30 31.5t-39.5 19.5q-1 5 -1 11v10z" />
    <glyph glyph-name="quotesinglbase" unicode="&#x201a;" horiz-adv-x="624" 
d="M100 77q0 32 12.5 61t34 51t50 35t61.5 13q45 0 80.5 -20t59.5 -52t36.5 -72.5t12.5 -81.5q0 -58 -21 -112t-56.5 -100.5t-81.5 -83t-97 -59.5l-19 40q161 104 169 295q-21 -18 -52.5 -38t-60.5 -20q-27 0 -50.5 13t-41 33.5t-27 46t-9.5 51.5z" />
    <glyph glyph-name="quotedblleft" unicode="&#x201c;" horiz-adv-x="1126" 
d="M519 1179q0 52 19.5 98.5t51.5 85.5t74 70t87 50l27 -37q-38 -34 -65 -78t-27 -97q0 -22 6.5 -43.5t19 -39.5t30 -31.5t39.5 -19.5q1 -5 1 -10v-11q0 -13 -3 -25q-24 -35 -63 -56.5t-82 -21.5q-26 6 -47.5 24.5t-36.5 43t-23 51t-8 47.5zM279 1483l27 -37
q-38 -34 -65 -78t-27 -97q0 -22 6.5 -43.5t19 -39.5t30 -31.5t39.5 -19.5q1 -5 1 -10v-11q0 -13 -3 -25q-24 -35 -63 -56.5t-82 -21.5q-24 6 -45 25t-36.5 43t-24.5 50.5t-9 47.5q0 52 19.5 98.5t51.5 85.5t74 70t87 50z" />
    <glyph glyph-name="quotedblright" unicode="&#x201d;" horiz-adv-x="1126" 
d="M577 1453q0 6 0.5 12.5t2.5 12.5q5 14 21.5 28t37 25.5t41.5 18.5t35 7q29 0 52 -17t39 -42t25 -54t9 -54q0 -52 -19.5 -98.5t-51.5 -85.5t-74 -69.5t-87 -50.5l-27 37q38 34 65 78t27 97q0 22 -6.5 43.5t-19 39.5t-30 31.5t-39.5 19.5q-1 5 -1 11v10zM120 1478
q5 14 21.5 28t37 25.5t41.5 18.5t35 7q29 0 52 -17t39 -42t25 -54t9 -54q0 -52 -19.5 -98.5t-51.5 -85.5t-74 -69.5t-87 -50.5l-27 37q38 34 65 78t27 97q0 22 -6.5 43.5t-19 39.5t-30 31.5t-39.5 19.5q-1 5 -1 11v10q0 6 0.5 12.5t2.5 12.5z" />
    <glyph glyph-name="quotedblbase" unicode="&#x201e;" horiz-adv-x="1111" 
d="M623 73q0 32 12.5 61t33.5 51t49.5 34.5t61.5 12.5q46 0 81.5 -19t59.5 -50t36 -71t12 -82q0 -65 -19.5 -118.5t-54 -98t-81.5 -79.5t-102 -62l-19 37q84 48 125.5 120t43.5 168q-28 -19 -52.5 -34t-60.5 -15q-70 0 -98 40.5t-28 104.5zM301 232q45 0 80 -20t59.5 -52
t37 -72t12.5 -81q0 -58 -21 -112t-56.5 -100.5t-82 -83.5t-97.5 -59l-18 40q161 103 169 296q-10 -9 -24 -19.5t-29 -19.5t-30.5 -15t-29.5 -6q-27 0 -50.5 13t-41 33.5t-27 46.5t-9.5 52q0 32 12.5 61t34 51t50.5 34.5t61 12.5z" />
    <glyph glyph-name="dagger" unicode="&#x2020;" horiz-adv-x="1058" 
d="M217 1035q25 0 51 -12.5t48 -22.5q46 -21 92.5 -29t96.5 -10q0 66 -10 132t-33 129q-10 27 -20.5 54.5t-10.5 56.5q0 39 25 67.5t66 28.5q20 0 36.5 -9t28.5 -23t18.5 -32.5t6.5 -36.5q0 -29 -13.5 -62t-24.5 -60q-23 -59 -29 -120.5t-6 -124.5q48 5 96 13.5t93 27.5
l52 22q26 11 55 11q42 0 63.5 -26.5t21.5 -65.5q0 -40 -16.5 -64.5t-60.5 -24.5q-31 0 -64 11.5t-67.5 26t-72 26t-78.5 11.5h-5l-12 -1h-5q0 -48 1.5 -100t9.5 -104t24.5 -100.5t46.5 -87.5q-35 -100 -52 -212t-23 -220t-6 -207q0 -8 0.5 -65.5t0.5 -146.5h-36
q0 107 -1.5 215t-10.5 215.5t-27 213.5t-51 209q31 34 49 83t27 102.5t11.5 107t2.5 97.5q-48 0 -89.5 -9.5t-86.5 -26.5q-12 -5 -28 -10.5t-32.5 -10.5t-33 -8.5t-29.5 -3.5q-42 0 -61.5 25t-19.5 64q0 42 25.5 64.5t66.5 22.5z" />
    <glyph glyph-name="daggerdbl" unicode="&#x2021;" horiz-adv-x="1149" 
d="M258 1035q8 0 21 -4t27 -10t27 -12t21 -9q47 -20 94 -27t98 -12q0 61 -10 120t-28 117q-4 12 -10 30.5t-11.5 37.5t-9.5 37t-4 30q0 42 22.5 69t67.5 27t67.5 -29.5t22.5 -71.5q0 -31 -13 -62.5t-24 -59.5q-25 -60 -30.5 -120.5t-5.5 -124.5q50 2 97 11.5t93 29.5
q26 11 51.5 22t54.5 11q42 0 63.5 -25.5t21.5 -66.5q0 -40 -16.5 -64.5t-60.5 -24.5q-33 0 -65.5 11.5t-66.5 26t-70 26t-77 11.5h-12q-7 0 -13 -1q0 -53 1 -101.5t8.5 -95t24 -91.5t48.5 -91q-33 -50 -50 -93t-24 -86.5t-7.5 -90.5t-0.5 -104q50 0 90.5 11.5t76 25.5
t69 25.5t68.5 11.5q40 0 58.5 -27t18.5 -63q0 -37 -23.5 -63t-61.5 -26q-27 0 -51.5 9.5t-48.5 20.5q-48 22 -96.5 31t-99.5 13q0 -66 6 -129t32 -124q5 -11 11.5 -26t12.5 -30.5t10 -30.5t4 -27q0 -39 -26 -69.5t-67 -30.5q-42 0 -67.5 28.5t-25.5 68.5q0 11 4.5 29
t10.5 37.5t12.5 37.5t10.5 30q38 116 38 236q-48 0 -91 -8.5t-86 -29.5q-29 -14 -57.5 -25t-61.5 -11q-42 0 -63 24.5t-21 64.5q0 38 23 62.5t61 24.5q32 0 63 -11t60 -22q43 -16 85 -26t88 -12q0 41 -2 93.5t-10.5 105.5t-26 100t-49.5 76q32 52 49 95.5t25 87t10.5 90.5
t3.5 105q-48 0 -89.5 -9t-86.5 -27q-26 -11 -59.5 -22t-60.5 -11q-40 0 -62 24t-22 63q0 43 25 66t67 23z" />
    <glyph glyph-name="bullet" unicode="&#x2022;" horiz-adv-x="930" 
d="M166 704q0 62 22.5 115.5t61.5 94t92.5 63.5t115.5 23q61 0 113.5 -23.5t91 -64t60.5 -94.5t22 -114q0 -61 -21.5 -115.5t-59.5 -96t-90.5 -65.5t-115.5 -24t-116.5 24t-92.5 65t-61 95.5t-22 116.5z" />
    <glyph glyph-name="ellipsis" unicode="&#x2026;" horiz-adv-x="1977" 
d="M855 94q0 48 33.5 82t81.5 34q24 0 44 -9.5t34.5 -25.5t22.5 -37t8 -44q0 -46 -30.5 -80.5t-78.5 -34.5t-81.5 33.5t-33.5 81.5zM166 94q0 23 9 43.5t24 37t35 26t43 9.5q48 0 80 -34.5t32 -81.5q0 -24 -8.5 -44.5t-23.5 -36.5t-35.5 -25t-44.5 -9t-44.5 9t-35 25
t-23 36.5t-8.5 44.5zM1662 210q22 0 42 -10t35 -26.5t24 -37.5t9 -42q0 -22 -8.5 -43t-23.5 -37t-35 -25.5t-43 -9.5q-24 0 -44.5 9t-35 25t-23 36.5t-8.5 44.5q0 48 31 82t80 34z" />
    <glyph glyph-name="perthousand" unicode="&#x2030;" horiz-adv-x="2153" 
d="M248 -92l912 1369q52 11 101 11l22 -48l-923 -1368q-25 -5 -49.5 -9t-49.5 -4zM447 1280q61 0 114 -22.5t92.5 -62t62.5 -92.5t23 -114q0 -67 -24 -126t-66 -103t-99.5 -69.5t-125.5 -25.5q-61 0 -111 24t-85.5 64t-55 93t-19.5 111q0 63 21 121t60 103t93 72t120 27z
M296 1006q0 -40 13.5 -84.5t39 -82t62 -61.5t82.5 -24q27 0 47.5 19t33.5 46t19.5 57t6.5 52q0 38 -14 84.5t-39.5 87.5t-61.5 69t-80 28q-28 0 -48.5 -21.5t-34 -52t-20 -63t-6.5 -54.5zM878 292q0 62 21 120t59.5 103t92.5 72t120 27q62 0 115.5 -23t93 -63t62 -94
t22.5 -116q0 -67 -24 -125.5t-67 -101.5t-100.5 -68t-125.5 -25q-61 0 -110.5 24.5t-84.5 65t-54.5 93.5t-19.5 111zM1485 292q0 62 21 120t59.5 103t92 72t119.5 27q62 0 115 -22.5t93 -62.5t62.5 -93t22.5 -115q0 -67 -24 -126t-66.5 -103t-100.5 -69t-126 -25
q-61 0 -110.5 24.5t-84.5 65t-54 93.5t-19 111zM1821 87q29 0 49.5 18.5t34 45.5t20 57t6.5 53q0 39 -14 85.5t-39.5 87.5t-62 68.5t-81.5 27.5q-28 0 -48 -22.5t-33 -54t-19.5 -64.5t-6.5 -55q0 -39 13.5 -82.5t39 -80t61.5 -60.5t80 -24zM1215 87q29 0 50 19.5t34 47
t19 58.5t6 54q0 39 -14 85t-40 85.5t-62 66.5t-81 27q-28 0 -48 -22.5t-33 -54t-19 -65t-6 -54.5q0 -39 13.5 -82.5t39 -80t61.5 -60.5t80 -24z" />
    <glyph glyph-name="guilsinglleft" unicode="&#x2039;" horiz-adv-x="800" 
d="M167 473q24 32 63.5 70.5t84 77.5t88 77t76.5 69q21 20 40.5 41t41.5 41q10 9 20.5 17t20.5 18q7 -2 11 -7.5t5 -12.5q-15 -18 -26 -39q-10 -18 -18 -37l-6 -10q-8 -19 -18 -37q-11 -21 -25 -40q-43 -57 -89.5 -110t-86.5 -112q9 -12 32.5 -42.5t53 -70.5t61.5 -83.5
t59 -82t44 -66t17 -35.5q0 -7 -5.5 -14t-12.5 -7l-29.5 27t-74 68t-97.5 90t-101 93t-83.5 76.5t-45.5 40.5z" />
    <glyph glyph-name="guilsinglright" unicode="&#x203a;" horiz-adv-x="727" 
d="M151 785q0 5 5 12h-1q4 7 11 7q20 -12 41 -31.5t41.5 -41t40 -43t37.5 -38.5q57 -57 116 -110.5t118 -109.5l-3 -1q-3 -3 -31 -30t-69.5 -66t-89.5 -83.5t-90.5 -83t-73 -65.5t-36.5 -30l-10 6v-1q-3 4 -3 13q24 49 53 92.5t60.5 85.5t64 83.5t63.5 84.5q-10 13 -32 40.5
t-49.5 63t-56 74t-52.5 73t-39 61.5t-15 38z" />
    <glyph glyph-name="uni25CC" unicode="&#x25cc;" horiz-adv-x="1156" 
d="M596 1089q29 0 57 -5l56 -10l-22 -120q-22 5 -44.5 7.5t-45.5 2.5q-49 0 -92 -10l-21 120q28 7 55.5 11t56.5 4zM154 840q30 49 71 88.5t90 68.5l71 -98q-81 -49 -131 -129zM807 899l72 98q97 -61 160 -157l-103 -70q-25 39 -56.5 72.5t-72.5 56.5zM974 482q11 47 11 92
q0 23 -2.5 45.5t-8.5 45.5l123 22q12 -55 12 -113q0 -57 -12 -113zM96 687l121 -22q-10 -43 -10 -91q0 -49 10 -92l-121 -21q-7 28 -9.5 56t-2.5 57t2.5 57t9.5 56zM936 380l103 -71q-30 -49 -70 -90t-90 -70l-72 102q81 48 129 129zM255 380q50 -80 131 -129l-71 -102
q-98 60 -161 160zM484 75l21 121q47 -11 92 -11q44 0 90 11l22 -121q-58 -14 -113 -14q-29 0 -57 3t-55 11z" />
    <glyph glyph-name="asciicircum" horiz-adv-x="1077" 
d="M446 1182l108 53l33 -16l303 -639l-63 -169l-47 11l-243 617h-18l-212 -617l-142 -52l-38 34z" />
    <glyph glyph-name="bn_k_uni043A" horiz-adv-x="1277" 
d="M-93 1214h1280l67 -65l-21 -33h-463v-69q73 -6 144 -33t127.5 -73.5t91 -110.5t34.5 -144q0 -34 -8 -65t-25.5 -54.5t-44 -37.5t-64.5 -14q31 -37 45.5 -86t14.5 -89q0 -13 -3.5 -45.5t-35 -69.5t-97.5 -37q-42 0 -69 27t-27 69q0 48 28 73.5t63 25.5q37 0 64 -28
q7 8 10 17.5t3 19.5q-19 33 -47 57t-61 40.5t-69.5 25t-73.5 9.5v-360q0 -26 0.5 -73t2.5 -97.5t7 -95t14 -64.5l-46 -36l-68 64q-24 56 -70 112.5t-104.5 103t-124 76.5t-127.5 33l-119 168q25 30 53.5 56.5t59.5 50.5q-23 5 -46.5 9t-47.5 6l-146 207q63 72 138 132.5
t159 106.5t175.5 77t186.5 44v72h-711l-66 71zM770 650q40 -4 78 -14.5t73 -30.5q-1 4 -1 12q0 47 31 75.5t71 28.5q31 0 58 -18q21 21 21 53q0 29 -18.5 51t-48.5 39t-67 28.5t-74 19t-69.5 10.5t-53.5 3v-257zM197 629q42 -20 80.5 -44t76.5 -50q72 44 150 74.5t163 39.5
v252q-54 -9 -122 -36t-135 -64t-124 -82t-89 -90zM672 -6q-2 32 -3.5 72t-1.5 87v363q-44 -8 -93 -25.5t-95 -43.5t-85.5 -59.5t-63.5 -72.5q54 -22 102.5 -57.5t91 -78t80 -90t68.5 -95.5z" />
    <glyph glyph-name="bn_k_uniA99B" horiz-adv-x="1207" 
d="M-110 1187l17 27h972q27 12 51.5 29t41 39t20 39.5t3.5 26.5q0 20 -8 41q-14 12 -33 18.5t-39.5 10t-41.5 4.5t-39 1q-136 0 -269.5 -12.5t-269.5 -12.5q-46 0 -89 5t-82.5 19.5t-73.5 39.5t-62 65q-24 34 -31.5 67t-7.5 60q0 12 2.5 37.5t19 62t43.5 66.5l56 -49
q-24 -17 -42 -42t-22 -55q11 -43 43.5 -69t74.5 -39.5t87 -17.5t82 -4q120 0 238 7.5t238 7.5q70 0 136.5 -31t111.5 -80.5t54.5 -89.5t9.5 -57q0 -44 -25 -87h61l67 -65l-21 -33h-438q10 -23 18 -45.5t14 -45.5q68 -4 132 -29.5t113.5 -68t79.5 -102t30 -132.5
q0 -37 -11 -71.5t-32 -61.5t-52 -43t-71 -16q-24 0 -47.5 9t-41.5 24.5t-29.5 37.5t-11.5 47q0 28 11 49t28.5 35.5t40.5 22t47 7.5q42 0 74 -19q16 27 16 50q0 5 -2.5 21.5t-22.5 38t-50.5 38t-64 27.5t-65.5 16.5t-53 6.5q0 -83 -20.5 -155t-54 -136.5t-76.5 -123.5
t-89 -116t-90.5 -113.5t-80.5 -116.5q0 -49 44 -69.5t107 -20.5q44 0 91.5 8.5t90.5 23t77 34t50 40.5q-32 0 -54 18t-31 42t-9 48q0 6 1.5 24.5t19 45t49.5 44.5t81 18q35 0 62.5 -13.5t47 -36.5t30 -52.5t10.5 -62.5q0 -49 -25 -91t-66.5 -76t-96 -60t-113 -43.5
t-117 -26.5t-109.5 -9q-56 0 -97 11q-26 7 -54 38t-51.5 70.5t-39.5 80t-19 65.5q26 74 75 135.5t101 119.5q2 11 2 22q0 28 -16.5 53t-49 42.5t-72 25t-74.5 7.5h-14q-7 0 -13 -1l-140 186q58 50 129 90t148.5 69t157 47t155.5 25q-5 24 -11 47.5t-14 46.5h-651zM249 730
l4 -6q40 -10 76 -29.5t64.5 -47t47.5 -62.5t25 -77q81 87 126 180t49 214q-49 -8 -102 -24t-104.5 -38t-99 -49.5t-86.5 -60.5z" />
    <glyph glyph-name="bn_k_uniA9A0" horiz-adv-x="1704" 
d="M-93 1214h1706l67 -65l-21 -33h-1703l-66 71zM60 842q17 -25 30 -45t25 -39t23.5 -37.5t25.5 -40.5q42 -110 96.5 -219t127 -195.5t168 -140.5t220.5 -54q77 0 149 27t121.5 74.5t62 92t12.5 70.5q0 43 -19 91q-15 22 -36.5 34.5t-46.5 15.5q-26 -32 -64.5 -53.5
t-81.5 -21.5q-25 0 -50 7.5t-45.5 22.5t-33 36.5t-12.5 49.5q0 29 12.5 53.5t32.5 41.5t46 26.5t54 9.5q39 0 75 -12q31 22 54 51t31 56t8 49q0 12 -3.5 35t-27.5 57q-29 20 -65.5 29.5t-77.5 9.5q-46 0 -93.5 -12t-89.5 -35.5t-76 -58t-52 -78.5q22 -15 35 -38.5t13 -49.5
q0 -29 -11 -51t-28.5 -37t-40.5 -23t-47 -8q-26 0 -51 9t-44.5 27t-31.5 46t-12 65q0 86 44.5 149t112.5 105t149 62.5t154 20.5q66 0 128 -17t109.5 -52.5t75.5 -88t28 -123.5v-5q27 27 56 54t61 48.5t68 35t77 13.5q48 0 90.5 -24t74 -61.5t50 -84t18.5 -91.5
q0 -47 -15.5 -91t-44 -77.5t-68.5 -54t-90 -20.5q-69 0 -117 36t-48 110q0 28 9.5 48.5t25 34t35 20t39.5 6.5q23 0 45 -8.5t37 -25t19.5 -34t4.5 -29.5q0 -16 -5 -34q20 3 34.5 17t24 32.5t14 39.5t4.5 39q0 28 -15 53t-38.5 44t-51.5 30t-54 11q-53 0 -101.5 -22.5
t-89 -55.5t-71.5 -70t-50 -65q35 -22 62.5 -55t47 -72t30 -81.5t10.5 -83.5q0 -78 -35.5 -142.5t-92.5 -111t-129.5 -72t-147.5 -25.5q-115 0 -209.5 42.5t-172.5 114t-140.5 165t-112 195.5t-88 205t-68.5 194z" />
    <glyph glyph-name="bn_k_t_uniA9AB" horiz-adv-x="1699" 
d="M-90 1187l17 27h1681l67 -65l-21 -33h-1678zM99 845q17 -24 29 -40.5t22.5 -30.5t21 -28.5t23.5 -35.5q18 -57 47 -125t69.5 -136.5t92 -132.5t113 -113.5t133 -79.5t153.5 -30q90 0 155 27t107 68.5t59 87t17 84.5q0 6 -1.5 31t-26 57t-70.5 40q-26 -30 -64 -51.5
t-80 -21.5q-25 0 -49.5 7.5t-44.5 21.5t-32.5 35t-12.5 49q0 29 12 52.5t32.5 40t46 26t52.5 9.5q35 0 73 -11q30 20 51.5 48.5t29 55.5t7.5 50q0 11 -3 33.5t-24 53.5q-35 17 -74 25.5t-79 8.5q-46 0 -90.5 -11t-83.5 -33t-70 -55t-49 -77q34 -23 40 -47.5t6 -38.5
q0 -20 -9 -45t-37.5 -47.5t-68.5 -22.5q-66 0 -105.5 38t-39.5 105q0 84 44 145.5t111 102.5t146.5 61t150.5 20q64 0 125 -17t108 -51.5t74.5 -85.5t27.5 -117v-9q26 27 55 53.5t60.5 47.5t67 34t75.5 13q47 0 88.5 -23t73 -59.5t49.5 -82t18 -89.5q0 -46 -15 -89t-43 -76
t-67.5 -53t-88.5 -20q-34 0 -63.5 8.5t-51.5 26.5t-35 45t-13 63q0 54 33 80.5t72 26.5q22 0 43 -8t36 -24.5t20.5 -35t5.5 -33.5q0 -13 -3 -28q21 3 35.5 16.5t23.5 31.5t13 38.5t4 38.5q0 30 -15.5 54.5t-38.5 42.5t-51 28t-52 10q-50 0 -96 -20.5t-85.5 -52t-71.5 -67.5
t-54 -68q34 -22 61.5 -54t46.5 -69.5t29.5 -78.5t10.5 -81q0 -80 -41 -150.5t-104 -117.5q0 -51 -0.5 -90t-0.5 -55q0 -47 1.5 -102.5t5 -117t10.5 -111.5l-36 -26q-15 14 -26.5 30t-25.5 31q-11 29 -35 59.5t-53 42.5q-15 6 -35.5 8.5t-44.5 2.5q-38 0 -82 -4.5t-87.5 -10
t-83 -10t-67.5 -4.5q-106 0 -188 30t-134.5 87t-70 123.5t-17.5 125.5q0 37 5 78l28 -14q14 -7 26 -18q0 -17 1 -41.5t3.5 -50t7.5 -48.5t13 -37q16 -27 52.5 -44.5t79 -27.5t85.5 -14t72 -4q56 0 111 8t111 8q100 0 169.5 -39t125.5 -121l9 4q-20 74 -22 149.5t-4 150.5
q-38 -14 -77.5 -19.5t-79.5 -5.5q-112 0 -205 41.5t-169.5 111.5t-137.5 161.5t-110 191t-87 200t-68 189.5z" />
    <glyph glyph-name="bn_k_uniA9A9" horiz-adv-x="1679" 
d="M-114 1187l17 27h1685l67 -65l-21 -33h-214l-3 -1139q0 -38 2 -76t13 -74l-36 -28q-16 14 -30.5 28.5t-27.5 31.5q-29 39 -53 80.5t-59 76.5q-30 30 -68.5 58.5t-82 50t-90 34.5t-91.5 13q-9 0 -17.5 -0.5t-16.5 -1.5q5 -21 5 -43q0 -6 -1 -23.5t-12 -43.5t-30 -47
t-46 -33q-17 -8 -35 -11t-35 -3q-32 0 -62.5 11t-54 31t-37.5 49.5t-14 65.5q0 42 15 73t40 53t59 35t71 20q-36 47 -86 84.5t-108 64t-120.5 40.5t-122.5 14q-25 0 -51 -3l-149 167q68 63 140.5 117t151 97t164 72t178.5 41v118h-768zM820 1116v-117q77 -7 148 -41t125 -89
t86.5 -126t32.5 -151q0 -54 -17 -94.5t-43.5 -67.5t-59 -40t-64.5 -13q-48 0 -84 29.5t-36 88.5q0 26 9.5 46.5t24.5 34.5t34.5 21.5t40.5 7.5q26 0 50 -11.5t41 -36.5q26 18 35 48t9 59q0 30 -18 57.5t-47.5 50.5t-66 42t-73 32.5t-70.5 21.5t-57 10l2 -418q0 -38 -0.5 -58
t-0.5 -24q0 -33 5 -67q68 -3 140 -30.5t138 -71.5t120.5 -99.5t87.5 -114.5l6 2q-5 44 -6.5 87.5t-1.5 87.5l7 944h-497zM716 388l10 3q-1 31 -3.5 62t-2.5 62v355q-64 -13 -123 -38t-114.5 -58t-107.5 -71.5t-102 -78.5q59 -11 120 -33t119 -52.5t110 -68.5t94 -82z" />
    <glyph glyph-name="bn_k_uniA9AD" horiz-adv-x="1381" 
d="M-110 1187l17 27h1382l67 -65l-21 -33h-475v-98q92 -3 179.5 -35t155.5 -89.5t110 -138t42 -180.5q0 -49 -13 -96t-40 -84t-67.5 -59.5t-95.5 -22.5q-26 0 -50 11t-43 29.5t-30 42.5t-11 50q0 31 11 54.5t29 40t41 25t47 8.5q29 0 57 -13.5t45 -42.5q32 24 42 54.5
t10 68.5q0 54 -39 98.5t-99.5 76t-135 50t-145.5 21.5l3 -759q0 -66 3 -132t19 -131q-15 -14 -34 -23q-14 12 -27 24t-26 25v2l-1 -1q-12 44 -24 78t-29 63.5t-40 57t-57 58.5q-23 -10 -38.5 -28t-24.5 -39.5t-11 -40t-2 -30.5t1 -23l-38 -9q-11 26 -24.5 55.5t-30.5 57.5
t-37 52.5t-44 41.5q-35 8 -62 8q-48 0 -86 -17.5t-64 -45t-37 -56.5t-11 -54q0 -6 2 -24t21 -41.5t57 -32.5q-6 21 -6 38q0 10 3.5 27t19 34.5t38 27t46.5 9.5q22 0 43 -8t37.5 -24.5t26.5 -42t10 -60.5q0 -27 -16.5 -47t-40.5 -33.5t-51.5 -20t-49.5 -6.5q-52 0 -92.5 26.5
t-68.5 67t-42.5 89.5t-14.5 95q0 49 16.5 90t46 70t70.5 45.5t90 16.5q36 0 69.5 -16t62.5 -41t52 -55.5t39 -59.5q11 32 32 61t54 40q38 -4 67 -24t51.5 -48.5t39 -61.5t28.5 -65l4 1q-7 23 -7 47v48q-30 82 -85.5 143.5t-126.5 103.5t-153 64.5t-165 25.5l-153 196
q63 65 142 123.5t167 104.5t181 76t184 37v99h-810zM293 628l4 -5q70 -28 139 -63.5t131 -80.5t114 -101t88 -125l6 2v11q0 11 -2 22.5t-3 22.5q-2 15 -2 30v30l-1 508q-66 -10 -131 -32t-126.5 -54t-116.5 -73.5t-100 -91.5z" />
    <glyph glyph-name="bn_k_tt_uniA9AB" horiz-adv-x="1216" 
d="M-93 1214h971q27 12 51.5 29t41 39t20 39.5t3.5 26.5q0 20 -8 41q-14 12 -33 18.5t-39.5 10t-41.5 4.5t-39 1q-136 0 -269.5 -12.5t-269.5 -12.5q-46 0 -89.5 5t-82.5 19.5t-73.5 39.5t-61.5 65q-24 34 -31.5 67t-7.5 60q0 12 2.5 37.5t19 62t43.5 66.5l56 -49
q-24 -17 -42 -42t-22 -55q11 -43 43.5 -69t74.5 -39.5t87 -17.5t82 -4q120 0 238 7.5t238 7.5q71 0 135.5 -29t107.5 -77t52.5 -89.5t9.5 -63.5q0 -42 -18 -86h70l67 -65l-21 -33h-446q10 -23 18 -45.5t14 -45.5q68 -4 132 -29.5t113.5 -68t79.5 -102t30 -132.5
q0 -37 -11 -71.5t-32 -61.5t-52 -43t-71 -16q-24 0 -47.5 9t-41.5 24.5t-29.5 37.5t-11.5 47q0 28 11 49t28.5 35.5t40.5 22t47 7.5q42 0 74 -19q18 30 18 55q0 16 -12.5 41.5t-53 50.5t-93 38t-94.5 13h-7q0 -83 -20 -155t-53.5 -136t-76.5 -122t-88.5 -115t-90.5 -114
t-82 -119q0 -50 41 -70t101 -20q45 0 95.5 9.5t95.5 25t79.5 34.5t47.5 37q-32 0 -54 18t-31 42t-9 48q0 6 1.5 24.5t19 45t49.5 44.5t81 18q35 0 62.5 -13.5t47 -36.5t30 -52.5t10.5 -62.5q0 -60 -32.5 -106.5t-79.5 -80.5v-339q0 -57 3.5 -114t12.5 -114q-14 -15 -36 -27
q-12 17 -26.5 31t-25.5 31t-16 37t-17 37q-23 34 -66 45t-94 11q-48 0 -95.5 -5t-82.5 -5q-85 0 -154 30.5t-118 83t-76 124t-27 154.5q0 62 15 120q32 -16 51 -42q-2 -30 -4.5 -52.5t-2.5 -39.5q0 -9 1 -25.5t9.5 -41.5t29.5 -50q45 -55 98 -76t110.5 -26.5t116.5 -5.5
t115.5 -12.5t107.5 -47.5t92 -110l9 4q-12 35 -17.5 83t-7 93.5t-1.5 83.5q0 12 0.5 43t0.5 69q-28 -11 -68.5 -22.5t-86 -20.5t-92.5 -15t-89 -6q-46 0 -81 9q-26 7 -54 38t-51.5 70.5t-39.5 79.5t-19 66q26 74 75 135.5t101 119.5q2 11 2 22q0 28 -16.5 53t-49 42.5
t-72 25t-74.5 7.5h-14q-7 0 -13 -1l-140 186q58 50 129 90t148.5 69t157 47t155.5 25q-5 24 -11 47.5t-14 46.5h-651l-66 71zM253 724q40 -10 76 -29.5t64.5 -47t47.5 -62.5t25 -77q81 87 126 180t49 214q-49 -8 -102 -24t-104.5 -38t-99 -49.5t-86.5 -60.5z" />
    <glyph glyph-name="bn_k_ssa" horiz-adv-x="1584" 
d="M-110 1187l17 27h1589l67 -65l-21 -33h-476l-1 -209q24 4 54 4q72 0 140 -27.5t121 -75.5t85 -111.5t32 -135.5q0 -43 -11 -85.5t-33.5 -76t-57 -54t-81.5 -20.5q-28 0 -52.5 12t-43 32t-29 46.5t-10.5 54.5q0 33 12 60t31.5 46t45.5 29.5t53 10.5q38 0 72 -21
q16 18 18 46t-5 50q-45 54 -93 73t-102 19q-35 0 -72 -5.5t-75 -13.5l2 -660q0 -35 1 -70t8 -70q-8 -7 -16.5 -13.5t-18.5 -11.5q-17 16 -33 32l-33 33q-13 56 -38 110t-61 99t-82.5 77.5t-103.5 47.5q-10 -26 -28.5 -46.5t-42 -34.5t-50 -21.5t-52.5 -7.5q-30 0 -56.5 13.5
t-46 35.5t-31 50.5t-11.5 59.5q0 40 15 70t39.5 50.5t56 30.5t64.5 10q35 0 65 -10q3 23 2 52t-7 58t-16.5 54.5t-26.5 41.5q-13 14 -32.5 23.5t-42.5 15.5t-47.5 9t-47.5 3q-27 0 -48 -3q-4 -63 -41.5 -105.5t-100.5 -42.5q-69 0 -106 43.5t-37 112.5q0 36 14 67t38 53
t55 34.5t65 12.5q-10 31 -30 54.5t-45.5 41t-54 30.5t-56.5 23h-90zM253 1116q30 -31 48 -70t26 -82q69 -17 139.5 -61t127.5 -108t93.5 -145t36.5 -172q86 -65 143.5 -153t97.5 -188l4 2q-8 52 -9.5 104t-1.5 104l2 389q-12 -3 -23.5 -4t-22.5 -1q-38 0 -73 13t-66 36
q-29 22 -62 62.5t-60 88t-41.5 97t-6.5 88.5h-352zM705 950q26 -45 71.5 -64.5t94.5 -19.5q23 0 46.5 4t44.5 11l4 235h-221q-29 -34 -38 -78t-2 -88z" />
    <glyph glyph-name="bn_k_ss_uniA9A4" horiz-adv-x="1654" 
d="M-110 1187l17 27h1657l67 -65l-21 -33h-507l-1 -209q10 1 19.5 1.5t20.5 0.5q80 0 153.5 -25.5t129 -72t88.5 -110t33 -140.5q0 -43 -11 -85t-34.5 -75.5t-59 -54t-84.5 -20.5q-29 0 -54.5 12t-44.5 32t-30 46.5t-11 54.5q0 33 12.5 59.5t33 45.5t47 29.5t54.5 10.5
q39 0 75 -21q16 18 17 35t1 23q0 21 -5 38q-45 51 -99.5 72t-114.5 21q-34 0 -68 -5.5t-69 -14.5l-2 -679v-61q0 -37 2 -76t6 -74t11 -57q-9 -8 -18 -14t-20 -11q-17 11 -31.5 25t-28.5 28q-13 41 -38.5 81.5t-60 73t-76 52.5t-87.5 20q-15 0 -29.5 -3.5t-27.5 -11.5
q51 -24 64.5 -58.5t13.5 -59.5q0 -18 -9 -48.5t-49 -62t-104 -31.5q-34 0 -62 18t-48 46t-31 61t-11 63q0 47 20 83.5t52.5 62t74 38.5t84.5 13q50 0 95 -16t84 -43.5t71.5 -64t55.5 -78.5l5 2q-5 32 -5 63.5t-9 63.5q-14 48 -41.5 91.5t-64.5 79t-81.5 61.5t-92.5 38
q-11 -25 -30.5 -45t-44 -33t-51.5 -20t-54 -7q-31 0 -58 12t-47.5 32.5t-32.5 48t-12 58.5q0 39 16 67.5t41.5 47.5t58 28.5t66.5 9.5q37 0 67 -10q3 16 3 35q0 7 -1 24.5t-7 45t-17 51.5t-27 39q-30 26 -78 38t-96 12q-14 0 -27.5 -1t-25.5 -3q0 -33 -10 -63t-28.5 -52.5
t-46 -36t-63.5 -13.5q-70 0 -109 44t-39 112q0 34 13.5 63.5t37.5 52t57.5 36t72.5 14.5q-8 29 -32.5 56.5t-57 48.5t-68 34t-65.5 13q-17 0 -34 -1t-28 -1zM338 972q70 -9 145.5 -50.5t137 -104.5t95.5 -135.5t34 -143.5q0 -13 -1 -27q89 -61 148.5 -143.5t101.5 -180.5
l4 2q-8 48 -9.5 96.5t-1.5 96.5l2 354q-25 -6 -51 -6q-38 0 -74 13t-69 37q-30 22 -64 62.5t-62 88t-40.5 88t-12.5 67.5q0 16 3 30h-362q31 -30 49 -66t27 -78zM727 950q27 -46 72.5 -65t96.5 -19q26 0 51.5 4t48.5 12l4 234h-231q-30 -34 -37.5 -68.5t-7.5 -60.5
q0 -18 3 -37z" />
    <glyph glyph-name="bn_k_ss_uniA9A9" horiz-adv-x="1829" 
d="M-110 1187l17 27h1831l67 -65l-21 -33h-158l-4 -1164q0 -47 3.5 -93.5t15.5 -91.5l-35 -25q-20 17 -38 35.5t-37 36.5q-22 72 -72.5 125.5t-116.5 88.5t-140.5 52t-144.5 17q0 -70 -40.5 -111t-112.5 -41q-31 0 -58 11.5t-46.5 31t-31 46.5t-11.5 58q0 34 12.5 60
t33.5 45t48.5 30.5t58.5 17.5q-35 69 -98.5 113t-139.5 55q-6 -27 -24 -49t-42.5 -37t-52.5 -23.5t-54 -8.5q-29 0 -54.5 12.5t-44.5 32.5t-30 47t-11 55q0 37 14.5 65t38.5 46.5t55 28t63 9.5q31 0 61 -9q2 16 2 35q0 6 -0.5 22.5t-6.5 43.5t-16 51t-25 38q-27 25 -73.5 37
t-91.5 12q-13 0 -24.5 -1t-22.5 -3q-4 -58 -40.5 -98t-96.5 -40q-65 0 -102 41t-37 104q0 34 14 62.5t37 49t53 32t63 11.5q-15 42 -54.5 73.5t-79.5 48.5q-2 1 -8.5 3.5t-13.5 5t-13 4.5t-8 2h-91zM1029 906q18 5 36.5 6.5t36.5 1.5q63 0 121 -23.5t102 -65t70 -97.5
t26 -122q0 -40 -10.5 -80.5t-32 -72.5t-55 -52.5t-79.5 -20.5q-28 0 -53 11t-44 29.5t-30 43.5t-11 53q0 31 12 57t31.5 44.5t44.5 29t52 10.5q38 0 71 -21q12 12 17.5 27.5t5.5 32.5q0 12 -3 24q-35 43 -76 59t-86 16q-35 0 -72 -7t-74 -16v-525q72 -9 142.5 -35
t134.5 -66.5t118 -93t93 -113.5l8 4q-7 48 -9 88t-2 74v27l10 983h-494zM245 1116q29 -29 46 -64.5t26 -75.5q72 -15 143.5 -56.5t127 -102t85 -128t29.5 -131.5q0 -15 -2 -31q77 -36 130.5 -97t96.5 -133l7 4q-5 31 -6 61.5t-1 61.5v329q-15 -3 -31 -3q-26 0 -51.5 8.5
t-49.5 23.5q-32 20 -67 60t-63 87.5t-39.5 87t-11.5 65.5q0 18 4 34h-373zM929 879l5 237h-182q-20 -25 -28 -58.5t-8 -65.5q3 -31 17 -54t35 -38t47 -22t54 -7q15 0 30.5 1.5t29.5 6.5z" />
    <glyph glyph-name="bn_k_ss_uniA9A7" horiz-adv-x="1565" 
d="M-93 1214h1568l67 -65l-21 -33h-421l-1 -192q13 2 25 2h25q76 0 145.5 -22t122.5 -63.5t84.5 -100t31.5 -131.5q0 -40 -11.5 -78.5t-34 -68.5t-56 -48.5t-77.5 -18.5q-27 0 -52.5 10t-45 27.5t-31 42t-11.5 52.5q0 31 12 55.5t31.5 41t45 25.5t52.5 9q39 0 73 -18
q17 18 18 32t1 19q0 19 -5 37q-42 46 -98.5 65t-116.5 19q-33 0 -65.5 -5t-63.5 -14l-5 -853q0 -41 3.5 -73t17.5 -71l-35 -25q-17 13 -40.5 33t-34.5 38q-14 23 -25.5 45t-31.5 41q-42 39 -94.5 55.5t-107.5 16.5h-13q-7 0 -13 -1l-98 135q58 61 133 100.5t158 55.5
q-38 43 -86 73.5t-104 43.5q-10 -24 -29 -42.5t-43 -31.5t-50.5 -20t-50.5 -7q-29 0 -55.5 11.5t-46.5 31.5t-32 46.5t-12 55.5q0 37 15.5 64.5t40 46t56 27.5t64.5 9q35 0 65 -10q2 17 2 36q0 6 -0.5 22.5t-6.5 42.5t-16.5 49t-26.5 38q-26 24 -75 37t-93 13q-30 0 -51 -6
q0 -22 -11 -45.5t-30.5 -43.5t-45.5 -33t-56 -13q-64 0 -103.5 38.5t-39.5 103.5q0 35 15 63t39 47.5t55 30.5t63 11q-16 47 -57.5 76t-85.5 46q-25 11 -40 14t-42 3q-21 0 -43 -1t-39 -1l-66 71zM360 977q65 -14 135 -51t128.5 -94t96 -132t37.5 -166q67 -45 118.5 -105.5
t89.5 -130.5l29 1q-2 19 -2 37v37l2 396q-12 -3 -24 -4t-24 -1q-78 0 -142 44q-30 20 -64.5 56t-62 79t-40 80t-12.5 63q0 16 3 30h-343q31 -29 48.5 -63.5t26.5 -75.5zM728 964q27 -42 75.5 -59t100.5 -17q25 0 48.5 3.5t43.5 9.5l4 215h-230q-29 -31 -37 -62t-8 -54
q0 -18 3 -36zM759 86q69 -18 128.5 -57t100.5 -99l9 5q-10 45 -10 94v16l4 154l-12 10q-59 -20 -117 -49t-103 -74z" />
    <glyph glyph-name="bn_k_uniA9B1" horiz-adv-x="1563" 
d="M-94 1214h1565l67 -65l-21 -33h-159l9 -1034q1 -64 6 -124t10 -124q-12 -7 -23.5 -13.5t-22.5 -15.5q-26 28 -49 57t-46 59l3 142q-11 22 -31.5 52t-46 57t-53.5 46t-55 19q-49 0 -94 -24t-87.5 -59.5t-85 -77.5t-86.5 -77.5t-91.5 -59.5t-100.5 -24q-47 0 -93 28
t-87 68.5t-75.5 86t-58.5 81.5l75 55q9 -23 28 -53.5t44 -58t53 -46.5t56 -19q44 0 80.5 15.5t69 39t63 51t62.5 50.5q-24 98 -80 156.5t-129.5 91.5t-158 46.5t-166.5 19.5l-144 148q60 63 134.5 116.5t157 95.5t169.5 72t172 46v111h-731l-66 71zM801 1116l1 -108
q64 -6 129 -31.5t117.5 -67.5t85.5 -100.5t33 -130.5q0 -37 -11 -73.5t-33 -66t-53.5 -48t-72.5 -18.5q-23 0 -44 10t-36.5 26.5t-25 38t-9.5 43.5q0 25 10.5 45t27 34t38.5 21.5t44 7.5q30 0 55 -13q35 31 35 64q0 4 -3 25t-37.5 52t-90.5 51t-119 20h-20q-10 0 -20 -2
v-565l21 -39q16 12 35.5 25t41 23.5t43 17t42.5 6.5q34 0 72.5 -20.5t75 -50.5t66.5 -64t47 -61l11 949h-456zM255 642q59 -18 118 -40t114 -50t105 -64.5t92 -83.5l2 461q-66 -18 -122 -38.5t-107 -46.5t-100 -59.5t-102 -78.5z" />
    <glyph glyph-name="bn_g_ukaar" horiz-adv-x="1436" 
d="M8 1071q21 9 43 9q14 -51 36 -100.5t35 -100.5q23 -88 55 -178t77 -172.5t103 -154.5t132 -125.5t166 -84t204 -30.5q54 0 108 16.5t97.5 48t71 78t27.5 105.5q-14 23 -33 40.5t-40 31.5q-26 -18 -57 -31t-64 -13q-57 0 -84 37.5t-27 89.5q0 60 35 91.5t82 31.5
q27 0 55 -11t52 -34q25 20 42.5 37.5t29 37.5t16.5 44.5t5 56.5q0 14 -15 48t-34.5 72t-38.5 73t-28 51q-29 -67 -51 -136t-35 -141q-17 -2 -34.5 -4t-35.5 -4q-4 49 -24.5 110t-56 114.5t-83.5 90t-107 36.5q-90 0 -167.5 -46t-123.5 -121q17 4 36.5 5.5t39.5 1.5
q54 0 111 -13.5t103.5 -40.5t76 -67.5t29.5 -94.5q0 -48 -24 -98.5t-60.5 -97t-79.5 -85t-82 -63.5l-90 146q32 20 77 51.5t84 70.5t57.5 74.5t18.5 63.5q0 17 -5 34q-42 13 -96 13q-63 0 -125.5 -17.5t-107.5 -47.5q-40 36 -73 83.5t-53 97.5q22 59 62.5 108.5t93 85
t113.5 55.5t125 20q63 0 114.5 -26t92.5 -67.5t71 -93.5t49 -105h7q8 26 18.5 66t19.5 82.5t13.5 75t4.5 52.5q0 10 -1 19l53 21q9 -11 21 -25.5t24 -30t22.5 -31t15.5 -27.5q4 -10 6 -19l3 -12q2 -9 6 -19q16 -46 43.5 -95t54 -98.5t46 -99t19.5 -97.5q0 -59 -32.5 -104.5
t-71.5 -86.5q38 -42 54.5 -96.5t16.5 -109.5q0 -75 -29.5 -136t-79.5 -104.5t-116 -67.5t-139 -24q-147 0 -263 49.5t-206 134t-156.5 196t-114 235t-79 251.5t-51.5 245z" />
    <glyph glyph-name="bn_g_dha" horiz-adv-x="1484" 
d="M21 972q24 60 68 107.5t99.5 80.5t119 50t126.5 17q83 0 155.5 -35t132.5 -91t106 -126t76 -140h6q-1 55 -5 116t-14.5 121.5t-28.5 117.5t-47 105l49 34q26 -31 56 -64t66 -51h439l56 -65l-21 -33h-325q-45 0 -89 3t-89 10q16 -46 24 -91.5t11.5 -91t3.5 -91.5v-94
q12 6 34 16t45.5 19.5t45 17t33.5 7.5q10 0 22.5 -9t24.5 -21.5t22.5 -25t17.5 -19.5q13 -14 31 -32.5t34.5 -39.5t28.5 -43t12 -42q0 -28 -5 -55.5t-9 -55.5q-9 -66 -14 -136.5t-5 -126.5q0 -32 2.5 -93t18 -143t48.5 -139l-45 -46q-33 40 -72 75t-64 82q-7 64 -12.5 140
t-6.5 130.5t-1 83.5q0 49 2 111t11 126q3 25 8.5 49.5t5.5 50.5q0 14 -14.5 25.5t-27.5 11.5q-4 0 -26.5 -11t-50 -25t-52.5 -27t-33 -17l2 -640q0 -19 1.5 -37t3.5 -37q2 -17 5.5 -34t4.5 -34l-39 -31q-18 14 -33.5 30t-31.5 33q-17 63 -63 112t-107 82.5t-129.5 51.5
t-131.5 18h-14q-7 0 -14 -1q-32 41 -65 79t-64 80q56 64 122 127.5t138 121.5t148.5 107t154.5 85q-21 58 -58.5 126t-88 126.5t-112.5 97.5t-132 39q-43 0 -87 -8.5t-82.5 -27.5t-69.5 -49.5t-49 -73.5q32 8 73 13t84 5q44 0 85.5 -7.5t74 -25.5t52.5 -49t20 -79
q0 -52 -29.5 -106.5t-73.5 -104t-94 -90.5t-91 -66l-100 158q21 10 52.5 26.5t65.5 38.5t67 48t57.5 54t35 52.5t10.5 43.5q0 11 -3 21q-13 5 -27 6.5t-28 1.5q-37 0 -77 -10t-79.5 -25t-76 -31.5t-65.5 -28.5q-40 40 -74.5 85t-51.5 100zM530 234q58 -22 110.5 -46.5
t99.5 -56.5t87 -73t72 -96l6 2q0 29 -2.5 58t-2.5 58v465q-107 -60 -197.5 -140.5t-172.5 -170.5z" />
    <glyph glyph-name="bn_g_dh_uniA9AB" horiz-adv-x="1489" 
d="M21 977q24 59 68.5 105.5t100.5 78.5t119 49t125 17q81 0 153.5 -34t133.5 -88.5t108 -123t77 -137.5h6q-1 54 -5.5 113.5t-15.5 119t-29 115.5t-47 103l49 34q26 -31 56 -64t66 -51h439l56 -65l-18 -33h-326q-93 0 -180 13q16 -48 24.5 -91t12 -85.5t4 -86.5t0.5 -93
q12 5 33.5 15t45.5 19.5t45.5 16.5t32.5 7t30.5 -14t41.5 -36t44.5 -48.5t40.5 -51t28 -44t10 -28.5v-2q-7 -50 -14 -111t-12 -126.5t-5.5 -103.5t-0.5 -47q0 -59 6 -118.5t21 -116.5t41 -102l-45 -44q-16 15 -35.5 34t-38.5 39t-35.5 40.5t-27.5 38.5q-16 150 -16 300
q0 184 24 368v3q0 13 -16 22.5t-29 9.5q-3 0 -26 -10.5t-50 -24t-51.5 -26t-32.5 -16.5l-4 -678q0 -57 3.5 -114t12.5 -114q-14 -15 -36 -27q-16 17 -27 30.5t-25 31.5q-10 40 -28 65.5t-42 40t-53.5 19.5t-61.5 5q-44 0 -91.5 -5t-94.5 -5q-106 0 -184.5 45t-125.5 117.5
t-56 135t-9 95.5q0 59 15 119q32 -16 51 -42q-5 -22 -8 -42.5t-3 -36.5q0 -11 2 -30.5t11.5 -46.5t30.5 -53q44 -55 97.5 -76t110.5 -26.5t116.5 -5.5t115.5 -12.5t107.5 -47.5t92.5 -110l9 4l-13 39q-20 60 -67 107.5t-107 80.5t-127 50t-128 17h-15q-8 0 -16 -1
q-32 39 -65 76.5t-64 77.5q54 62 121 123.5t140 118t150.5 104t152.5 80.5q-22 58 -60 124t-88.5 122t-112 93t-131.5 37q-42 0 -86 -8t-83 -26.5t-70.5 -47.5t-49.5 -71q35 8 76.5 14t84.5 6q44 0 85 -7.5t73 -26t51.5 -49t19.5 -76.5q0 -51 -30 -103.5t-73.5 -100
t-93.5 -86.5t-91 -64l-101 152q20 9 51 25.5t65.5 37.5t68 46.5t59 53t35.5 50.5t10 40q0 11 -3 22q-11 5 -24.5 6.5t-27.5 1.5q-36 0 -78 -10t-83 -24.5t-78 -30.5t-63 -27q-41 38 -74.5 82t-51.5 97zM531 263q57 -21 109.5 -45t99.5 -55t87.5 -70.5t73.5 -92.5l6 2
q0 28 -2.5 56t-2.5 56v450q-106 -57 -196.5 -135.5t-174.5 -165.5z" />
    <glyph glyph-name="bn_g_uniA9A4" horiz-adv-x="1201" 
d="M21 972q23 56 66 103t97.5 81t116 52.5t120.5 18.5q101 0 178 -41t135 -107.5t99 -149.5t69 -167l9 4q0 63 -2.5 133t-12.5 139.5t-29.5 135.5t-54.5 121l49 34q25 -32 55.5 -64t66.5 -51h128l90 -75l-18 -23h-28q-45 0 -100 4t-100 9q31 -84 34 -171.5t3 -175.5l2 -469
q0 -86 2 -171.5t12 -170.5l-36 -26l-2 3v-1q-27 34 -57 66q-12 40 -48 89t-84.5 92t-104.5 72.5t-108 29.5q-26 0 -49.5 -8t-43.5 -26q50 -23 66.5 -60t16.5 -66q0 -16 -7.5 -46t-48.5 -63t-112 -33q-39 0 -70 16.5t-53 44t-34 62t-12 70.5q0 51 25 93t64.5 72.5t88 47
t94.5 16.5q69 0 134 -27t120.5 -71.5t98.5 -102t70 -117.5l5 2q-20 72 -24 142t-4 131v27l2 210q0 20 -6 44t-15 48.5t-19.5 48t-18.5 41.5q-23 51 -57 105.5t-77.5 100t-97 75t-115.5 29.5q-76 0 -139 -37.5t-105 -100.5q36 6 82 6q47 0 97 -8.5t90.5 -29.5t66.5 -55.5
t26 -86.5q0 -54 -30.5 -106t-75 -99t-95 -86.5t-91.5 -66.5l-100 158q20 10 51.5 26t66.5 37.5t69 46.5t60 52.5t36 51t10 40.5q0 11 -3 22q-27 8 -54 8q-36 0 -76 -10t-78 -25.5t-72 -33.5t-60 -35q-46 47 -83.5 93t-60.5 109z" />
    <glyph glyph-name="bn_g_uniA9A9" horiz-adv-x="1562" 
d="M444 1226q92 0 168 -42t134 -108.5t97.5 -148.5t58.5 -163l8 2v38q0 55 -2 114t-13 116.5t-33 110t-63 94.5l41 43l117 -68h515l90 -75l-17 -23h-200v-1085q0 -20 -0.5 -30.5t-0.5 -15.5q0 -10 1 -22t5 -26.5t12 -32.5q-8 -7 -16.5 -13.5t-18.5 -11.5l-34 30
q-17 15 -34 31q-12 54 -35 105t-58 92.5t-81 70t-105 36.5q-26 -81 -77.5 -115t-117.5 -34q-34 0 -66 13t-56.5 35.5t-39 53t-14.5 65.5q0 43 18.5 75.5t49 55t69.5 34t79 11.5q42 0 79 -12q2 23 2.5 42.5t0.5 28.5q0 20 -1 44.5t-3.5 52t-5.5 45.5q-13 70 -48.5 151
t-89 150t-122.5 115t-150 46q-45 0 -86.5 -12.5t-76 -36t-60 -58t-37.5 -79.5q29 7 61.5 11t67.5 4q47 0 92.5 -9t81.5 -30t58.5 -56t22.5 -86q0 -56 -27 -118t-68 -119.5t-90.5 -106.5t-94.5 -78q-26 41 -47.5 83t-41.5 85q23 10 53.5 32t63 50.5t63.5 63t52.5 69t29 60
t7.5 41.5q0 15 -5 29q-27 8 -53 8q-36 0 -73.5 -11.5t-72.5 -29t-67 -39.5t-56 -43q-49 37 -91.5 80.5t-80.5 91.5q16 75 57.5 135.5t100 103.5t129.5 66.5t145 23.5zM991 818q1 -40 3 -95t2.5 -99t0.5 -73t-0.5 -72t-4.5 -88q43 -22 81 -55.5t70.5 -74t58.5 -85t45 -87.5
l5 3q-5 32 -6.5 65t-1.5 65v894h-63q-59 0 -117 2t-117 11q18 -31 27 -70.5t12.5 -81t3.5 -82.5t1 -77z" />
    <glyph glyph-name="bn_g_uniA9AD" horiz-adv-x="1200" 
d="M21 972q26 60 69 107t97 80t116 50.5t126 17.5q96 0 172 -42t134 -108.5t99.5 -149t66.5 -163.5l9 2v38q0 55 -2 114t-13 116.5t-33 110t-63 94.5l41 43q29 -17 58.5 -34t58.5 -34h153l90 -75l-18 -23h-28q-48 0 -104 3t-103 10q22 -39 31.5 -92.5t12 -102t2.5 -86.5
q0 -19 -1 -56.5t-1 -81.5l1 -432q0 -94 1 -187t24 -185q-8 -8 -17.5 -14.5t-20.5 -11.5q-17 11 -32 24.5t-28 29.5l-1 4q-9 44 -20 88t-27.5 84.5t-42 76t-64.5 63.5q-62 -30 -77 -73.5t-15 -82.5q0 -19 3 -40l-45 -14q-13 31 -30.5 66.5t-41 66t-54 50.5t-68.5 20
q-66 0 -116.5 -26.5t-80.5 -70t-35 -80t-5 -54.5q0 -39 12 -81q15 -10 30.5 -16t32.5 -6t32 7q-11 25 -11 48q0 6 2 22.5t17.5 38t41.5 34t60 12.5q30 0 53 -14t38.5 -36t23.5 -49t8 -54q0 -29 -14.5 -52t-37 -40t-49.5 -26t-53 -9q-64 0 -115.5 29t-87.5 76t-55.5 105.5
t-19.5 117.5q0 51 19 97t52 81t77.5 55.5t96.5 20.5q81 0 140.5 -45.5t98.5 -112.5q14 42 40.5 78.5t67.5 56.5q18 0 38 -6t39.5 -15.5t36.5 -22.5t27 -27q14 -19 27 -48t19 -52l12 2q-4 29 -4 59q0 6 0.5 27t0.5 57v302q0 12 -8 37t-18.5 53.5t-21.5 54.5t-17 38
q-22 48 -55.5 99.5t-76 94t-93.5 70.5t-110 28q-79 0 -142 -36t-108 -101q50 9 102 9q50 0 97 -9.5t83.5 -31.5t59 -58t22.5 -88q0 -53 -31 -105t-76 -98.5t-96 -85t-91 -65.5l-100 158q20 9 51.5 25.5t66.5 37.5t69.5 46t60 53t35.5 51.5t10 40.5q0 11 -3 22q-25 9 -57 9
q-36 0 -75.5 -10t-77 -26t-71.5 -34t-59 -35q-47 43 -84 92.5t-60 109.5z" />
    <glyph glyph-name="bn_gh_uniA9A4" horiz-adv-x="1137" 
d="M-110 1187l17 27h1139l67 -65l-21 -33h-165l3 -946v-76q0 -45 1.5 -91.5t5.5 -90t12 -71.5l-34 -28l-59 53q-11 40 -41 81t-70.5 74.5t-87.5 54.5t-93 21q-26 0 -51 -8t-47 -25q38 -18 58 -44t23 -45t3 -29q0 -19 -8 -43t-29 -47t-52 -37.5t-70 -14.5q-37 0 -68 16
t-52.5 42t-33.5 59.5t-12 68.5q0 50 23 91t60 70t83.5 45t92.5 16q54 0 108 -18t102 -49t87.5 -72.5t64.5 -88.5l11 5q-5 26 -10 51t-14 49q-24 63 -73 111.5t-112 82t-133.5 50.5t-136.5 17q-27 0 -53 -3l-184 190q64 57 130 111t136 103l-6 9q-49 -15 -103 -15
q-48 0 -92 13t-78.5 40t-55 68.5t-20.5 98.5q0 40 11 78.5t33 72.5h-140zM373 821q55 0 106 25t92 60l123 -124q-91 -63 -176.5 -132.5t-161.5 -150.5q145 -40 266 -113.5t210 -197.5l9 3q-5 34 -7 68t-2 68v789h-461q-30 0 -56.5 -13t-46 -35t-31 -50t-11.5 -57
q0 -31 11.5 -57t31.5 -44.5t46.5 -28.5t57.5 -10z" />
    <glyph glyph-name="bn_uni06AD_uni043A" horiz-adv-x="1284" 
d="M-93 1214h1286l67 -65l-21 -33h-154q26 -44 32.5 -77t6.5 -50q0 -26 -10.5 -56.5t-46.5 -55.5t-99 -25q-48 0 -95.5 29t-91 70t-82 86.5t-67.5 78.5h-314q15 -21 24 -45t14 -50q64 0 138.5 -18.5t138.5 -55.5t107.5 -93.5t45.5 -131.5q72 -4 141 -32.5t123.5 -76.5
t88 -113t33.5 -142q0 -39 -11.5 -78.5t-34 -72t-55.5 -52.5t-77 -20q-24 0 -45.5 10.5t-38 28t-26.5 39.5t-10 46q0 29 10 51t25.5 37t36 22.5t41.5 7.5q27 0 51.5 -12.5t39.5 -38.5q17 17 27 39t10 46q0 44 -28.5 78.5t-73 58.5t-97.5 36.5t-101 12.5q-9 0 -17.5 -0.5
t-16.5 -1.5l5 -469q1 -70 8.5 -134t14.5 -96l-32 -22l-81 80q-26 73 -74 129.5t-109.5 95t-133.5 59t-147 22.5l-132 176q53 54 122.5 102.5t146.5 86.5t157.5 63t156.5 32q-3 49 -19.5 87t-42.5 64.5t-60.5 40t-73.5 13.5q-26 0 -53 -6t-55 -20q3 -18 3 -36q0 -27 -9 -63
t-35 -70.5t-65.5 -55.5t-90.5 -21q-27 0 -52.5 11t-45 30t-31 43.5t-11.5 52.5q0 47 22.5 86t57.5 68t78.5 47t85.5 24q-2 19 -13.5 34t-27.5 27.5t-34 22t-33 17.5h-222l-66 71zM698 1116q17 -22 40 -47.5t49.5 -47.5t56 -36.5t59.5 -14.5q35 0 55 13.5t25 30t5 31.5
q0 9 -3 27.5t-17 43.5h-270zM292 386l3 -5q58 -23 114.5 -51.5t107.5 -65t94.5 -81t75.5 -100.5l7 2q-5 26 -6.5 52t-1.5 52l3 394q-52 -10 -107 -26.5t-107.5 -41t-99.5 -56.5t-83 -73z" />
    <glyph glyph-name="bn_uni06AD_k_uniA9AB" horiz-adv-x="1406" 
d="M-93 1214h1407l67 -65l-21 -33h-275q26 -44 32.5 -77t6.5 -50q0 -26 -10.5 -56.5t-46.5 -55.5t-99 -25q-48 0 -95.5 29t-91 70t-82 86.5t-67.5 78.5h-314q15 -21 24 -45t14 -50q64 0 138.5 -18.5t138.5 -55.5t107.5 -93.5t45.5 -131.5q72 -4 141 -32.5t123.5 -76.5
t88 -113t33.5 -142q0 -39 -11.5 -78.5t-34 -72t-55.5 -52.5t-77 -20q-24 0 -45.5 10.5t-38 28t-26.5 39.5t-10 46q0 29 10 51t25.5 37t36 22.5t41.5 7.5q27 0 51.5 -12.5t39.5 -38.5q17 17 27 39t10 46q0 47 -30 81.5t-76 57.5t-100 34.5t-101 11.5h-12q-7 0 -13 -1l3 -614
q0 -72 6.5 -135.5t22.5 -111.5q-15 -15 -39 -27l-59 57q-13 18 -18 39.5t-17 39.5q-23 35 -65 46.5t-92 11.5q-49 0 -97.5 -5.5t-83.5 -5.5q-85 0 -154.5 30t-119 82.5t-76.5 124.5t-27 155q0 60 17 120q15 -8 28 -18.5t23 -24.5q-4 -28 -6 -49t-2 -36q0 -12 1.5 -31
t10.5 -43.5t29 -48.5q44 -53 98 -74.5t112.5 -28.5t119 -8t117.5 -14t107.5 -46t89.5 -104l7 4q-16 88 -62 157.5t-112 118t-146.5 75.5t-166.5 29l-132 176q53 54 122.5 102.5t146.5 86.5t157.5 63t156.5 32q-3 49 -19.5 87t-42.5 64.5t-60.5 40t-73.5 13.5q-26 0 -53 -6
t-55 -20q3 -18 3 -36q0 -27 -9 -63t-35 -70.5t-65.5 -55.5t-90.5 -21q-27 0 -52.5 11t-45 30t-31 43.5t-11.5 52.5q0 47 22.5 86t57.5 68t78.5 47t85.5 24q-2 19 -13.5 34t-27.5 27.5t-34 22t-33 17.5h-222l-66 71zM698 1116q17 -22 40 -47.5t49.5 -47.5t56 -36.5
t59.5 -14.5q35 0 55 13.5t25 30t5 31.5q0 9 -3 27.5t-17 43.5h-270zM292 386l3 -5q58 -23 114.5 -51.5t107.5 -65t94.5 -81t75.5 -100.5l7 2q-5 26 -5.5 52.5t-0.5 52.5v394q-52 -10 -107 -27t-107 -41.5t-99 -56.5t-83 -73z" />
    <glyph glyph-name="bn_uni06AD_k_ssa" horiz-adv-x="2429" 
d="M1176 388q0 39 14 69.5t38 51.5t55.5 31.5t65.5 10.5q19 0 37.5 -3.5t37.5 -9.5q2 17 2 38q0 7 -0.5 25t-6.5 47t-16.5 54.5t-27.5 41.5q-29 27 -78.5 39.5t-97.5 12.5q-14 0 -26.5 -1t-23.5 -3q-2 -31 -13 -58t-30.5 -47t-45.5 -31.5t-58 -11.5q-70 0 -109 44t-39 112
q0 36 14.5 67t39 53t57 34.5t67.5 12.5q-10 29 -29.5 51.5t-43.5 40t-51.5 30.5t-54.5 23q19 -38 19 -72q0 -15 -8 -46t-44 -65t-88 -53t-103 -19q-47 0 -92 13.5t-85 36.5q-13 -27 -23 -63.5t-12.5 -66.5t-2.5 -51q0 -17 2 -44.5t14 -56.5q14 -3 27 -3q35 0 66.5 17
t59.5 42t51.5 54t41.5 54l40 6q72 -47 117 -111.5t58 -119.5t13 -96q0 -27 -7.5 -74.5t-47.5 -101t-109 -86.5t-168 -33q-92 0 -164 40.5t-127.5 106.5t-96.5 151t-70.5 175t-49 177.5t-32.5 157.5q18 7 33 7q7 0 10 -1l69 -170q12 -44 29.5 -98.5t41.5 -110.5t56.5 -109.5
t75 -95t95.5 -66.5t119 -25q53 0 99 20t81 51.5t56.5 70t24.5 62t3 33.5q0 27 -12 55t-48 46q-23 -24 -51 -49.5t-59 -46t-65 -33.5t-70 -13q-35 0 -71 23t-65.5 57.5t-50 74t-23.5 71.5q-3 26 -3 53q0 38 8 89.5t37 108.5q-25 25 -47.5 48.5t-48 42t-55.5 29.5t-69 11h-176
l-66 71l17 27h244q43 0 75 -16t59 -41t51 -54t50 -56q21 30 53 60.5t71.5 55t85 39.5t93.5 15q23 0 51 -5l1 2h1597l67 -65l-21 -33h-490l-1 -209q10 1 20 1.5t21 0.5q74 0 147 -24.5t130.5 -69.5t93 -109.5t35.5 -144.5q0 -41 -11 -83t-33.5 -75.5t-57.5 -55t-82 -21.5
q-30 0 -56.5 11.5t-46 31t-31 46t-11.5 56.5q0 33 12.5 59.5t33 45.5t47 29.5t54.5 10.5q39 0 75 -21q15 19 16.5 36t1.5 24q0 19 -5 36q-47 54 -97 73t-104 19q-36 0 -74 -5.5t-79 -13.5l-1 -619q0 -18 0.5 -41.5t2 -48.5t4 -49t6.5 -41q-8 -7 -17 -13.5t-19 -11.5
q-18 16 -35 32t-34 33q-13 56 -38.5 110t-63 99t-85.5 77.5t-107 47.5q-10 -25 -29.5 -45.5t-43.5 -35t-51.5 -22t-54.5 -7.5q-31 0 -58.5 13.5t-48 35.5t-32 50.5t-11.5 59.5zM489 980q52 -26 107 -26q96 0 177 84q30 32 30 52q0 5 -7 17.5t-46 12.5q-27 0 -62.5 -9.5
t-72.5 -27.5t-70 -44t-56 -59zM1541 479q90 -65 148.5 -152.5t100.5 -188.5l4 2q-8 52 -9.5 104t-1.5 104l2 388q-12 -3 -24 -4t-24 -1q-38 0 -74.5 13t-68.5 36q-30 22 -64 62.5t-62 88t-40.5 88t-12.5 67.5q0 16 3 30h-364q32 -32 50 -70t27 -82q71 -17 144.5 -56.5
t132.5 -100.5t96 -142.5t37 -180.5v-5zM1791 1116h-228q-30 -34 -37.5 -68.5t-7.5 -60.5q0 -18 3 -37q28 -45 74.5 -64.5t97.5 -19.5q24 0 48 4t46 11z" />
    <glyph glyph-name="bn_uni06AD_uni0445" horiz-adv-x="2057" 
d="M572 173q-92 0 -164 40.5t-127.5 106.5t-96.5 151t-70.5 175t-49 177.5t-32.5 157.5q18 7 33 7q7 0 10 -1l69 -170q16 -49 34.5 -105.5t43 -113t56 -108t72.5 -91.5t93.5 -63.5t117.5 -23.5q50 0 95.5 20t80.5 51.5t58 70t27 63t4 35.5q0 25 -11.5 52.5t-49.5 45.5
q-23 -24 -51 -49.5t-59 -46t-65 -33.5t-70 -13q-31 0 -60.5 16.5t-55 41.5t-45 54.5t-31.5 55.5q-15 33 -18 63t-3 50q0 22 3.5 53.5t15 71.5t26.5 71q-25 25 -47.5 48.5t-47.5 42t-55 29.5t-70 11h-176l-66 71l17 27h244q42 0 74.5 -16t59.5 -40.5t51 -54t50 -56.5
q23 33 57 62.5t74.5 52.5t84.5 36.5t86 13.5q48 0 88.5 -19.5t68.5 -66.5q17 15 37.5 22t40.5 7q45 0 81.5 -29t41.5 -80q35 2 73 20.5t72.5 46t61 60t37.5 62.5l35 9q49 -26 99.5 -62t92 -81t68 -98t26.5 -114q0 -67 -33 -121t-84 -96t-112 -72t-116 -49l1 -6
q141 -71 261 -173.5t210 -233.5l4 2q-8 49 -8 98v97l1 651q0 37 -6.5 78t-18.5 81.5t-27.5 79t-33.5 70.5l48 34q7 -8 23.5 -27t36 -38.5t37.5 -34.5t27 -15h128l88 -74l-17 -24h-28q-46 0 -101 4t-100 9q15 -42 22.5 -88.5t10.5 -94.5t3 -95.5t1 -91.5l8 -564
q1 -57 2 -112.5t8 -111.5l-36 -26q-15 17 -29.5 34.5t-28.5 34.5q-11 53 -49 104t-92.5 97t-120 85.5t-133 68t-131.5 44.5t-115 16q-42 58 -82.5 116.5t-78.5 119.5l23 35q47 -16 101 -16q49 0 102 12t103 34t93.5 53.5t73.5 70.5q23 30 38 65t15.5 53t0.5 19
q0 33 -16.5 63t-57.5 50q-37 -53 -86 -96.5t-106.5 -74.5t-121 -48t-128.5 -17q-45 0 -88 12.5t-75 51.5q-39 -39 -88 -57t-101 -18q-47 0 -93 13.5t-87 36.5q-13 -28 -22.5 -64.5t-12.5 -66.5t-3 -52q0 -16 2 -42.5t14 -56.5q14 -3 27 -3q35 0 66.5 17t59.5 42t51.5 54
t41.5 54l40 6q69 -49 112.5 -114t56.5 -120t13 -96q0 -27 -7.5 -74t-46.5 -100t-106.5 -85.5t-165.5 -32.5zM489 980q52 -26 107 -26q96 0 177 84q30 32 30 52q0 5 -7 17.5t-46 12.5q-27 0 -62.5 -9.5t-72.5 -27.5t-70 -44t-56 -59z" />
    <glyph glyph-name="bn_uni06AD_uniA992" horiz-adv-x="1245" 
d="M-93 1214h1247l67 -65l-21 -33h-200q25 -44 29.5 -72.5t4.5 -40.5q0 -28 -12 -56.5t-48 -49.5t-96 -21q-42 0 -90 27t-94.5 65t-88.5 79t-72 69h-182q23 -38 34 -80.5t17 -86.5q62 -9 112.5 -45.5t86 -88.5t51 -105.5t15.5 -98.5q0 -15 -2 -30l3 -2q35 46 80.5 89t97 80
t107.5 65.5t111 44.5l115 -133q-76 -31 -124 -88.5t-73 -131t-28 -127t-3 -76.5q0 -61 10.5 -132.5t35.5 -148.5t59 -137q-14 -11 -29.5 -19.5t-29.5 -19.5q-48 85 -78 173.5t-43.5 177t-13.5 175.5q0 3 0.5 50t13.5 136l-5 2q-31 -29 -72.5 -70t-88.5 -85.5t-98 -88
t-102 -77.5t-100 -55.5t-92 -21.5q-42 0 -78 25.5t-65 63t-52 79t-38 74.5q14 9 28 18.5t28 17.5q22 -39 50.5 -74t69.5 -55q38 1 79 16t79.5 39.5t71 55t52.5 61.5q18 28 28.5 64t12.5 63.5t2 43.5q0 22 -3 51.5t-14 61.5q-29 35 -68 50.5t-84 15.5q1 -11 1 -22
q0 -29 -11.5 -59.5t-37 -55t-60 -38t-72.5 -13.5q-29 0 -52.5 11t-40.5 29t-26 41.5t-9 48.5q0 41 23 73t58 54.5t75.5 35t75.5 14.5q-1 22 -16 47t-36.5 48t-45 42t-42.5 28h-245l-66 71zM820 980q32 0 53.5 12.5t30 29.5t8.5 35q0 5 -2 20t-20 39h-284q18 -24 42 -48.5
t51.5 -44t58 -31.5t62.5 -12z" />
    <glyph glyph-name="bn_uni06AD_gha" horiz-adv-x="1853" 
d="M1625 -55q-15 17 -28.5 34.5t-28.5 34.5q-24 73 -69.5 127.5t-105 90.5t-129 54t-141.5 18q-18 0 -35.5 -1t-35.5 -3q-40 38 -77 77.5t-71 83.5q-5 -70 -32 -123.5t-71.5 -90t-103 -55.5t-125.5 -19q-92 0 -164 40.5t-127.5 106.5t-96.5 151t-70.5 175t-49 177.5
t-32.5 157.5q18 7 33 7q7 0 10 -1l69 -170q8 -42 23.5 -95.5t40 -110t58 -110t77.5 -96t98.5 -68t119.5 -25.5q50 0 95.5 20t80.5 51.5t58 70t27 63t4 35.5q0 25 -11.5 52.5t-49.5 45.5q-23 -24 -51 -49.5t-59 -46t-65 -33.5t-70 -13q-35 0 -70.5 23t-65.5 57.5t-50 74
t-24 71.5q-3 26 -3 53q0 38 8 89.5t37 108.5q-25 25 -47.5 48.5t-47.5 42t-55 29.5t-70 11h-176l-66 71l17 27h244q42 0 74.5 -16t59.5 -40.5t51 -54t50 -56.5q61 87 131.5 128t168.5 41q11 0 23 -0.5t24 -1.5h1031l67 -65l-21 -33h-166v-97q0 -214 1 -426.5t6 -426.5
q2 -49 2.5 -98t8.5 -97zM489 980q52 -26 107 -26q96 0 177 84q31 34 31 54q0 5 -6 16.5t-44 11.5q-28 0 -65 -10t-74.5 -28t-71 -44t-54.5 -58zM1102 809q54 0 106 25t90 63l123 -126q-92 -69 -178 -144t-160 -163q140 -37 261.5 -110t206.5 -192l7 2q-10 70 -10 139
q0 7 0.5 48t0.5 118l-2 647h-445q-46 0 -80.5 -22.5t-54.5 -57t-22 -58t-2 -30.5q0 -31 14 -62.5t50 -54t95 -22.5zM1133 740l-5 5q-46 -12 -96 -12q-42 0 -82.5 10t-74 30.5t-57.5 52.5t-34 76q-36 -23 -75 -34t-80 -11q-46 0 -91 13t-86 37q-13 -27 -23 -63.5t-12.5 -66.5
t-2.5 -51q0 -17 2 -44.5t14 -56.5q14 -3 27 -3q35 0 66.5 17t59.5 42t51.5 54t41.5 54l40 6q33 -19 62 -48.5t52.5 -64t40.5 -72.5t26 -75z" />
    <glyph glyph-name="bn_uni06AD_gh_uniA9AB" horiz-adv-x="1871" 
d="M-110 1187l17 27h244q42 0 74.5 -16t59.5 -40.5t51 -54t50 -56.5q59 85 138 128t160 43q28 0 49 -4h1047l67 -65l-21 -33h-162l2 -906q0 -187 18 -375l-36 -26l-57 57q-17 62 -58 83t-93 21q-50 0 -103 -10t-98 -10q-73 0 -139 13.5t-116 46.5t-79 88.5t-29 139.5
q0 26 3.5 52t14.5 50q14 -8 26 -17.5t22 -22.5q-6 -31 -6 -59q0 -15 3.5 -43t46.5 -56q52 -33 109 -41t117 -8h57q41 0 81 -3t79 -14.5t75.5 -34.5t70.5 -63l10 4q-4 24 -4 48v8.5v5.5q0 27 -13 51q-33 64 -84 110t-110.5 76t-124 44t-125.5 14q-16 0 -31.5 -1t-30.5 -3
q-45 38 -84 80t-77 87q-4 -68 -33.5 -117.5t-76 -81t-104.5 -46.5t-120 -15q-90 0 -161 35t-126 93.5t-96 135t-70.5 158.5t-49 164t-32.5 153q19 8 42 8l70 -172q18 -73 49.5 -153t81 -146t120 -109t166.5 -43q47 0 91 17t79 44.5t58.5 62t28 58t4.5 34.5q0 22 -10.5 48
t-48.5 48q-25 -23 -53.5 -46t-59.5 -41t-64.5 -29t-69.5 -11q-27 0 -55.5 13.5t-54 34.5t-46.5 46t-33 48q-17 31 -19.5 57.5t-2.5 41.5q0 24 4.5 56t17 69.5t25.5 67.5q-25 25 -47.5 48.5t-48 42t-55.5 29.5t-69 11h-176zM803 1090q0 14 -13 20.5t-35 6.5q-28 0 -65.5 -10
t-75 -28t-71.5 -43t-54 -56q20 -9 44.5 -13.5t50.5 -4.5q38 0 77 8.5t70.5 25t51.5 40.5t20 54zM1114 822q54 0 105.5 24t90.5 60l124 -121q-93 -65 -178 -137.5t-163 -155.5q143 -36 268.5 -108.5t212.5 -194.5l5 2q-3 31 -5 59t-3 57.5t-1.5 62t-0.5 73.5l-2 673h-446
q-42 0 -76 -22t-54.5 -54.5t-24 -57t-3.5 -35.5q0 -25 11.5 -53t46 -50t93.5 -22zM429 656q14 -3 28 -3q34 0 64.5 14t58 36t51 48.5t43.5 50.5l40 5q35 -18 65 -46t53.5 -62.5t40 -72t24.5 -75.5q59 55 120.5 106t126.5 99l-5 5q-53 -14 -104 -14q-42 0 -81 9.5t-71 29.5
t-55.5 50t-34.5 72q-35 -26 -76 -38t-84 -12q-48 0 -94.5 13t-86.5 36q-12 -24 -22 -56.5t-13.5 -61t-3.5 -49.5q0 -13 1.5 -35.5t14.5 -48.5z" />
    <glyph glyph-name="bn_uni06AD_uniA9A9" horiz-adv-x="1827" 
d="M-93 1214h244q42 0 74.5 -16t59.5 -40.5t51 -54t50 -56.5q60 85 136 127.5t163 42.5q24 0 48 -3h1003l67 -65l-21 -33h-164l5 -936q0 -49 2.5 -105t10.5 -104l-37 -26q-16 17 -28.5 34.5t-28.5 34.5q-16 60 -52 113.5t-85.5 95t-109 67t-121.5 30.5q-28 -59 -80.5 -90
t-108.5 -31q-45 0 -84.5 21t-62.5 66q-49 -61 -119.5 -87t-146.5 -26q-92 0 -164 40.5t-127.5 106.5t-96.5 151t-70.5 175t-49 177.5t-32.5 157.5q18 7 33 7q7 0 10 -1l69 -170q14 -76 44 -164t80 -164t122.5 -126.5t170.5 -50.5q55 0 102 20t82.5 51.5t57 70t24.5 61.5
t3 32q0 28 -13.5 56.5t-51.5 46.5q-23 -24 -51 -49.5t-59 -46t-65 -33.5t-70 -13q-35 0 -71 23t-65.5 57.5t-49.5 74t-24 71.5q-3 26 -3 53q0 38 8 89.5t37 108.5q-25 25 -47.5 48.5t-47.5 42t-55 29.5t-70 11h-176l-66 71zM489 980q17 -8 40.5 -12t49.5 -4q37 0 76.5 8
t72 24t54 39.5t21.5 54.5q0 15 -13.5 22.5t-36.5 7.5q-27 0 -64 -10t-74 -28t-71 -44t-55 -58zM1230 463q95 -52 169.5 -129.5t126.5 -171.5l6 2q-10 70 -10 139q0 7 0.5 48t0.5 118l-2 647h-578q69 -50 135.5 -125t112 -162.5t55 -148.5t9.5 -88q0 -66 -25 -129zM430 625
q14 -3 27 -3q35 0 66.5 17t59.5 42t51.5 54t41.5 54l40 6q35 -20 65.5 -51.5t54.5 -68.5t40.5 -78t23.5 -80q50 31 105 31q36 0 72 -12q30 29 46 61t16 74q0 60 -30.5 104t-76 76t-99.5 54t-102 37q-38 -45 -89.5 -65t-108.5 -20q-48 0 -94.5 13.5t-86.5 36.5
q-13 -27 -23 -63.5t-12.5 -66.5t-2.5 -51q0 -17 2 -44.5t14 -56.5z" />
    <glyph glyph-name="bn_c_uniA995" horiz-adv-x="1535" 
d="M-93 1214h1538l67 -65l-21 -33h-705v-4q0 -38 17 -78.5t44.5 -76t62 -63.5t68.5 -42q59 -23 110 -31t98 -19t92.5 -35t93.5 -80q32 -37 36 -69.5t4 -48.5q0 -35 -11.5 -82t-41 -106t-70 -115t-88 -106t-97 -87t-97 -59t-87.5 -22q-46 0 -84 28.5t-67 60.5
q-36 41 -55 76.5t-27 72t-9 77.5t-1 92q-26 -38 -58.5 -78.5t-71.5 -74.5t-84 -55.5t-95 -21.5q-34 0 -70 20t-66 55.5t-48.5 84t-18.5 104.5l4 683h-213l-66 71zM270 1116q0 -38 9 -64.5t32 -57.5q31 -41 62 -64.5t62.5 -36t62.5 -18.5t62 -14.5t61 -22t59 -41.5
q1 80 1.5 159.5t0.5 159.5h-412zM264 450q0 -40 4.5 -87t28.5 -81q30 0 71 24.5t84 64.5t82.5 89.5t67 99.5t35 82t7.5 49q0 23 -9 41q-54 7 -109.5 23t-104.5 43.5t-88.5 67t-61.5 93.5l-6 -2zM780 956v-651q0 -50 5.5 -100.5t35.5 -92.5q41 1 93.5 31.5t106.5 78.5
t103.5 108.5t84 122.5t44 103.5t9.5 63.5q0 29 -10 54q-69 1 -139.5 21t-133.5 57t-113 89t-79 116z" />
    <glyph glyph-name="bn_c_cha" horiz-adv-x="1627" 
d="M-93 1214h1630l67 -65l-21 -33h-822v-67q17 -34 48.5 -58.5t70 -40t80 -23t77.5 -7.5q37 0 72 9t72 9q65 0 122.5 -32t100.5 -82.5t68.5 -113t25.5 -123.5q0 -73 -33 -136t-86 -112.5t-119 -83.5t-131 -50v-5q78 -22 157.5 -68t154.5 -104t141.5 -123t118.5 -125
q-20 -28 -42 -46q-91 100 -189 172t-205 121.5t-225.5 78.5t-251.5 43l-113 183q6 8 12 16.5t14 15.5q56 -22 114.5 -34.5t118.5 -12.5q45 0 97 11.5t104 33t100.5 52t85.5 68t59.5 82.5t22.5 94q0 47 -13 79.5t-36 52.5t-54 28.5t-67 8.5q-32 0 -65 -6l-3 -7q14 -14 23 -32
t9 -38q0 -33 -17 -68.5t-45 -69.5t-64.5 -64.5t-74.5 -53.5t-75.5 -36.5t-68.5 -13.5q-19 0 -40 8.5t-40.5 21.5t-36.5 28.5t-29 29.5q-23 -46 -59 -99t-81 -98t-98 -75t-109 -30q-27 0 -52.5 12t-45.5 29q-34 28 -53 58.5t-29 64.5t-12 71.5t-2 78.5l4 578h-213l-66 71z
M475 888q35 -9 60 -13t46.5 -11t43 -20.5t48.5 -41.5q4 79 7 157t7 157h-422v-13q0 -40 19.5 -75t50.5 -63t68 -48t72 -29zM298 330q29 0 64.5 20.5t72 54t71 75t61 84t42.5 82t16 67.5q0 23 -10 42q-52 7 -104.5 22t-99.5 40.5t-84.5 63t-60.5 88.5l-5 -2l-1 -478
q0 -38 7.5 -82.5t30.5 -76.5zM760 670q0 -29 3.5 -64t21.5 -59q40 6 89 27.5t91.5 54t71.5 72.5t29 84q0 17 -6 32q-17 8 -37 9t-39 2q-80 4 -135 32t-88 96q0 -72 -0.5 -143t-0.5 -143z" />
    <glyph glyph-name="bn_c_ch_uniA9AB" horiz-adv-x="1621" 
d="M-110 1187l17 27h1631l67 -65l-21 -33h-826v-67q17 -34 49 -58.5t70 -40.5t79.5 -23t77.5 -7q37 0 72 9t72 9q65 0 122.5 -32t100.5 -82.5t68.5 -113t25.5 -123.5q0 -73 -33 -136t-86 -112.5t-119 -83.5t-131 -50v-5q78 -22 157.5 -68t154.5 -104t141.5 -123t118.5 -125
q-9 -13 -19 -24.5t-23 -21.5q-42 48 -87.5 89.5t-96.5 79.5q0 -66 1.5 -130.5t11.5 -129.5l-36 -26l-52 46v3q-21 46 -46 75t-54 45.5t-60.5 22.5t-66.5 6q-54 0 -112.5 -8t-120.5 -8q-33 0 -74 3.5t-82 12.5t-77.5 25t-59.5 42q-30 33 -47.5 73t-23.5 78t-6 73q0 10 1 37
t11 69q14 -8 27.5 -17.5t23.5 -22.5q-4 -25 -4 -52q0 -13 2 -40.5t14 -64.5q24 -25 63 -39t83.5 -21t91.5 -9t87 -2h53q64 0 117 -10t98.5 -32.5t84 -59.5t73.5 -92l5 2q-17 53 -20 108t-5 110q-136 81 -284 122t-304 57q-28 46 -57 91t-56 92q6 8 12 16.5t14 15.5
q56 -22 114.5 -34.5t118.5 -12.5q45 0 97 11.5t104 33t100.5 52t85.5 68t59.5 82.5t22.5 94q0 47 -13 79.5t-36 52.5t-54 28.5t-67 8.5q-32 0 -65 -6l-3 -7q14 -14 23 -32t9 -38q0 -48 -36 -102t-89 -99t-112.5 -75t-107.5 -30q-20 0 -40 8.5t-39 21t-36 28t-30 28.5
q-19 -41 -54.5 -93t-80.5 -98t-97.5 -77.5t-105.5 -31.5q-27 0 -53 9.5t-52 31.5q-34 28 -53.5 59t-29 64.5t-11.5 71t-2 78.5l4 578h-213zM265 1103q0 -28 11 -53.5t28 -47.5q32 -43 62 -64.5t62 -33t69 -18t82 -20.5q28 -8 49.5 -24.5t41.5 -36.5q4 78 7 155.5t7 155.5
h-419v-13zM260 489q0 -38 7.5 -82.5t30.5 -76.5q29 0 67.5 23.5t79 61.5t78 85t63 94t32 77t6.5 44q0 23 -9 40q-52 7 -104.5 22t-99.5 40.5t-84.5 63t-60.5 88.5l-5 -2zM782 547q40 6 89 27.5t91.5 54t71.5 72.5t29 84q0 17 -6 32q-17 8 -37 9t-39 2q-80 4 -135.5 33
t-87.5 95q0 -72 -0.5 -143t-0.5 -143q0 -29 3.5 -64t21.5 -59z" />
    <glyph glyph-name="bn_c_ch_uniA9A7" horiz-adv-x="1627" 
d="M-93 1214h1627l67 -65l-21 -33h-823v-67q17 -34 49 -58.5t70 -40.5t79.5 -23t77.5 -7q37 0 72 9t72 9q65 0 122.5 -32t100.5 -82.5t68.5 -113t25.5 -123.5q0 -73 -33 -136t-86 -112.5t-119 -83.5t-131 -50v-5q78 -22 157.5 -68t154.5 -104t141.5 -123t118.5 -125
q-9 -13 -19 -24.5t-23 -21.5q-54 59 -113.5 111t-125.5 97l-3 -220v-17q0 -33 3.5 -63t17.5 -71l-35 -25q-18 14 -40 33t-35 38q-14 22 -25.5 44.5t-31.5 41.5q-41 39 -94 55.5t-108 16.5h-13q-7 0 -13 -1q-27 32 -50 66.5t-48 68.5q51 54 116 91.5t137 56.5
q-99 39 -202 59.5t-208 32.5l-113 183q6 8 12 16.5t14 15.5q56 -22 114.5 -34.5t118.5 -12.5q45 0 97 11.5t104 33t100.5 52t85.5 68t59.5 82.5t22.5 94q0 46 -12.5 78t-34.5 52.5t-53 29.5t-68 9q-32 0 -67 -6l-3 -7q32 -33 32 -72q0 -2 -1 -23.5t-25 -63.5t-65 -81
t-87 -69.5t-91 -48.5t-77 -18q-18 0 -38.5 8.5t-40 21t-36.5 27.5t-28 28q-20 -42 -55.5 -93.5t-80 -97t-96 -76.5t-104.5 -31q-57 0 -107 40q-34 28 -53.5 59t-29 65t-11.5 71t-2 78q0 146 2 289t2 289h-213l-66 71zM304 1002q32 -42 62 -63.5t62 -33t69 -18.5t82 -21
q28 -8 49 -24t41 -36q4 78 7 155t7 155h-418v-13q0 -28 11 -53.5t28 -47.5zM298 330q29 0 64.5 20.5t72 54t71 75t61 84t42.5 82t16 67.5q0 23 -10 42q-52 7 -104.5 22t-99.5 40.5t-84.5 63t-60.5 88.5l-5 -2l-1 -478q0 -38 7.5 -82.5t30.5 -76.5zM781 547q25 4 58.5 16.5
t68 32t67 44.5t55 53.5t28.5 50.5t6 34q0 20 -8 39q-17 8 -37 9t-39 2q-40 2 -73.5 7.5t-61 19t-49.5 37.5t-39 64q0 -72 -0.5 -143t-0.5 -143q0 -29 3.5 -64t21.5 -59zM1308 -295l9 5q-10 45 -10 94v16l5 169q-59 -16 -124 -50t-109 -78q69 -18 128.5 -57t100.5 -99z" />
    <glyph glyph-name="bn_c_uniA99A" horiz-adv-x="1807" 
d="M-110 1187l17 27h1808l67 -65l-21 -33h-1486q5 -29 22 -54t41 -44.5t52 -33t55 -19.5q33 -8 58 -12.5t46.5 -12t42 -22t44.5 -43.5q22 26 51.5 56t64 56t71.5 43t73 17q30 0 62.5 -17.5t59 -44.5t43.5 -59.5t17 -62.5q0 -42 -1.5 -84.5t-2.5 -84.5h4q20 56 53.5 109
t78.5 93.5t100.5 65t119.5 24.5q71 0 124.5 -41.5t83 -102.5t30 -96.5t0.5 -36.5q0 -69 -35 -125q-11 -17 -23 -33.5t-21 -34.5q36 -46 57.5 -101.5t21.5 -114.5q0 -44 -15.5 -81.5t-43 -64.5t-65 -42.5t-81.5 -15.5q-67 0 -127.5 29.5t-111 76.5t-87 106t-55.5 119l-6 -4
l6 -262q2 -53 2.5 -105.5t11.5 -104.5q-15 -16 -35 -23q-14 14 -28 28.5t-28 31.5q-15 54 -42 88t-63 52.5t-79.5 25.5t-90.5 7q-66 0 -136.5 -7t-136.5 -7q-126 0 -215 45.5t-140.5 122t-61 146t-9.5 108.5q0 66 15 136q17 -9 36 -25t33 -33q-10 -55 -10 -107
q0 -21 3.5 -67t51.5 -109q19 -21 47 -34.5t61 -21t69 -10.5t70 -3q51 0 103 2.5t104 2.5q57 0 111.5 -6.5t103.5 -27t90 -58.5t72 -101l4 4q-8 45 -9.5 90.5t-1.5 90.5q0 144 1.5 286.5t1.5 286.5q0 9 -1.5 24.5t-5.5 30t-12 25t-21 10.5q-36 0 -83.5 -28t-91 -70.5
t-73.5 -92t-32 -92.5q14 3 28 3q45 0 77.5 -29.5t32.5 -79.5q0 -68 -44.5 -102.5t-108.5 -34.5q-48 0 -80 26.5t-49 69.5q-36 -35 -77.5 -60.5t-86.5 -25.5q-22 0 -44 7.5t-45 24.5q-29 23 -45.5 46.5t-25 49t-10.5 55t-2 63.5q0 109 1 215.5t2 215.5h-234zM306 525
q32 0 76 33t85 79t69.5 94t28.5 79q0 18 -8 36q-41 5 -83 15.5t-80 30t-69 48t-49 68.5l-5 -2v-333q0 -16 0.5 -37t3.5 -41.5t10.5 -39t20.5 -30.5zM1416 225q41 0 76.5 16t60 43t33.5 56t9 52q0 16 -3 33q-18 27 -48 39q-31 -29 -62.5 -41t-73.5 -12q-32 0 -57 12t-41.5 33
t-25 48t-8.5 57q0 29 11.5 52t30 39t42.5 24.5t49 8.5q26 0 50.5 -9.5t43.5 -29.5q21 5 41 25.5t33 47t16 45t3 26.5q0 17 -7 30q-7 15 -24.5 26.5t-39 19t-43 11.5t-36.5 4q-64 0 -124 -30t-109 -77.5t-83.5 -106.5t-47.5 -118q19 -57 48 -114.5t70 -104t94.5 -76
t121.5 -29.5z" />
    <glyph glyph-name="bn_j_uniA997" horiz-adv-x="2040" 
d="M-110 1187l17 27h2043l67 -65l-21 -33h-1302l-22 -11q2 -36 20 -60t48 -39t69 -21t82 -6q51 0 104 7t100.5 17t86 22t59.5 22v-1l1 1l62 -71q60 -66 147.5 -98t184.5 -32q111 0 214 41q46 -36 82.5 -89t56.5 -107q-79 -73 -117 -162t-43.5 -153.5t-5.5 -97.5
q0 -65 13.5 -147.5t42.5 -175.5v-1l1 -2v-1q0 -5 -8.5 -8t-19.5 -5t-21.5 -3t-14.5 -1q-38 92 -59 194.5t-21.5 157t-0.5 59.5q0 100 20 199.5t65 190.5q-11 -1 -23 -1h-24q-68 0 -137 11.5t-135 34.5t-127 57t-112 79q-33 -36 -69 -78t-61.5 -89.5t-31 -80.5t-5.5 -49
q0 -36 14 -73q29 -12 57 -12q33 0 63.5 14.5t56.5 37.5t47 51.5t36 56.5l26 12q11 -5 26.5 -12t30.5 -15t28.5 -17.5t20.5 -18.5q54 -66 89.5 -144t35.5 -150q0 -66 -21.5 -125t-60.5 -103.5t-95 -70t-125 -25.5q-80 0 -148.5 32t-122.5 85t-92.5 120.5t-59.5 139.5
q-32 -108 -110 -169.5t-192 -61.5q-99 0 -178.5 37.5t-141.5 100.5t-107 145.5t-75.5 172.5t-46 182t-18.5 173l36 5l54 -171q8 -47 23.5 -101.5t40 -108.5t59 -104t79.5 -88t101.5 -61t125.5 -23q63 0 116 26t90.5 69.5t58.5 100t21 116.5q0 12 -7.5 22t-19 17.5t-24 12.5
t-22.5 7q-24 -27 -47.5 -51.5t-49.5 -43t-57 -29.5t-70 -11q-57 0 -102.5 22.5t-77 60t-48 86.5t-16.5 103q0 42 15.5 81t40 74.5t55 66.5t60.5 56h-511zM391 699q33 -11 59 -11q36 0 67 14.5t58.5 37.5t51.5 52t45 58l28 12q29 -12 56.5 -27t48.5 -39q24 -28 47 -70t38 -76
q15 -35 23.5 -71t18.5 -73q17 -64 43.5 -123t65.5 -104t94 -72t129 -27q66 0 117 25.5t86.5 68t54 99t18.5 117.5q-10 24 -30 39.5t-46 17.5q-24 -27 -46.5 -51.5t-48 -42.5t-56 -28.5t-69.5 -10.5q-53 0 -95.5 25t-72 65t-45.5 89t-16 97q0 54 21 104.5t51 95.5
q-19 -2 -38 -3t-39 -1q-58 0 -116 10t-111.5 31t-100.5 55t-83 82q-41 -26 -86 -66t-78.5 -88.5t-44 -87t-10.5 -61.5q0 -31 11 -62z" />
    <glyph glyph-name="bn_j_j_uniA9A7" horiz-adv-x="2129" 
d="M-93 1214h2130l67 -65l-21 -33h-1407l-2 -1q0 -42 18.5 -70t50.5 -45t74 -24.5t89 -7.5q51 0 104 7t100.5 18t86.5 24t62 25q18 -16 32.5 -34.5t31.5 -34.5q55 -51 126.5 -71.5t148.5 -20.5q69 0 137 13.5t127 36.5q45 -33 79.5 -78.5t53.5 -98.5q-40 -54 -65.5 -125.5
t-32 -128t-6.5 -92.5q0 -40 7.5 -97.5t35.5 -120.5l-2 -297q0 -29 1.5 -59t10.5 -59l-31 -26q-19 13 -38 25.5t-34 30.5q-35 69 -97.5 98.5t-132.5 29.5q-18 0 -36 -2t-35 -5l-100 115q35 44 79 84t93.5 74.5t102 63t104.5 48.5q-13 59 -22 119t-9.5 91t-0.5 34
q0 57 10 114.5t35 114.5q-55 -6 -113 -6q-117 0 -229.5 30t-209.5 101q-30 -28 -65.5 -71t-62.5 -92t-34.5 -84t-7.5 -54q0 -30 11 -58q23 -6 45 -6q38 0 73.5 15t66 39.5t56.5 55t45 61.5l28 10q9 -3 24 -9.5t30.5 -14.5t29 -16t20.5 -14q8 -8 15.5 -19.5t13.5 -20.5
q33 -44 55 -85.5t22 -99.5q0 -67 -32.5 -122.5t-84 -95.5t-114.5 -62.5t-125 -22.5q-130 0 -231 58t-155 179q-34 -106 -112 -169t-191 -63q-102 0 -183 36.5t-143 98t-106 142.5t-73 170t-43.5 181.5t-17.5 175.5l37 5l53 -171q17 -82 49.5 -168t84 -155.5t124 -114
t169.5 -44.5q65 0 118 26.5t91 70.5t59 101t21 118q0 12 -7.5 22.5t-19 18.5t-24 13.5t-22.5 6.5q-25 -28 -50 -53.5t-53.5 -45.5t-61 -32t-73.5 -12q-51 0 -94 21.5t-74 57.5t-48 82t-17 95q0 43 15.5 88t40 87.5t55.5 80.5t61 66h-512l-66 71zM394 667q29 -9 54 -9
q37 0 69 16t59.5 41t51.5 55.5t45 59.5l29 12q29 -12 56 -27.5t49 -38.5q22 -24 41.5 -58t36 -72t29 -76.5t21.5 -71.5q32 -116 100.5 -176.5t192.5 -60.5q51 0 112 18t113.5 52t87.5 82t35 108q-11 22 -29 37t-43 17q-24 -29 -52.5 -55.5t-61 -46.5t-68.5 -31.5t-76 -11.5
q-54 0 -95 22t-68.5 58.5t-42 83.5t-14.5 96q0 48 21.5 96t46.5 87q-27 -4 -54 -6t-54 -2q-58 0 -113.5 10.5t-105.5 33.5t-94 60.5t-79 92.5q-40 -30 -83.5 -75t-75.5 -98t-42 -94t-10 -65q0 -32 11 -63zM1833 -134l6 4q-6 26 -6.5 52.5t-0.5 52.5l2 212
q-69 -32 -139.5 -82.5t-120.5 -107.5q34 -5 71.5 -14.5t72.5 -25.5t65.5 -38.5t49.5 -52.5z" />
    <glyph glyph-name="bn_j_jha" horiz-adv-x="1484" 
d="M-93 1214h1486l67 -65l-21 -33h-585q-9 0 -21 -3t-24.5 -7.5t-24.5 -9.5t-20 -9q9 -56 34.5 -92.5t62.5 -57.5t82 -29t92 -8q57 0 112 8t99 16q23 -16 42.5 -41t36.5 -54.5t30.5 -59.5t23.5 -55q-69 -62 -106.5 -143t-55.5 -170t-21 -181.5t-3 -178.5q0 -100 6 -199
t26 -197q-9 -6 -18.5 -11t-20.5 -7q-17 14 -33.5 26.5t-30.5 28.5q-25 27 -46 56t-43 57t-47 53.5t-57 46.5v-83q0 -63 2.5 -125t13.5 -124q-15 -14 -33 -21q-22 12 -44 23.5t-40 28.5q-13 55 -55 103t-98 84t-119.5 56.5t-119.5 20.5h-12q-6 0 -11 -1l-141 173
q42 36 85.5 69.5t90.5 63.5q-110 39 -187 118.5t-126 180.5t-73 214.5t-28 219.5l36 5l55 -160q15 -87 47.5 -169.5t85 -146t128.5 -102t178 -38.5q64 0 119.5 21.5t97.5 60.5t67.5 93t28.5 118q-11 23 -33 38t-48 17q-27 -28 -54.5 -51t-58 -39.5t-64.5 -26t-75 -9.5
q-53 0 -98 20t-78 54t-51.5 80t-18.5 98q0 53 26 104.5t65 98t84.5 86t85.5 68.5h-603l-66 71zM396 631q30 -10 61 -10q36 0 68.5 13t62 34.5t56 49t51.5 55.5l30 11q12 -5 27 -11.5t31 -14t30.5 -16t25.5 -17.5q42 -50 73.5 -99t43 -92t11.5 -80q0 -17 -4 -52.5t-37 -97.5
q1 -67 3 -133.5t2 -133.5q24 -20 50 -44t49.5 -50.5t43 -55t31.5 -58.5h5q-11 92 -12 184t-1 185q0 66 3.5 140t14.5 147.5t31 143.5t53 128q-9 -1 -18 -1h-19q-73 0 -145 20.5t-136.5 58t-118.5 89.5t-91 114q-27 -17 -62 -43.5t-71.5 -59t-69 -70t-54 -77t-25.5 -65.5
t-4 -37q0 -28 11 -55zM818 -290l8 4q-10 22 -11.5 51t-1.5 52l4 367q-26 -11 -53 -19.5t-53 -18.5q-62 -23 -121.5 -65t-104.5 -91q58 -24 105 -51t86.5 -60t74 -74t67.5 -95z" />
    <glyph glyph-name="bn_j_uniA99A" horiz-adv-x="1711" 
d="M-110 1187l17 27h1713l67 -65l-21 -33h-709q-7 0 -22.5 -3.5t-32.5 -8.5t-33 -10t-24 -8q-18 -44 -18 -96q0 -6 1.5 -38.5t19.5 -90t48.5 -109t66.5 -86.5q19 63 53.5 122.5t83 105t109.5 73t131 27.5q51 0 93.5 -26t74 -66.5t49 -89.5t17.5 -96q0 -37 -5.5 -65
t-16 -50.5t-25.5 -42.5t-35 -43q39 -46 60.5 -103.5t21.5 -117.5q0 -47 -18 -85.5t-48.5 -65.5t-71 -42t-85.5 -15q-63 0 -118.5 26t-101.5 68t-81.5 95t-59.5 106q-3 -73 -28 -131t-68.5 -98.5t-102.5 -62t-129 -21.5q-107 0 -191 42t-150 112.5t-114 161.5t-83 189
t-57.5 196t-37.5 181q20 7 43 7l84 -218q18 -85 59 -177.5t102.5 -169t142 -126.5t178.5 -50q60 0 111.5 25.5t89.5 68.5t60 98t22 113q0 38 -12.5 57t-46.5 36q-31 -21 -67 -42t-74 -38t-77.5 -27.5t-78.5 -10.5q-57 0 -101.5 25t-74.5 65.5t-46 91.5t-16 103
q0 59 22 109.5t58 92.5t82.5 75.5t95.5 57.5h-629zM515 587q38 0 78 17.5t77.5 43.5t71.5 56t60 55q13 0 28 5q-45 62 -71.5 134t-34.5 147q-79 -30 -137 -75.5t-95.5 -96.5t-53 -98t-15.5 -83q0 -7 1.5 -30.5t25 -49t65.5 -25.5zM1313 214q44 0 81 16t62.5 43.5t34.5 57.5
t9 55q0 17 -3 35q-19 26 -45 40q-26 -28 -60 -42t-68 -14q-28 0 -55 9.5t-47 28.5t-32.5 47t-12.5 65q0 24 10.5 46.5t27.5 40t40 27.5t47 10q28 0 54.5 -10t49.5 -25q25 4 45.5 24.5t33 47.5t14.5 45t2 24q0 23 -9 40q-7 14 -25 25t-40 18.5t-44 11t-37 3.5
q-64 0 -124 -29.5t-109.5 -76.5t-85.5 -105.5t-52 -116.5q11 -57 41.5 -117.5t76 -110t102 -81.5t118.5 -32z" />
    <glyph glyph-name="bn_ny_uniA995" horiz-adv-x="1511" 
d="M344 1195q65 0 120 -22t101 -59t82.5 -86.5t63.5 -103.5h7l-1 161q0 90 -18 147l43 28l72 -73q7 -37 7 -74q0 -7 -1 -32t-1 -69v-68q0 -35 -3 -67l7 -2q23 57 56.5 106.5t77.5 86t98.5 57.5t119.5 21q47 0 88 -28t71 -70.5t47.5 -92t17.5 -91.5q0 -37 -7 -65t-18.5 -51
t-25.5 -44.5t-29 -46.5q39 -51 59 -106.5t20 -119.5q0 -46 -17 -85t-46 -67.5t-69 -44.5t-85 -16q-66 0 -123.5 30.5t-104 78t-80.5 106.5t-54 116l-6 -3l-4 -407q0 -16 1.5 -38.5t4.5 -46.5t7.5 -45.5t9.5 -35.5l-37 -28q-18 16 -36.5 31.5t-33.5 34.5q-19 65 -64.5 123.5
t-106 102.5t-130.5 69.5t-139 25.5h-15q-8 0 -16 -1l-141 185q123 115 264.5 205t299.5 150q-16 38 -45 75.5t-66 67.5t-79 49t-85 19q-16 0 -36 -4t-37.5 -12.5t-31 -22t-17.5 -31.5q49 -28 63.5 -63t14.5 -62q0 -14 -6.5 -41.5t-40 -56.5t-87.5 -29q-43 0 -72.5 16.5
t-48.5 44t-27.5 63t-8.5 72.5q0 57 23.5 101.5t62 75t88.5 46.5t103 16zM1153 351q42 0 77 17.5t58.5 47t31.5 59t8 51.5q0 17 -4 35q-21 23 -45 42q-25 -29 -57.5 -42.5t-65.5 -13.5q-28 0 -54 9t-46 27t-32 44t-12 60q0 25 8.5 49.5t23.5 44t37 32t49 12.5t52 -10.5
t48 -24.5q27 6 48 26t33 46.5t13.5 45t1.5 24.5q0 22 -7 42q-9 17 -27 28t-39 18t-42 10t-36 3q-61 0 -123 -31t-113.5 -79.5t-86.5 -107.5t-43 -115v-4q0 -35 16 -74t43 -77.5t62 -73.5t73 -61.5t77 -42.5t73 -16zM710 138l5 3q-3 23 -4 45t-1 45l3 498
q-106 -42 -205 -99.5t-180 -139.5q65 -30 119.5 -65t101.5 -78t86.5 -95t74.5 -114z" />
    <glyph glyph-name="bn_ch_uniA99A" horiz-adv-x="1329" 
d="M656 1016q15 49 48.5 90.5t77 71.5t94 47t101.5 17q45 0 82.5 -21t64 -55t41.5 -75.5t15 -83.5q0 -25 -6.5 -46t-16.5 -37.5t-21.5 -30t-21.5 -23.5q41 -45 72 -100t31 -118q0 -33 -13.5 -59.5t-35.5 -45.5t-51 -29t-60 -10q-68 0 -135 30.5t-123.5 80t-97.5 112
t-57 126.5l-8 1q-9 -23 -23 -42t-28 -39q17 -69 58 -124.5t93 -102t108 -87t102 -80.5t76 -81.5t30 -89.5q0 -55 -37 -94.5t-90 -66t-111.5 -41t-102.5 -19.5l-1 -6q89 -45 160.5 -89.5t136 -93.5t126 -106.5t129.5 -129.5l-35 -27q-179 170 -381.5 263.5t-445.5 131.5
l-108 186l32 32q128 -41 260 -41q27 0 64.5 4t77 14t76 25.5t61.5 38.5t30 43.5t5 31.5q0 23 -12 51q-59 58 -127 96l-7 -3q-5 -51 -31 -80.5t-63.5 -44t-81 -18t-84.5 -3.5q-57 0 -101 11t-78.5 34.5t-62 60t-51.5 87.5q-10 21 -17 43t-7 45q0 31 21.5 62t55.5 63
t76.5 64.5t84.5 67t79.5 71t61.5 76.5t27.5 66.5t3.5 35.5q0 34 -16 71q-22 17 -52.5 25t-64.5 8q-33 0 -67 -7.5t-62.5 -22.5t-49.5 -36.5t-29 -48.5q47 -15 65 -50t18 -66q0 -10 -4 -35.5t-37.5 -57.5t-94.5 -32q-33 0 -59.5 14.5t-45 38.5t-28 54t-9.5 60
q0 63 30.5 114.5t80 88.5t111 57t123.5 20q48 0 93 -13t80.5 -41.5t59 -72t29.5 -105.5zM993 627q35 0 63 12t45.5 33t21.5 41t4 32q0 19 -5 39q-13 12 -26 22.5t-30 16.5q-22 -22 -49 -32t-54 -10q-25 0 -48.5 8t-42 23t-29.5 36t-11 47q0 23 9 42.5t24.5 34t36 23
t42.5 8.5q20 0 38.5 -5.5t35.5 -14.5q15 5 30 14t27.5 21.5t20.5 27.5t8 32t-12.5 29t-30.5 19t-37.5 10t-32.5 3q-43 0 -97 -22.5t-101.5 -58.5t-79.5 -80t-32 -88q0 -46 33 -93t81 -84.5t102 -61.5t96 -24zM265 452q45 -37 101 -55.5t114 -18.5q26 0 58 5.5t59.5 18.5
t46 35t18.5 55q-18 21 -36.5 51.5t-34 64.5t-26 67.5t-13.5 61.5q-32 -26 -65.5 -48t-67.5 -45q-23 -15 -53 -34.5t-55 -43.5t-37 -47.5t-12 -43.5q0 -11 3 -23z" />
    <glyph glyph-name="bn_ny_uniA997" horiz-adv-x="1300" 
d="M56 726q20 6 39 6l54 -155q8 -72 34 -148.5t72.5 -139.5t113.5 -104t156 -41q47 0 92 13t80.5 39.5t58 65.5t23.5 90q-11 24 -32.5 38t-47.5 19q-41 -26 -85.5 -43t-90.5 -17q-50 0 -95 23q-26 14 -51.5 40t-45.5 58t-32 66t-12 64q0 41 24 81.5t59 81t75.5 81t73.5 81.5
t50 76.5t17 66.5q0 11 -2 22q-15 20 -40.5 28.5t-55.5 8.5q-33 0 -67.5 -9.5t-63 -25t-47.5 -37t-21 -45.5q43 -11 62 -43.5t19 -63.5q0 -8 -3.5 -32t-37.5 -55t-100 -31q-63 0 -96.5 41t-33.5 101q0 66 33.5 119t85 90t114.5 57t122 20q49 0 89 -16.5t68 -45.5t43.5 -69
t15.5 -87q24 35 56.5 71.5t73 66.5t88.5 49t103 19q41 0 75.5 -18t60.5 -47t40.5 -66t14.5 -76q0 -30 -5.5 -52t-15.5 -38.5t-23 -30t-27 -27.5q36 -31 63.5 -68.5t34 -66t6.5 -44.5q0 -24 -10.5 -56.5t-57.5 -69.5q41 -35 73 -81v-9q-70 -53 -112.5 -111.5t-57 -112.5
t-14.5 -102q0 -21 5 -67.5t35 -125.5q-17 -11 -36.5 -16t-39.5 -7q-24 77 -34.5 143t-10.5 123q0 15 2 58.5t22 115t60 143.5q-8 -1 -14 -1h-14q-75 0 -140.5 30.5t-117 79t-86 109.5t-47.5 121l-4 1q-20 -29 -43.5 -54.5t-48.5 -50.5q-20 -20 -51.5 -48.5t-58 -61.5
t-34.5 -57.5t-8 -37.5q0 -23 13 -45q24 -12 51 -12q23 0 46.5 7.5t45 20t40.5 27.5t33 30l30 7q29 -11 66 -32.5t57 -45.5q16 -19 32.5 -44t29.5 -54t21 -63.5t8 -73.5q0 -61 -22 -107.5t-59.5 -78t-88.5 -47.5t-108 -16q-90 0 -162 33.5t-127.5 90.5t-95.5 131t-67 155.5
t-41 164t-18 156.5zM974 600q32 0 62.5 11t53 31t30.5 42t8 39q0 15 -4 31q-11 17 -27.5 28t-34.5 19q-20 -21 -49 -33t-58 -12q-22 0 -44.5 8t-41.5 22.5t-31 34.5t-12 44q0 23 9.5 43t25.5 35t37 23.5t43 8.5q23 0 44.5 -8t40.5 -21q17 9 33.5 22t28.5 29.5t15.5 30.5
t3.5 24q0 11 -3 22q-20 24 -52 34t-63 10q-43 0 -91.5 -19.5t-93.5 -53t-82 -78t-55 -95.5q9 -56 38 -105.5t70.5 -86.5t92.5 -58.5t106 -21.5z" />
    <glyph glyph-name="bn_ny_jha" horiz-adv-x="1512" 
d="M43 768q0 43 7 86t27 82q14 -6 24 -17l20 -22q-13 -60 -13 -122.5t18 -122.5q24 -31 52 -49.5t59 -29t63.5 -14t66.5 -3.5q37 0 73.5 2t71.5 2q91 0 158 -29t121 -104l5 3l-4 634q0 8 -0.5 22t-3.5 27.5t-9 23.5t-18 10q-17 0 -45.5 -13.5t-60 -35.5t-62.5 -50t-53.5 -58
t-30 -51.5t-7.5 -34.5q0 -12 5 -24q5 1 10 1.5t10 0.5q45 0 76.5 -27.5t31.5 -77.5q0 -64 -39 -95.5t-90 -31.5q-31 0 -63 11.5t-57 34.5t-41 57t-16 79q0 41 16 87t43.5 91.5t65.5 86.5t82 72.5t92 50t96 18.5q23 0 47 -13.5t45 -34t36.5 -44t19.5 -44.5q7 -32 9.5 -85
t2.5 -113l1 2q1 0 1.5 -0.5t1.5 -0.5h1l2 -1h1q23 56 55.5 96.5t71.5 67t81.5 39.5t83.5 13q45 0 86.5 -14.5t73 -43t50 -70t18.5 -95.5q0 -59 -20 -97.5t-52 -74.5q32 -39 51.5 -86t19.5 -98q0 -40 -18 -72.5t-47.5 -55t-66 -34.5t-74.5 -12q-30 0 -55 7v-232
q0 -85 6 -168.5t23 -167.5q-16 -13 -35 -17q-15 13 -30.5 24t-28.5 26q-46 52 -89.5 100.5t-103.5 85.5q0 -76 0.5 -152.5t14.5 -151.5q-6 -7 -14 -11.5t-16 -8.5q-19 12 -39 22t-37 26q-12 51 -50.5 95t-90.5 76.5t-110 51.5t-110 19h-9.5t-9.5 -1l-129 159q38 32 94.5 73
t118.5 79.5t123 68.5t109 40h2q-24 13 -54.5 17.5t-64.5 4.5q-61 0 -125 -8.5t-112 -8.5q-83 0 -146.5 24.5t-106.5 70.5t-65 111.5t-22 146.5zM1344 647q-8 11 -19.5 19t-23.5 15q-25 -23 -56 -34.5t-62 -11.5q-25 0 -48 7.5t-41 23t-28.5 39t-10.5 54.5q0 21 9.5 40
t25.5 33t35.5 22t40.5 8q24 0 48 -8t43 -23q21 4 40 20.5t31.5 38.5t15 38.5t2.5 23.5q0 16 -6 30q-28 28 -60.5 40.5t-67.5 12.5q-52 0 -105 -24t-98.5 -64t-78.5 -91t-45 -105q18 -74 49.5 -126t71.5 -84.5t83.5 -47.5t85.5 -15q40 0 75 12.5t59 35t31.5 46t7.5 41.5
q0 16 -4 34zM894 155q44 -37 90.5 -86.5t69.5 -103.5h5q-10 72 -10 148v26l3 278q-57 36 -99.5 95.5t-65.5 122.5l-4 -1q0 -121 5.5 -239.5t5.5 -239.5zM487 112q52 -21 95 -46t80 -56t69 -69t61 -86l7 4q-7 19 -10 52t-3.5 63.5t-0.5 51.5t0.5 54.5t1.5 75t2.5 77t1.5 57.5
q-86 -25 -165 -68t-139 -110z" />
    <glyph glyph-name="bn_tt_uniA99B" horiz-adv-x="1019" 
d="M-110 1187l17 27h848q26 12 49.5 29.5t39 39.5t18.5 39t3 25q0 20 -8 41q-24 24 -58 28t-66 4q-100 0 -197.5 -11.5t-197.5 -11.5q-42 0 -83 5.5t-78.5 19t-70 38t-57.5 61.5q-22 33 -31 68.5t-9 66.5q0 9 2 34t17.5 62.5t43.5 67.5q14 -11 28 -23t26 -26
q-48 -35 -54.5 -59t-6.5 -32q0 -32 33 -68q20 -21 47 -34t57.5 -20.5t61.5 -10.5t58 -3q84 0 166.5 5.5t166.5 5.5q50 0 95 -15.5t82 -42t63.5 -62t38 -70.5t11.5 -68q0 -8 -2 -32.5t-25 -62.5l55 -53l-21 -33h-633l-4 -653q0 -35 8.5 -77.5t32.5 -69.5q13 -4 33 -4
q38 0 82.5 16.5t89.5 43.5t85 61.5t68.5 71.5t37.5 64t9 43q0 17 -6 31q-17 -14 -36 -20t-38 -6q-25 0 -48 9.5t-40.5 27t-28 42t-10.5 53.5q0 32 12.5 55.5t33 39.5t47 24t55.5 8q44 0 79 -22.5t59.5 -56.5t37.5 -75t13 -78q0 -45 -11.5 -86t-32 -78t-47.5 -70.5t-58 -63.5
q20 -19 39 -44.5t34 -53t24.5 -57t9.5 -58.5q0 -62 -29.5 -111.5t-76 -84t-104 -53t-113.5 -18.5q-97 0 -176 44t-138 114t-98.5 156.5t-58.5 171.5q30 19 64 19q5 -60 34.5 -125t76.5 -119t107 -89t125 -35q43 0 90.5 9.5t90.5 30t77.5 52t50.5 74.5q-20 38 -59 58.5
t-78 32.5q-40 -23 -88 -43.5t-95 -20.5q-38 0 -78.5 26t-74.5 65t-55.5 85t-21.5 85v659h-265z" />
    <glyph glyph-name="bn_tt_uniA9A9" horiz-adv-x="1505" 
d="M-93 1214h862q26 12 49.5 29.5t39 39.5t18.5 39t3 25q0 20 -8 41q-24 24 -58 28t-66 4q-100 0 -197.5 -11.5t-197.5 -11.5q-43 0 -84 5.5t-78 19t-69 38t-58 61.5q-23 33 -31.5 68t-8.5 66q0 10 2 35t17.5 63t43.5 67q14 -12 28 -23.5t26 -25.5q-47 -33 -54.5 -58.5
t-7.5 -34.5q0 -32 34 -66q20 -21 47.5 -34t57.5 -20.5t60.5 -10.5t58.5 -3q84 0 166.5 5.5t166.5 5.5q62 0 122.5 -27t103 -73t52.5 -87.5t10 -63.5q0 -43 -19 -90h476l67 -65l-21 -33h-161l-2 -1038q0 -41 3.5 -80.5t13.5 -73.5l-35 -25q-20 17 -38 35t-37 36
q-10 58 -52 90.5t-97 32.5h-10q-5 0 -10 -1q-6 -75 -57.5 -117.5t-124.5 -42.5q-35 0 -66.5 11.5t-55 32.5t-37.5 50.5t-14 66.5q0 44 19 75t49 50.5t67.5 28t75.5 8.5q8 19 8 36q0 2 -0.5 12t-3.5 32q-30 17 -62 24t-65 7q-8 0 -16.5 -0.5t-17.5 -1.5q-25 -22 -57 -45
t-67.5 -41.5t-72 -30t-71.5 -11.5q-29 0 -62 19.5t-63.5 47.5t-54.5 60t-35 57q-8 20 -11.5 38t-3.5 39v619h-280l-66 71zM330 503q0 -35 8 -77.5t33 -69.5q13 -4 33 -4q38 0 83 16.5t89.5 43t84.5 61.5t68.5 71.5t37.5 63.5t9 44q0 16 -6 31q-32 -25 -74 -25q-24 0 -47 9
t-40.5 25.5t-28.5 40t-11 51.5q0 33 13.5 57.5t34.5 41t47.5 25t52.5 8.5q46 0 81 -22.5t59 -56.5t36.5 -75t12.5 -78q0 -63 -23.5 -120t-61.5 -106q32 -18 63.5 -41t58 -50.5t45.5 -60t26 -70.5q57 -18 101.5 -54t76.5 -86l5 4q-7 89 -8.5 185.5t-1.5 170.5q0 56 1 153.5
t4 238.5t4 268h-863z" />
    <glyph glyph-name="bn_dd_uniA99D" horiz-adv-x="1987" 
d="M-110 1187l17 27h1990l67 -65l-21 -33h-620v-425q0 -22 2 -43.5t10 -41.5q5 -1 16 -1q50 0 95.5 29t84 70.5t68.5 87t49 78.5l41 10q41 -37 78.5 -80t66.5 -91.5t46.5 -102t17.5 -110.5q0 -93 -35.5 -173.5t-97 -140t-144 -94t-175.5 -34.5q-84 0 -153 37.5t-123.5 97
t-94 132.5t-63.5 144q-19 -69 -56.5 -124t-88.5 -94t-114 -59.5t-135 -20.5q-97 0 -173.5 35.5t-135.5 94.5t-102 137t-73.5 163.5t-50.5 172t-33 164.5q10 4 19.5 5t20.5 1l69 -169q14 -78 46 -159.5t85.5 -148t130 -109t179.5 -42.5q78 0 147 30t117.5 82.5t68 111.5
t19.5 109q0 28 -5 57q-21 37 -63 55q-26 -31 -61 -64.5t-75 -61.5t-83 -46t-86 -18q-32 0 -61.5 23.5t-51.5 57t-35 70.5t-13 64v334h-462zM507 743q0 -20 1 -39.5t9 -37.5h3l6 -1h3q44 0 85 25t76 61.5t63.5 78.5t47.5 75l37 10q35 -31 68 -68t58.5 -78t42.5 -86.5
t20 -94.5q21 -70 55.5 -137t83.5 -119.5t113.5 -84.5t146.5 -32q75 0 145 28.5t124.5 78t87 117t32.5 144.5q0 49 -19.5 78.5t-55.5 44.5q-28 -34 -66.5 -71.5t-83 -68t-92.5 -50.5t-95 -20q-36 0 -68 26t-56.5 63t-39 78t-14.5 71v382h-718v-373z" />
    <glyph glyph-name="bn_rr_uniA992" horiz-adv-x="2099" 
d="M-93 1214h949l67 -65l-21 -33h-314v-424q0 -22 1.5 -43.5t9.5 -41.5q5 -2 11 -2h12q47 0 97.5 31t94 77t74.5 98t38 94h1q10 77 45 137t87.5 101t119 63t141.5 22q95 0 168 -32.5t129.5 -86.5t100.5 -125t81 -149h9q-2 57 -6.5 117t-15 119.5t-29 116.5t-47.5 107l49 34
q12 -15 26 -32t29.5 -33t32.5 -29t34 -21h128l90 -75l-18 -23h-28q-45 0 -100 2.5t-100 10.5q13 -33 20 -69.5t11 -74t4.5 -74.5t0.5 -72l-6 -592v-25q0 -69 5 -136.5t17 -120.5q-17 -21 -36 -34q-27 20 -50.5 43t-42.5 51q5 171 11.5 338.5t6.5 338.5q0 7 -6.5 24t-15.5 36
t-18 36.5t-13 24.5q-29 52 -69.5 102.5t-90.5 90.5t-107.5 64.5t-121.5 24.5q-45 0 -91 -18t-83.5 -49.5t-61 -74.5t-23.5 -92l4 -4q48 15 95.5 24t92.5 9q51 0 95 -13t77 -42.5t52 -77.5t19 -118q0 -57 -14.5 -112t-41 -105t-63 -93.5t-80.5 -79.5q-30 32 -55.5 68.5
t-44.5 76.5q48 25 93.5 71.5t75 103.5t34 94t4.5 49q0 47 -23 91q-21 7 -50 7q-34 0 -70.5 -10t-72 -26.5t-67.5 -38t-56 -44.5q40 -73 47.5 -126.5t7.5 -84.5q0 -43 -12 -100t-49.5 -120.5t-94 -110.5t-129.5 -74.5t-158 -27.5q-111 0 -197.5 42t-152.5 112.5t-113 162
t-80.5 191t-56 199.5t-37.5 187q11 5 21.5 6t21.5 1l75 -187q16 -59 36 -123.5t48.5 -126t66 -116.5t87.5 -96.5t115 -66t147 -24.5q74 0 143.5 28.5t122.5 78t85 116.5t32 143q0 48 -14 75.5t-60 47.5q-28 -34 -66.5 -70.5t-82 -67.5t-91 -51t-93.5 -20q-30 0 -55.5 21
t-44.5 41q-37 41 -56 79.5t-19 95.5v381h-535l-66 71zM632 -66q53 0 89.5 -36t36.5 -89q0 -54 -36 -89.5t-90 -35.5q-53 0 -89 36t-36 89q0 25 10 48t27 40t40 27t48 10z" />
    <glyph glyph-name="bn_nn_uniA99B" horiz-adv-x="1409" 
d="M40 830q0 66 24 124t66 101.5t99 68.5t124 25q54 0 100 -28t84 -70.5t67.5 -92t49.5 -92.5h7v42q0 35 -5 77.5t-14 86t-22.5 83.5t-31.5 70l42 35q17 -16 38 -24t39 -22h382q38 12 71.5 32.5t59 46.5t41 54t16.5 55q-15 12 -36.5 18.5t-45 10t-46.5 4t-42 0.5
q-48 0 -103.5 -6t-114.5 -13.5t-119.5 -13.5t-119.5 -6q-52 0 -100.5 6.5t-92 22.5t-80.5 43.5t-66 69.5q-23 33 -28.5 62.5t-5.5 50.5q0 16 4 43t21 62t42 64q15 -11 30 -22.5t27 -26.5q-64 -44 -64 -92q0 -4 3.5 -32.5t76.5 -66.5q40 -20 96.5 -27.5t122.5 -7.5
q55 0 113 4t113 8.5t104.5 8t87.5 3.5q79 0 148.5 -36t116.5 -100q39 -55 39 -101q0 -8 -4.5 -38t-66.5 -80h11l68 -65l-22 -33h-456q-42 0 -83.5 3.5t-83.5 9.5q24 -45 28 -97t4 -102l-4 -551q0 -48 8.5 -96t37.5 -87q25 -11 52 -11q43 0 88.5 23t88 60.5t79.5 84.5
t62 94.5t32.5 80.5t7.5 52t-5 34q-40 -25 -82 -25q-25 0 -47.5 9t-40 25.5t-27.5 39.5t-10 52q0 32 12.5 56t33.5 40t48 23.5t56 7.5q45 0 81.5 -19t62 -49.5t39 -70.5t13.5 -82q0 -51 -18 -112t-50 -122t-75 -118t-92.5 -101t-103 -70.5t-106.5 -26.5q-40 0 -79.5 29
t-72 71t-55.5 88.5t-29 81.5q-4 25 -4.5 56t-0.5 52t0.5 54.5t1.5 75t1 66.5q0 71 -26.5 141t-65 126t-82.5 91t-80 35q-52 0 -95.5 -19t-75.5 -52.5t-50 -78t-18 -95.5q0 -20 4.5 -45t14 -47.5t26 -38t40.5 -15.5q10 0 22 3q-11 27 -11 52q0 2 0.5 17t14 36.5t38 34.5
t58.5 13q44 0 72.5 -21t39.5 -48.5t11 -55.5q0 -8 -2 -30.5t-23 -53.5t-60 -52t-97 -21q-60 0 -109.5 27.5t-85.5 71.5t-56 99t-20 111z" />
    <glyph glyph-name="bn_nn_ttha" horiz-adv-x="1251" 
d="M385 1263q76 0 134.5 -40.5t99 -102t64 -134t29.5 -137.5h6q32 85 33 130t1 50q0 80 -30 160q-44 50 -94.5 104.5t-93 114.5t-71 125.5t-28.5 137.5q0 51 19 98t51 86q39 -23 76 -48.5t71 -54.5v-12q-36 -25 -58 -58.5t-22 -78.5q0 -46 23 -99t56 -105.5t70 -100.5
t64 -84h375l68 -65l-22 -33h-348q48 -64 94.5 -132.5t82.5 -142t58.5 -151.5t22.5 -161q0 -110 -41 -208t-112 -172t-168 -117.5t-208 -43.5q-88 0 -163.5 34t-126 94t-65 120t-14.5 101q0 47 12 98q65 13 125.5 40t115 64.5t101 85t83.5 101.5q6 24 6 53q0 12 -2.5 41.5
t-15 76.5t-33.5 93t-48.5 82t-60.5 58t-71 22q-58 0 -101.5 -22t-72 -57t-43 -78.5t-15 -65.5t-0.5 -23q0 -41 14.5 -78t42.5 -61q11 -3 24 -3q16 0 26 3q-11 27 -11 52q0 2 0.5 17t14 36.5t38 34.5t58.5 13q27 0 50 -10.5t40 -28.5t26.5 -42t9.5 -50q0 -38 -16 -66.5
t-42.5 -47t-59.5 -28t-67 -9.5q-60 0 -110 26t-86 68.5t-56 97t-20 111.5q0 66 23.5 124.5t64.5 102.5t98.5 69.5t124.5 25.5zM344 185q45 -34 93.5 -49.5t99.5 -15.5q86 0 169 39.5t148 105.5t105.5 152t40.5 180q0 63 -13.5 124t-36.5 119t-54 112.5t-66 105.5l-7 -4
q20 -67 20 -135q0 -13 -2.5 -60.5t-30 -125.5t-74.5 -149t-108.5 -127.5t-134.5 -96.5t-152 -56q-13 -27 -13 -55q0 -3 1 -20.5t15 -43.5z" />
    <glyph glyph-name="bn_nn_uniA99D" horiz-adv-x="1310" 
d="M41 958q22 8 43 8l76 -196q24 -119 74.5 -222.5t129 -180t186.5 -120.5t246 -44q51 0 104.5 13t98 41t72.5 70.5t28 102.5q-10 16 -23 26t-29 19q-29 -18 -61 -28t-64 -10q-27 0 -52 8t-43.5 24.5t-29.5 42.5t-11 62q0 31 12 54.5t31.5 40t44.5 25t51 8.5q25 0 48 -8
t42 -25q38 29 65 67t27 88q0 13 -13.5 43t-31.5 63.5t-35.5 64t-25.5 44.5q-11 -26 -26 -48.5t-29 -46.5q-20 -35 -35 -73.5t-22 -79.5l-82 -6q-7 41 -27.5 95t-50 103t-66 83t-75.5 34q-45 0 -84.5 -17.5t-68.5 -47.5t-45.5 -70t-16.5 -85q0 -33 11 -66t38 -55q12 -3 23 -3
q13 0 23 3q-9 22 -9 43q0 5 1.5 20t15 35t37 32t53.5 12q24 0 44.5 -10.5t35 -27.5t22.5 -39t8 -45q0 -35 -15 -61t-39.5 -43.5t-55 -26t-61.5 -8.5q-55 0 -101 24t-79 63t-51.5 89t-18.5 102q0 61 21.5 115.5t60 95t91.5 64t115 23.5q51 0 93.5 -24t75.5 -61.5t56 -83.5
t36 -90h6q8 25 23.5 63.5t30.5 79.5t24.5 74.5t9.5 53.5q0 6 -1 11l54 21q9 -11 20.5 -25.5t23 -30t22 -30t18.5 -25.5q11 -25 19 -50.5t19 -50.5q18 -39 43 -79.5t47.5 -82.5t38 -85.5t15.5 -88.5q0 -57 -29 -103t-70 -83q32 -34 49 -81t17 -93q0 -78 -30 -137.5t-80 -99.5
t-116.5 -60.5t-138.5 -20.5q-127 0 -228.5 39.5t-181.5 107t-140 158t-104 193t-74.5 212t-49.5 214.5z" />
    <glyph glyph-name="bn_nn_dd_uniA9AB" horiz-adv-x="1310" 
d="M84 981q14 -49 36 -94t40 -92q20 -113 78.5 -211t144 -170.5t192 -114t222.5 -41.5q48 0 101.5 12t98.5 37.5t74.5 66.5t29.5 99q-10 15 -23.5 23.5t-28.5 17.5q-26 -18 -58.5 -27.5t-64.5 -9.5q-27 0 -52.5 7.5t-44.5 23.5t-30.5 41.5t-11.5 60.5q0 30 12.5 52.5t32 38
t45 23t50.5 7.5q26 0 49.5 -7.5t40.5 -23.5q38 27 65 61.5t27 84.5q0 12 -13.5 40.5t-31.5 60.5t-35.5 61t-25.5 42q-14 -31 -31 -58t-33 -55t-29.5 -57.5t-19.5 -64.5l-82 -5q-14 82 -54.5 148.5t-103.5 119.5q-16 13 -28 21.5t-34 8.5q-43 0 -82 -16t-68.5 -44.5
t-46.5 -66.5t-17 -82q0 -32 11.5 -63t37.5 -51q12 -3 23 -3q13 0 23 3q-10 22 -10 42q0 5 2 19.5t16 32.5t37.5 29t52.5 11q23 0 43 -9.5t35 -25t23.5 -36.5t8.5 -44q0 -34 -15.5 -59t-40.5 -41t-55 -24t-60 -8q-53 0 -99 22t-79.5 58.5t-53 84.5t-19.5 99q0 60 23 111.5
t62 90t90 60t107 21.5q43 0 83 -13q30 -10 59 -37t54 -61t44 -70t28 -65h6q8 24 23.5 60.5t30.5 75t24.5 70t9.5 51.5q0 5 -1 10l55 20q9 -10 21 -23.5t24 -27.5t22.5 -28.5t16.5 -26.5q10 -20 17 -42l4 -12q7 -22 17 -42q18 -38 43 -76t47.5 -77t38 -80t15.5 -85
q0 -55 -30 -99t-69 -77q40 -38 52.5 -81.5t12.5 -80.5q0 -16 -4 -50.5t-28 -83.5t-63 -82q1 -89 1 -180v-71.5v-34.5q0 -128 16 -254l-37 -30q-14 17 -27.5 35.5t-27.5 35.5q-21 66 -61.5 99t-108.5 33q-43 0 -85.5 -5.5t-85.5 -12t-85.5 -12t-85.5 -5.5q-121 0 -206 39.5
t-136.5 109.5t-66.5 146t-15 139q0 41 5 84q33 -14 56 -37q0 -19 1 -47.5t4 -58.5t8 -57.5t13 -42.5q17 -31 54.5 -51t82.5 -32t90.5 -16.5t76.5 -4.5q60 0 118 8.5t118 8.5q108 0 178 -47.5t124 -138.5l8 5q-11 37 -16.5 79.5t-7.5 86.5t-2.5 87.5t-0.5 82.5
q-41 -16 -83.5 -22.5t-86.5 -6.5q-124 0 -224 36t-179.5 98.5t-140 147t-106 181.5t-76.5 202.5t-52 209.5q22 8 43 8z" />
    <glyph glyph-name="bn_nn_ddha" horiz-adv-x="1409" 
d="M353 1149q54 0 100 -28t84 -70.5t67.5 -92t49.5 -92.5h7v42q0 35 -5 77.5t-14 86t-22.5 83.5t-31.5 70l42 35q17 -16 38 -24t39 -22h611l68 -65l-22 -33h-471q-44 0 -86.5 3t-85.5 10q24 -45 28 -97t4 -102l-4 -551q0 -48 8.5 -96t37.5 -87q18 -7 41 -7q41 0 87.5 22
t90.5 58t83 82t65.5 93t35 81t8.5 53q0 20 -6 36q-17 -12 -36.5 -17.5t-39.5 -5.5q-25 0 -48.5 8.5t-42 24.5t-29.5 39t-11 52q0 32 12.5 56t33.5 40t48 23.5t56 7.5q45 0 81.5 -19t62 -49.5t39 -70.5t13.5 -82q0 -76 -22 -146t-58.5 -131t-83 -111.5t-96 -86.5t-97.5 -55.5
t-88 -19.5q-44 0 -87 34t-77 83t-55 102.5t-21 93.5q0 86 1 131.5t1 57.5q0 67 -10.5 135.5t-41.5 138t-97 133.5q-22 21 -47.5 39.5t-57.5 18.5q-52 0 -95.5 -19t-75.5 -52.5t-50 -78t-18 -95.5q0 -19 4 -44t14 -47.5t26.5 -38.5t40.5 -16q12 0 22 3q-11 27 -11 52
q0 2 0.5 17t14 36.5t38 34.5t58.5 13q25 0 47.5 -10t40 -27.5t27.5 -40t10 -47.5q0 -37 -16 -66t-42 -49t-59 -31t-67 -11q-60 0 -109.5 27.5t-85.5 71.5t-56 99t-20 111q0 66 23.5 124t65.5 101.5t99.5 68.5t124.5 25z" />
    <glyph glyph-name="bn_nn_nna" horiz-adv-x="1010" 
d="M396 1232q55 0 103.5 -28t87.5 -71t68.5 -94t47.5 -97h10q-8 91 -26.5 181.5t-65.5 171.5l49 34q12 -14 26 -31t30 -33.5t33 -30t33 -20.5h128l90 -75l-18 -23h-28q-45 0 -100 2.5t-100 10.5q27 -71 30.5 -146t4.5 -150l6 -718q0 -38 1.5 -75.5t9.5 -74.5
q-17 -21 -36 -34q-26 20 -50.5 43t-42.5 51l6 180q0 8 -4 22t-10 30t-12 30.5t-9 22.5q-10 23 -31.5 57t-49 66.5t-57.5 55.5t-57 23q-51 0 -95.5 -14.5t-78 -43t-53 -70t-19.5 -95.5q0 -36 12.5 -73t42.5 -60q11 -3 22 -3t28 5q-11 25 -11 50q0 22 10.5 39t26.5 28t36.5 17
t39.5 6q24 0 45.5 -9.5t37.5 -25.5t25.5 -37.5t9.5 -45.5q0 -35 -17 -61.5t-43.5 -44t-59 -26.5t-62.5 -9q-56 0 -104.5 24.5t-84 64.5t-56 91t-20.5 105q0 63 23.5 116.5t64.5 92.5t96 61t117 22q53 0 100 -26.5t86 -67t68 -89t47 -93.5q3 105 5 209t2 209q-3 32 -13.5 72
t-28 81t-41.5 80.5t-53.5 70.5t-64 49.5t-73.5 18.5q-40 0 -78.5 -18.5t-68.5 -49.5t-48 -71.5t-18 -85.5q0 -36 12.5 -73t42.5 -60q11 -3 22 -3t28 5q-11 24 -11 46q0 4 1.5 19t16 34t39.5 30t56 11q23 0 44.5 -9t38 -24.5t26 -36t9.5 -44.5q0 -36 -16.5 -63.5t-42.5 -45.5
t-58.5 -27t-64.5 -9q-56 0 -104.5 24.5t-84 64.5t-56 91t-20.5 105q0 63 23.5 116.5t64.5 92.5t96 61t117 22z" />
    <glyph glyph-name="bn_nn_uniA9A9" horiz-adv-x="1359" 
d="M60 940q0 63 23.5 116.5t64.5 92.5t96 61t117 22q55 0 103.5 -28t87.5 -71t68.5 -94t47.5 -97h10q-8 91 -26.5 181.5t-65.5 171.5l49 34q11 -14 25.5 -31t30.5 -33.5t33 -30t33 -20.5h510l68 -65l-22 -33h-165v-937q0 -64 3 -127.5t20 -125.5q-9 -9 -19.5 -17t-22.5 -13
q-5 4 -16.5 13.5t-23.5 20t-21.5 20t-10.5 13.5q-10 39 -37.5 91.5t-72 101.5t-106 86.5t-139.5 44.5q-9 -31 -30 -57.5t-49 -45t-60 -29t-64 -10.5q-36 0 -67 13.5t-54 36.5t-36.5 54t-13.5 67q0 48 18.5 82t48.5 55t68.5 31t78.5 10q55 0 101 -15q13 27 19 63t8 68.5
t2 59.5q0 10 -0.5 34t-2.5 54q-7 53 -27.5 117.5t-53 120.5t-76.5 94t-98 38q-49 0 -91 -16t-73.5 -45.5t-49.5 -70.5t-18 -91q0 -36 12.5 -73t42.5 -60q11 -3 22 -3t28 5q-11 24 -11 46q0 4 1.5 19t16 34t39.5 30t56 11q24 0 45.5 -9.5t37.5 -25.5t25.5 -37.5t9.5 -45.5
q0 -35 -17 -61.5t-43.5 -44t-59 -26.5t-62.5 -9q-56 0 -104.5 24.5t-84 64.5t-56 91t-20.5 105zM765 733q0 -75 1.5 -118t1.5 -52q0 -68 -17 -133q48 -29 91.5 -68.5t81.5 -85t71 -94.5t58 -99l4 2q-1 14 -3.5 27t-2.5 27q-2 110 -3 231.5t-1.5 247.5t-0.5 253v245
q-36 0 -73 -1t-75 -1q-43 0 -85 3t-84 12q16 -43 23.5 -93t10.5 -98.5t3 -92.5q0 -7 -0.5 -36.5t-0.5 -75.5z" />
    <glyph glyph-name="bn_t_uniA9A0" horiz-adv-x="1241" 
d="M-90 1187l17 27h1223l67 -65l-21 -33h-1220zM55 837q10 7 21.5 10t23.5 5q24 -49 50 -93.5t60 -92.5q17 -52 41 -111t57 -117t76 -111t97.5 -94t122.5 -65t150 -24q47 0 99 14.5t96.5 42.5t73.5 69.5t29 95.5q0 45 -22.5 80t-69.5 45q-26 -32 -62.5 -50.5t-77.5 -18.5
q-23 0 -44 9.5t-37.5 25.5t-26.5 37t-10 44q0 27 11.5 49.5t30.5 38.5t43.5 24.5t49.5 8.5q28 0 51 -10q20 17 39 35.5t34 39.5t24.5 45.5t9.5 51.5q0 20 -7 38.5t-18 35.5q-50 22 -108 22q-45 0 -88.5 -13.5t-82 -37.5t-70.5 -56.5t-55 -71.5q27 -22 32.5 -45t5.5 -36
q0 -19 -8.5 -43.5t-36 -46.5t-68.5 -22q-68 0 -97 40.5t-29 103.5q0 69 44 125.5t109 96.5t138.5 62t133.5 22q55 0 109.5 -14t97.5 -43t70 -74.5t27 -108.5q0 -33 -7 -56.5t-19 -44.5t-26.5 -41.5t-29.5 -46.5q63 -48 94 -116t31 -146q0 -77 -30.5 -138.5t-81.5 -104.5
t-118 -66t-140 -23q-102 0 -187.5 42t-156 111t-127 159t-102 186t-79.5 191.5t-60 175.5z" />
    <glyph glyph-name="bn_t_t_uniA9A7" horiz-adv-x="1241" 
d="M-24 1116l-66 71l17 27h1223l67 -65l-21 -33h-1220zM96 877q24 -42 50.5 -79t59.5 -72q32 -82 73 -159t101 -136.5t144.5 -95.5t203.5 -36q73 0 131.5 19.5t95.5 52.5t46 62.5t9 47.5q0 25 -11 52q-16 16 -36 23.5t-40 7.5q-25 -24 -63.5 -39t-80.5 -15q-20 0 -40.5 8
t-37 22t-27 33t-10.5 40q0 29 11.5 52t31 38.5t45.5 24t54 8.5q39 0 73 -14q24 18 42.5 42t27 48t8.5 47q0 6 -1.5 23t-21.5 44q-50 22 -106 22q-81 0 -155.5 -43t-120.5 -115q25 -28 27.5 -47t2.5 -26q0 -21 -10 -43t-35 -38.5t-59 -16.5q-60 0 -91 34.5t-31 93.5
q0 43 21 79.5t55 66.5t78 53.5t90 39t90.5 24t79.5 8.5q49 0 101.5 -11.5t95.5 -36.5t70.5 -65.5t27.5 -99.5q0 -52 -25.5 -95t-55.5 -66q57 -41 91.5 -104.5t34.5 -134.5q0 -58 -26.5 -102.5t-73.5 -76.5l-3 -361q0 -44 3.5 -76t17.5 -74l-35 -26q-22 17 -40.5 35.5
t-35.5 38.5q-69 81 -150.5 118.5t-187.5 37.5q-29 36 -62 68t-61 69q33 37 73.5 64.5t84.5 50.5q-113 29 -201.5 103t-156.5 171.5t-118 207.5t-86 211q19 10 44 13zM905 -160l5 3q-4 40 -7 85t-3.5 74.5t-0.5 43.5q0 29 1 62.5t5 65.5q-36 -10 -75.5 -27t-77 -38.5
t-72 -46.5t-61.5 -52q82 -20 156 -62.5t130 -107.5z" />
    <glyph glyph-name="bn_t_tha" horiz-adv-x="1330" 
d="M294 1211q38 0 74 -19.5t67 -49t56 -64.5t40 -66q7 28 20 58.5t31 60t39 55.5t43 45l27 -19q6 -24 23 -46t40 -45.5t48 -50t46 -58.5t34.5 -71t13.5 -88q0 -72 -31.5 -129t-81.5 -101.5t-111.5 -76.5t-121.5 -54l1 -6q136 -52 257 -139t200 -211l8 4q-8 49 -8 98v97
l1 651q0 37 -6.5 78t-18.5 81.5t-27.5 79t-33.5 70.5l48 34q7 -8 23.5 -27t36 -38.5t37.5 -34.5t27 -15h128l88 -74l-17 -24h-28q-46 0 -101 4t-100 9q14 -42 22.5 -113.5t13 -158.5t6 -182t2 -185t0.5 -167t1 -128q2 -57 2.5 -112.5t7.5 -111.5l-36 -26q-15 17 -28.5 36
t-30.5 34v2q-44 83 -111 146.5t-148 106t-171.5 64.5t-182.5 22h-18q-9 0 -18 -1q-41 54 -82.5 106t-91.5 98l27 36q53 0 114 9t122 27.5t118 47t100.5 69t69.5 92.5t26 117q0 51 -20.5 77.5t-62.5 51.5q-13 -19 -29.5 -46t-31 -56.5t-24.5 -58t-10 -52.5q0 -9 3 -18l-45 -9
q-17 42 -38.5 80t-44.5 69.5t-47 55t-47 36.5q-27 9 -55 9q-42 0 -80 -18.5t-64 -49t-33 -59t-7 -45.5q0 -24 8 -49q5 -5 14 -8.5t19 -3.5q5 0 8 1q-1 7 -1 14q0 16 6 32t19.5 29.5t32 20.5t37.5 7q18 0 36 -6.5t32 -21t22.5 -36.5t8.5 -53q0 -22 -10.5 -43t-28.5 -36.5
t-42.5 -25t-52.5 -9.5q-46 0 -81.5 20.5t-59.5 53.5t-36.5 74t-12.5 83q0 53 16 97.5t46.5 77t73.5 51t97 18.5z" />
    <glyph glyph-name="bn_t_uniA9A4" horiz-adv-x="1110" 
d="M-73 1214h1092l67 -65l-21 -33h-1089l-66 71zM71 973l88 -147q23 -82 60 -156t92 -129.5t131 -88.5t178 -33q66 0 123 20.5t99.5 59t67 93t24.5 122.5q0 30 -5 57t-24 56q-31 30 -77.5 49.5t-98.5 19.5q-39 0 -79 -14q31 -36 33 -59.5t2 -29.5q0 -33 -15.5 -63
t-51.5 -51.5t-84 -21.5q-36 0 -64.5 13.5t-48 37t-30 54.5t-10.5 65q0 45 24.5 80t62 59t81.5 36t84 12q75 0 146.5 -29t127 -79t89 -118t33.5 -146q0 -67 -20 -130.5t-64 -114.5l4 -377q1 -66 1 -130.5t8 -129.5l-36 -26l-2 3v-1q-27 34 -57 66v-1q-13 42 -42.5 88
t-71 83.5t-92.5 62t-107 24.5q-45 0 -86 -17q38 -25 49 -56.5t11 -53.5q0 -17 -7.5 -44.5t-43 -55t-95.5 -27.5q-33 0 -59 16t-44 41.5t-27.5 56.5t-9.5 60q0 45 21 83t54.5 65t75.5 42.5t84 15.5q66 0 126 -25t111 -67t91 -95.5t65 -110.5l5 2q-13 46 -19 100.5t-7.5 103.5
t-1.5 91q0 14 0.5 48.5t0.5 82.5q-46 -25 -96 -36.5t-102 -11.5q-94 0 -170.5 29.5t-138 80.5t-109 119t-84.5 145t-64.5 158.5t-49.5 159.5q8 8 19 11t22 3z" />
    <glyph glyph-name="bn_t_uniA9A9" horiz-adv-x="1534" 
d="M-90 1187l17 27h1517l67 -65l-21 -33h-161l-4 -1011q0 -42 1.5 -83t9.5 -83q2 -11 4.5 -22.5t3.5 -22.5l-35 -25q-20 17 -38 35t-37 36q-7 28 -22 57t-38.5 52.5t-55.5 38t-73 14.5q-4 -63 -44 -99.5t-102 -36.5q-28 0 -53 9.5t-44 27t-29.5 42t-10.5 53.5q0 34 13.5 59
t35.5 41.5t50.5 24.5t58.5 8h13q6 0 13 -1q-2 37 -21.5 73t-49.5 57q-52 -38 -114 -54.5t-125 -16.5q-86 0 -156 32.5t-127 86.5t-101.5 125t-79.5 147t-61 153t-46 144q16 10 37 10l77 -140q22 -83 57 -157.5t88 -130.5t126 -89t171 -33q58 0 111.5 18.5t94 52.5t65 82.5
t24.5 109.5q0 36 -11 72t-32.5 64.5t-52.5 46.5t-71 18q-41 0 -78 -28q21 -36 21 -68q0 -1 -0.5 -18t-18 -42.5t-49.5 -40.5t-74 -15q-31 0 -58.5 12t-47 33t-31 49t-11.5 59q0 45 19.5 77t50 52.5t69.5 30.5t78 10q77 0 146 -32t121 -85.5t82.5 -123.5t30.5 -146
q0 -54 -14.5 -104.5t-46.5 -94.5q33 -47 52 -100.5t30 -109.5q62 -20 114 -66.5t89 -98.5l4 4q-5 32 -6.5 65t-1.5 65l7 931h-1250z" />
    <glyph glyph-name="bn_d_uniA992" horiz-adv-x="1901" 
d="M-110 1187l17 27h793l67 -65l-21 -33h-487l-2 -550l7 -2q41 53 93.5 101t111.5 90t121.5 77t123.5 61q8 79 42 141.5t86.5 105.5t120.5 65.5t145 22.5q95 0 170 -32t134.5 -86t106 -125.5t83.5 -149.5h8q-2 57 -7 117t-15.5 119.5t-28.5 116.5t-47 107l49 34
q23 -30 55 -64t67 -51h128l90 -75l-18 -23h-28q-45 0 -100 2.5t-100 10.5q17 -44 25 -99t10.5 -108t2.5 -100q0 -10 -0.5 -42.5t-0.5 -79.5l4 -584q0 -38 1.5 -75.5t9.5 -75.5q-17 -21 -36 -34q-27 20 -50.5 43t-42.5 51q5 171 11.5 339t6.5 339q0 7 -7 24t-16.5 36
t-18.5 36.5t-14 24.5q-30 51 -72.5 101.5t-94.5 90.5t-111 64.5t-122 24.5q-45 0 -91 -15.5t-83.5 -44t-61.5 -69t-24 -89.5l21 -16q35 8 72 13t74 5q50 0 97 -10.5t83.5 -36t58.5 -68t22 -105.5q0 -65 -22.5 -127.5t-59.5 -118.5t-84 -104.5t-97 -86.5q-30 32 -55.5 68.5
t-44.5 76.5q30 16 65.5 43t69 61t61 74t43.5 82t16 83t-23 79q-24 6 -48 6q-32 0 -63 -9t-60 -24l1 -1q-60 -79 -103 -183.5t-57.5 -196.5t-14.5 -162q0 -45 8 -126t56 -184l-54 -24q-34 54 -55.5 122.5t-32.5 144t-11.5 120.5t-0.5 56q0 67 5.5 136t18.5 135.5t30 117.5
l-6 5q-76 -19 -151.5 -64t-142.5 -105.5t-120 -131.5t-84 -142h-10q-39 37 -77 75t-70 81q22 42 25.5 87.5t3.5 90.5l-2 493h-206z" />
    <glyph glyph-name="bn_d_gha" horiz-adv-x="1982" 
d="M-110 1187l17 27h1983l67 -65l-21 -33h-164l7 -950q0 -49 1.5 -98t9.5 -97l-37 -26q-15 17 -28.5 34.5t-28.5 34.5v3q-19 70 -65 124t-106.5 90.5t-131 55.5t-138.5 19q-38 0 -74 -6q-103 96 -184 206q62 64 128.5 122t136.5 112l-5 5q-42 -14 -93 -14q-43 0 -86 9.5
t-73 28.5q-60 -79 -102 -187t-56 -201.5t-14 -162.5q0 -46 8 -126t55 -173l-54 -24q-32 44 -52.5 108.5t-31.5 139.5t-12.5 126.5t-1.5 73.5q0 59 5 126.5t17.5 137t29.5 120.5l-6 5q-76 -19 -151.5 -64t-142.5 -105.5t-120 -131.5t-84 -142h-10q-39 37 -77 75t-70 81
q22 42 25.5 87.5t3.5 90.5l-2 493h-206zM1231 809q54 0 106 25t90 63q31 -32 61 -64t62 -62q-92 -69 -178 -144t-160 -163q140 -37 261.5 -110t206.5 -192l6 2q-10 70 -10 139q0 7 0.5 48t0.5 118l-2 647h-461q-17 0 -37 -12t-33 -23q-41 -34 -52 -70.5t-11 -60.5
q0 -20 8.5 -51t45 -60.5t96.5 -29.5zM257 566l7 -2q46 60 110.5 116t137.5 104t150.5 85.5t148.5 60.5q34 -17 64.5 -40t59.5 -48q-29 54 -29 112q0 13 5 56t44 106h-696z" />
    <glyph glyph-name="bn_d_uniA9A2" horiz-adv-x="1441" 
d="M-110 1187l17 27h1443l67 -65l-21 -33h-1139l-1 -552l9 -3q41 71 97 140t122.5 129t141.5 106.5t154 70.5q44 -32 80 -67.5t65 -82.5q-52 -47 -96 -103t-76 -118.5t-50 -131t-18 -139.5l7 -3q36 66 95 131.5t130 122t148.5 98.5t150.5 60q45 -32 83 -70t68 -85
q-182 -162 -219.5 -305t-37.5 -240q0 -113 32 -235l-57 -14q-30 75 -39.5 154t-9.5 146q0 27 3 88.5t22 153t48 165.5l-5 7q-62 -31 -119 -77.5t-104 -103.5t-82 -121.5t-55 -131.5l-7 -1q-15 17 -31 32.5t-30 32.5q-25 30 -39 64t-20.5 70t-8 74t-1.5 75q0 78 12.5 154.5
t40.5 149.5l-6 4q-59 -31 -113.5 -86t-101 -120t-83.5 -134t-61 -130h-10q-39 31 -78 79t-65 91q14 35 17 74t3 76l-2 506h-204z" />
    <glyph glyph-name="bn_d_d_uniA9A7" horiz-adv-x="1441" 
d="M-110 1187l17 27h1443l67 -65l-21 -33h-1139l-1 -552l9 -3q41 71 97 140t122.5 129t141.5 106.5t154 70.5q44 -33 80 -67.5t65 -82.5q-52 -46 -96.5 -100t-77.5 -114t-51.5 -126t-18.5 -138l8 -3q35 64 95 128t132.5 118t151 94.5t148.5 57.5q45 -32 83 -70t68 -85
q-70 -73 -105 -164t-49.5 -189.5t-14.5 -199.5v-195q0 -52 2 -103t19 -101l-37 -28l-76 68q-16 40 -46 67.5t-65 44.5t-73 25t-71 8q-21 0 -39 -3l-102 128q37 48 82.5 92.5t97 84t107 72t110.5 56.5q5 72 15 143t35 139l-5 6q-59 -31 -124.5 -79t-125.5 -105t-109.5 -120
t-77.5 -125l-6 -1l-38 36q-19 18 -33 40q-11 18 -17.5 45.5t-10 58t-4.5 60t-1 50.5q0 82 13 165t42 161l-6 4q-59 -31 -113.5 -86t-101 -120t-83.5 -134t-61 -130h-10q-19 15 -39 35.5t-39 43.5t-36 46.5t-29 44.5q14 34 17 73.5t3 76.5l-2 506h-204zM1100 -215l10 6
q-8 38 -11.5 85t-3.5 96.5t1.5 98t4.5 88.5q-34 -17 -70 -42t-69.5 -55t-63 -62.5t-52.5 -63.5q33 -5 69 -19.5t70.5 -34.5t64.5 -45t50 -52z" />
    </font>
</defs>
</svg>
